<svg xmlns="http://www.w3.org/2000/svg" xmlns:xlink="http://www.w3.org/1999/xlink" width="500" zoomAndPan="magnify" viewBox="0 0 375 374.999991" height="500" preserveAspectRatio="xMidYMid meet" version="1.0"><defs><g/><clipPath id="963abf5fa1"><path d="M 154 121.71875 L 263 121.71875 L 263 191.46875 L 154 191.46875 Z M 154 121.71875 " clip-rule="nonzero"/></clipPath><clipPath id="54956d35aa"><path d="M 112 121.71875 L 221 121.71875 L 221 191.46875 L 112 191.46875 Z M 112 121.71875 " clip-rule="nonzero"/></clipPath></defs><g clip-path="url(#963abf5fa1)"><path fill="#233dff" d="M 228.496094 121.914062 C 218.222656 121.722656 208.945312 125.988281 202.46875 132.902344 C 199.570312 135.992188 200.476562 141.007812 204.234375 142.972656 C 206.800781 144.320312 209.988281 143.851562 211.96875 141.742188 C 215.9375 137.515625 221.578125 134.875 227.839844 134.875 C 240.019531 134.875 249.859375 144.867188 249.589844 157.085938 C 249.40625 165.242188 244.554688 172.644531 237.195312 176.199219 C 226.125 181.546875 215.046875 174.519531 205.371094 169.386719 C 191.5 162.03125 177.628906 154.675781 163.757812 147.320312 C 160.644531 145.671875 156.785156 146.863281 155.148438 149.976562 C 153.53125 153.050781 154.6875 156.847656 157.746094 158.5 C 161.964844 160.78125 167.113281 163.78125 167.992188 164.242188 C 173.644531 167.199219 179.292969 170.15625 184.945312 173.113281 C 191.910156 176.761719 198.816406 180.515625 205.855469 184.019531 C 212.96875 187.5625 219.710938 191.277344 227.839844 191.277344 C 247.3125 191.277344 263.046875 175.285156 262.578125 155.742188 C 262.132812 137.277344 246.996094 122.253906 228.496094 121.914062 " fill-opacity="1" fill-rule="nonzero"/></g><g clip-path="url(#54956d35aa)"><path fill="#f4f6fc" d="M 146.242188 191.273438 C 156.515625 191.460938 165.792969 187.195312 172.269531 180.285156 C 175.167969 177.191406 174.261719 172.175781 170.503906 170.210938 L 170.300781 170.101562 C 167.777344 168.78125 164.71875 169.371094 162.769531 171.445312 C 158.800781 175.667969 153.160156 178.308594 146.898438 178.308594 C 134.71875 178.308594 124.878906 168.316406 125.148438 156.097656 C 125.332031 147.941406 130.183594 140.539062 137.542969 136.984375 C 148.613281 131.636719 159.691406 138.664062 169.367188 143.796875 C 183.238281 151.152344 197.109375 158.507812 210.980469 165.863281 C 214.09375 167.515625 217.953125 166.324219 219.589844 163.210938 C 221.207031 160.136719 220.050781 156.335938 216.992188 154.683594 C 212.773438 152.402344 207.625 149.402344 206.746094 148.941406 C 201.09375 145.984375 195.445312 143.027344 189.792969 140.070312 C 182.828125 136.425781 175.921875 132.667969 168.882812 129.164062 C 161.769531 125.625 155.027344 121.90625 146.898438 121.90625 C 127.425781 121.90625 111.691406 137.898438 112.160156 157.445312 C 112.605469 175.910156 127.742188 190.929688 146.242188 191.273438 " fill-opacity="1" fill-rule="nonzero"/></g><g fill="#ffffff" fill-opacity="1"><g transform="translate(68.25454, 231.288326)"><g><path d="M 1.15625 -19.984375 L 1.15625 -23.640625 L 18.65625 -23.640625 L 18.65625 -19.984375 L 12.25 -19.984375 L 12.25 0 L 7.515625 0 L 7.515625 -19.984375 Z M 1.15625 -19.984375 "/></g></g></g><g fill="#ffffff" fill-opacity="1"><g transform="translate(87.342101, 231.288326)"><g><path d="M 7.3125 -25.0625 L 7.3125 -15.953125 C 8.507812 -18.003906 10.453125 -19.03125 13.140625 -19.03125 C 15.285156 -19.03125 17.035156 -18.320312 18.390625 -16.90625 C 19.742188 -15.5 20.421875 -13.539062 20.421875 -11.03125 L 20.421875 0 L 15.671875 0 L 15.671875 -10.359375 C 15.671875 -11.828125 15.296875 -12.945312 14.546875 -13.71875 C 13.804688 -14.5 12.789062 -14.890625 11.5 -14.890625 C 10.21875 -14.890625 9.195312 -14.5 8.4375 -13.71875 C 7.6875 -12.945312 7.3125 -11.828125 7.3125 -10.359375 L 7.3125 0 L 2.546875 0 L 2.546875 -25.0625 Z M 7.3125 -25.0625 "/></g></g></g><g fill="#ffffff" fill-opacity="1"><g transform="translate(109.441747, 231.288326)"><g><path d="M 10.46875 0.265625 C 7.726562 0.265625 5.5 -0.617188 3.78125 -2.390625 C 2.070312 -4.160156 1.21875 -6.5 1.21875 -9.40625 C 1.21875 -12.320312 2.082031 -14.65625 3.8125 -16.40625 C 5.539062 -18.15625 7.773438 -19.03125 10.515625 -19.03125 C 13.253906 -19.03125 15.503906 -18.175781 17.265625 -16.46875 C 19.023438 -14.769531 19.90625 -12.5 19.90625 -9.65625 C 19.90625 -9 19.863281 -8.390625 19.78125 -7.828125 L 6.09375 -7.828125 C 6.207031 -6.609375 6.660156 -5.625 7.453125 -4.875 C 8.242188 -4.132812 9.25 -3.765625 10.46875 -3.765625 C 12.113281 -3.765625 13.332031 -4.441406 14.125 -5.796875 L 19.265625 -5.796875 C 18.722656 -4.003906 17.671875 -2.546875 16.109375 -1.421875 C 14.554688 -0.296875 12.675781 0.265625 10.46875 0.265625 Z M 14.96875 -10.90625 C 14.894531 -12.144531 14.4375 -13.132812 13.59375 -13.875 C 12.75 -14.625 11.726562 -15 10.53125 -15 C 9.332031 -15 8.332031 -14.625 7.53125 -13.875 C 6.726562 -13.132812 6.25 -12.144531 6.09375 -10.90625 Z M 14.96875 -10.90625 "/></g></g></g><g fill="#ffffff" fill-opacity="1"><g transform="translate(129.883053, 231.288326)"><g/></g></g><g fill="#ffffff" fill-opacity="1"><g transform="translate(139.358984, 231.288326)"><g><path d="M 4.703125 -3.21875 C 2.378906 -5.5 1.21875 -8.390625 1.21875 -11.890625 C 1.21875 -15.390625 2.382812 -18.273438 4.71875 -20.546875 C 7.0625 -22.828125 9.925781 -23.96875 13.3125 -23.96875 C 15.882812 -23.96875 18.164062 -23.3125 20.15625 -22 C 22.15625 -20.695312 23.585938 -18.859375 24.453125 -16.484375 L 18.71875 -16.484375 C 17.664062 -18.566406 15.863281 -19.609375 13.3125 -19.609375 C 11.164062 -19.609375 9.421875 -18.898438 8.078125 -17.484375 C 6.734375 -16.078125 6.0625 -14.203125 6.0625 -11.859375 C 6.0625 -9.523438 6.734375 -7.648438 8.078125 -6.234375 C 9.421875 -4.828125 11.164062 -4.125 13.3125 -4.125 C 15.832031 -4.125 17.632812 -5.164062 18.71875 -7.25 L 24.453125 -7.25 C 23.585938 -4.875 22.15625 -3.035156 20.15625 -1.734375 C 18.164062 -0.441406 15.882812 0.203125 13.3125 0.203125 C 9.894531 0.203125 7.023438 -0.9375 4.703125 -3.21875 Z M 4.703125 -3.21875 "/></g></g></g><g fill="#ffffff" fill-opacity="1"><g transform="translate(164.707628, 231.288326)"><g><path d="M 10.859375 -3.765625 C 12.191406 -3.765625 13.335938 -4.253906 14.296875 -5.234375 C 15.265625 -6.210938 15.75 -7.597656 15.75 -9.390625 C 15.75 -11.191406 15.273438 -12.578125 14.328125 -13.546875 C 13.378906 -14.515625 12.234375 -15 10.890625 -15 C 9.546875 -15 8.410156 -14.515625 7.484375 -13.546875 C 6.554688 -12.578125 6.09375 -11.1875 6.09375 -9.375 C 6.09375 -7.570312 6.554688 -6.1875 7.484375 -5.21875 C 8.410156 -4.25 9.535156 -3.765625 10.859375 -3.765625 Z M 3.984375 -2.40625 C 2.160156 -4.1875 1.25 -6.519531 1.25 -9.40625 C 1.25 -12.300781 2.175781 -14.628906 4.03125 -16.390625 C 5.882812 -18.148438 8.179688 -19.03125 10.921875 -19.03125 C 13.660156 -19.03125 15.957031 -18.148438 17.8125 -16.390625 C 19.664062 -14.628906 20.59375 -12.300781 20.59375 -9.40625 C 20.59375 -6.519531 19.660156 -4.1875 17.796875 -2.40625 C 15.929688 -0.625 13.617188 0.265625 10.859375 0.265625 C 8.109375 0.265625 5.816406 -0.625 3.984375 -2.40625 Z M 3.984375 -2.40625 "/></g></g></g><g fill="#ffffff" fill-opacity="1"><g transform="translate(185.859662, 231.288326)"><g><path d="M 2.546875 0 L 2.546875 -25.0625 L 7.3125 -25.0625 L 7.3125 0 Z M 2.546875 0 "/></g></g></g><g fill="#ffffff" fill-opacity="1"><g transform="translate(195.031002, 231.288326)"><g><path d="M 2.546875 0 L 2.546875 -25.0625 L 7.3125 -25.0625 L 7.3125 0 Z M 2.546875 0 "/></g></g></g><g fill="#ffffff" fill-opacity="1"><g transform="translate(204.202342, 231.288326)"><g><path d="M 10.46875 0.265625 C 7.726562 0.265625 5.5 -0.617188 3.78125 -2.390625 C 2.070312 -4.160156 1.21875 -6.5 1.21875 -9.40625 C 1.21875 -12.320312 2.082031 -14.65625 3.8125 -16.40625 C 5.539062 -18.15625 7.773438 -19.03125 10.515625 -19.03125 C 13.253906 -19.03125 15.503906 -18.175781 17.265625 -16.46875 C 19.023438 -14.769531 19.90625 -12.5 19.90625 -9.65625 C 19.90625 -9 19.863281 -8.390625 19.78125 -7.828125 L 6.09375 -7.828125 C 6.207031 -6.609375 6.660156 -5.625 7.453125 -4.875 C 8.242188 -4.132812 9.25 -3.765625 10.46875 -3.765625 C 12.113281 -3.765625 13.332031 -4.441406 14.125 -5.796875 L 19.265625 -5.796875 C 18.722656 -4.003906 17.671875 -2.546875 16.109375 -1.421875 C 14.554688 -0.296875 12.675781 0.265625 10.46875 0.265625 Z M 14.96875 -10.90625 C 14.894531 -12.144531 14.4375 -13.132812 13.59375 -13.875 C 12.75 -14.625 11.726562 -15 10.53125 -15 C 9.332031 -15 8.332031 -14.625 7.53125 -13.875 C 6.726562 -13.132812 6.25 -12.144531 6.09375 -10.90625 Z M 14.96875 -10.90625 "/></g></g></g><g fill="#ffffff" fill-opacity="1"><g transform="translate(224.643652, 231.288326)"><g><path d="M 3.78125 -2.375 C 2.070312 -4.132812 1.21875 -6.46875 1.21875 -9.375 C 1.21875 -12.289062 2.070312 -14.628906 3.78125 -16.390625 C 5.5 -18.148438 7.726562 -19.03125 10.46875 -19.03125 C 12.738281 -19.03125 14.640625 -18.472656 16.171875 -17.359375 C 17.710938 -16.253906 18.742188 -14.6875 19.265625 -12.65625 L 14.125 -12.65625 C 13.507812 -14.21875 12.289062 -15 10.46875 -15 C 9.082031 -15 8 -14.492188 7.21875 -13.484375 C 6.445312 -12.484375 6.0625 -11.113281 6.0625 -9.375 C 6.0625 -7.632812 6.445312 -6.265625 7.21875 -5.265625 C 8 -4.265625 9.082031 -3.765625 10.46875 -3.765625 C 12.269531 -3.765625 13.488281 -4.550781 14.125 -6.125 L 19.265625 -6.125 C 18.722656 -4.164062 17.675781 -2.609375 16.125 -1.453125 C 14.582031 -0.304688 12.695312 0.265625 10.46875 0.265625 C 7.726562 0.265625 5.5 -0.613281 3.78125 -2.375 Z M 3.78125 -2.375 "/></g></g></g><g fill="#ffffff" fill-opacity="1"><g transform="translate(244.272717, 231.288326)"><g><path d="M 9.8125 -4 L 12.09375 -4 L 12.09375 0 L 9.078125 0 C 7.160156 0 5.679688 -0.4375 4.640625 -1.3125 C 3.597656 -2.195312 3.078125 -3.65625 3.078125 -5.6875 L 3.078125 -14.859375 L 1.078125 -14.859375 L 1.078125 -18.765625 L 3.078125 -18.765625 L 3.078125 -23.390625 L 7.859375 -23.390625 L 7.859375 -18.765625 L 12.046875 -18.765625 L 12.046875 -14.859375 L 7.859375 -14.859375 L 7.859375 -5.6875 C 7.859375 -5.082031 8.003906 -4.648438 8.296875 -4.390625 C 8.585938 -4.128906 9.09375 -4 9.8125 -4 Z M 9.8125 -4 "/></g></g></g><g fill="#ffffff" fill-opacity="1"><g transform="translate(256.862282, 231.288326)"><g><path d="M 7.828125 -23.53125 C 7.828125 -22.71875 7.539062 -22.03125 6.96875 -21.46875 C 6.40625 -20.90625 5.722656 -20.625 4.921875 -20.625 C 4.117188 -20.625 3.4375 -20.90625 2.875 -21.46875 C 2.3125 -22.03125 2.03125 -22.71875 2.03125 -23.53125 C 2.03125 -24.34375 2.3125 -25.03125 2.875 -25.59375 C 3.4375 -26.15625 4.117188 -26.4375 4.921875 -26.4375 C 5.722656 -26.4375 6.40625 -26.15625 6.96875 -25.59375 C 7.539062 -25.03125 7.828125 -24.34375 7.828125 -23.53125 Z M 2.546875 0 L 2.546875 -18.765625 L 7.3125 -18.765625 L 7.3125 0 Z M 2.546875 0 "/></g></g></g><g fill="#ffffff" fill-opacity="1"><g transform="translate(266.03361, 231.288326)"><g><path d="M 0.234375 -18.765625 L 5.3125 -18.765625 L 10.15625 -4.09375 L 14.96875 -18.765625 L 20.046875 -18.765625 L 13.140625 0 L 7.140625 0 Z M 0.234375 -18.765625 "/></g></g></g><g fill="#ffffff" fill-opacity="1"><g transform="translate(285.628824, 231.288326)"><g><path d="M 10.46875 0.265625 C 7.726562 0.265625 5.5 -0.617188 3.78125 -2.390625 C 2.070312 -4.160156 1.21875 -6.5 1.21875 -9.40625 C 1.21875 -12.320312 2.082031 -14.65625 3.8125 -16.40625 C 5.539062 -18.15625 7.773438 -19.03125 10.515625 -19.03125 C 13.253906 -19.03125 15.503906 -18.175781 17.265625 -16.46875 C 19.023438 -14.769531 19.90625 -12.5 19.90625 -9.65625 C 19.90625 -9 19.863281 -8.390625 19.78125 -7.828125 L 6.09375 -7.828125 C 6.207031 -6.609375 6.660156 -5.625 7.453125 -4.875 C 8.242188 -4.132812 9.25 -3.765625 10.46875 -3.765625 C 12.113281 -3.765625 13.332031 -4.441406 14.125 -5.796875 L 19.265625 -5.796875 C 18.722656 -4.003906 17.671875 -2.546875 16.109375 -1.421875 C 14.554688 -0.296875 12.675781 0.265625 10.46875 0.265625 Z M 14.96875 -10.90625 C 14.894531 -12.144531 14.4375 -13.132812 13.59375 -13.875 C 12.75 -14.625 11.726562 -15 10.53125 -15 C 9.332031 -15 8.332031 -14.625 7.53125 -13.875 C 6.726562 -13.132812 6.25 -12.144531 6.09375 -10.90625 Z M 14.96875 -10.90625 "/></g></g></g><g fill="#ffffff" fill-opacity="1"><g transform="translate(110.941858, 250.776634)"><g><path d="M 6.0625 -4.75 C 6.0625 -4.101562 5.851562 -3.585938 5.4375 -3.203125 C 5.019531 -2.828125 4.453125 -2.640625 3.734375 -2.640625 L 1.734375 -2.640625 L 1.734375 0 L 0.8125 0 L 0.8125 -6.796875 L 3.671875 -6.796875 C 4.429688 -6.796875 5.019531 -6.613281 5.4375 -6.25 C 5.851562 -5.894531 6.0625 -5.394531 6.0625 -4.75 Z M 5.140625 -4.734375 C 5.140625 -5.617188 4.613281 -6.0625 3.5625 -6.0625 L 1.734375 -6.0625 L 1.734375 -3.375 L 3.59375 -3.375 C 4.625 -3.375 5.140625 -3.828125 5.140625 -4.734375 Z M 5.140625 -4.734375 "/></g></g></g><g fill="#ffffff" fill-opacity="1"><g transform="translate(118.709214, 250.776634)"><g><path d="M 5.609375 0 L 3.84375 -2.828125 L 1.734375 -2.828125 L 1.734375 0 L 0.8125 0 L 0.8125 -6.796875 L 4 -6.796875 C 4.769531 -6.796875 5.363281 -6.625 5.78125 -6.28125 C 6.195312 -5.9375 6.40625 -5.457031 6.40625 -4.84375 C 6.40625 -4.34375 6.253906 -3.921875 5.953125 -3.578125 C 5.660156 -3.234375 5.257812 -3.015625 4.75 -2.921875 L 6.671875 0 Z M 5.484375 -4.84375 C 5.484375 -5.238281 5.347656 -5.539062 5.078125 -5.75 C 4.804688 -5.957031 4.421875 -6.0625 3.921875 -6.0625 L 1.734375 -6.0625 L 1.734375 -3.546875 L 3.953125 -3.546875 C 4.441406 -3.546875 4.816406 -3.660156 5.078125 -3.890625 C 5.347656 -4.117188 5.484375 -4.4375 5.484375 -4.84375 Z M 5.484375 -4.84375 "/></g></g></g><g fill="#ffffff" fill-opacity="1"><g transform="translate(127.021, 250.776634)"><g><path d="M 0.8125 0 L 0.8125 -6.796875 L 5.96875 -6.796875 L 5.96875 -6.046875 L 1.734375 -6.046875 L 1.734375 -3.859375 L 5.671875 -3.859375 L 5.671875 -3.125 L 1.734375 -3.125 L 1.734375 -0.75 L 6.15625 -0.75 L 6.15625 0 Z M 0.8125 0 "/></g></g></g><g fill="#ffffff" fill-opacity="1"><g transform="translate(134.788356, 250.776634)"><g><path d="M 6.59375 0 L 6.59375 -4.53125 C 6.59375 -5.03125 6.601562 -5.515625 6.625 -5.984375 C 6.46875 -5.398438 6.328125 -4.945312 6.203125 -4.625 L 4.453125 0 L 3.796875 0 L 2.03125 -4.625 L 1.75 -5.453125 L 1.59375 -5.984375 L 1.609375 -5.4375 L 1.625 -4.53125 L 1.625 0 L 0.8125 0 L 0.8125 -6.796875 L 2.015625 -6.796875 L 3.828125 -2.078125 C 3.890625 -1.890625 3.953125 -1.6875 4.015625 -1.46875 C 4.078125 -1.25 4.113281 -1.09375 4.125 -1 C 4.15625 -1.132812 4.210938 -1.332031 4.296875 -1.59375 C 4.378906 -1.851562 4.429688 -2.015625 4.453125 -2.078125 L 6.234375 -6.796875 L 7.421875 -6.796875 L 7.421875 0 Z M 6.59375 0 "/></g></g></g><g fill="#ffffff" fill-opacity="1"><g transform="translate(144.19382, 250.776634)"><g><path d="M 0.90625 0 L 0.90625 -6.796875 L 1.828125 -6.796875 L 1.828125 0 Z M 0.90625 0 "/></g></g></g><g fill="#ffffff" fill-opacity="1"><g transform="translate(148.12126, 250.776634)"><g><path d="M 0.8125 0 L 0.8125 -6.796875 L 5.96875 -6.796875 L 5.96875 -6.046875 L 1.734375 -6.046875 L 1.734375 -3.859375 L 5.671875 -3.859375 L 5.671875 -3.125 L 1.734375 -3.125 L 1.734375 -0.75 L 6.15625 -0.75 L 6.15625 0 Z M 0.8125 0 "/></g></g></g><g fill="#ffffff" fill-opacity="1"><g transform="translate(155.888617, 250.776634)"><g><path d="M 5.609375 0 L 3.84375 -2.828125 L 1.734375 -2.828125 L 1.734375 0 L 0.8125 0 L 0.8125 -6.796875 L 4 -6.796875 C 4.769531 -6.796875 5.363281 -6.625 5.78125 -6.28125 C 6.195312 -5.9375 6.40625 -5.457031 6.40625 -4.84375 C 6.40625 -4.34375 6.253906 -3.921875 5.953125 -3.578125 C 5.660156 -3.234375 5.257812 -3.015625 4.75 -2.921875 L 6.671875 0 Z M 5.484375 -4.84375 C 5.484375 -5.238281 5.347656 -5.539062 5.078125 -5.75 C 4.804688 -5.957031 4.421875 -6.0625 3.921875 -6.0625 L 1.734375 -6.0625 L 1.734375 -3.546875 L 3.953125 -3.546875 C 4.441406 -3.546875 4.816406 -3.660156 5.078125 -3.890625 C 5.347656 -4.117188 5.484375 -4.4375 5.484375 -4.84375 Z M 5.484375 -4.84375 "/></g></g></g><g fill="#ffffff" fill-opacity="1"><g transform="translate(164.200403, 250.776634)"><g><path d="M 0.8125 0 L 0.8125 -6.796875 L 5.96875 -6.796875 L 5.96875 -6.046875 L 1.734375 -6.046875 L 1.734375 -3.859375 L 5.671875 -3.859375 L 5.671875 -3.125 L 1.734375 -3.125 L 1.734375 -0.75 L 6.15625 -0.75 L 6.15625 0 Z M 0.8125 0 "/></g></g></g><g fill="#ffffff" fill-opacity="1"><g transform="translate(171.967759, 250.776634)"><g/></g></g><g fill="#ffffff" fill-opacity="1"><g transform="translate(175.895199, 250.776634)"><g><path d="M 7.28125 0 L 6.1875 0 L 5.015625 -4.3125 C 4.929688 -4.582031 4.816406 -5.066406 4.671875 -5.765625 C 4.585938 -5.390625 4.515625 -5.078125 4.453125 -4.828125 C 4.398438 -4.578125 3.960938 -2.96875 3.140625 0 L 2.046875 0 L 0.046875 -6.796875 L 1 -6.796875 L 2.21875 -2.484375 C 2.363281 -1.941406 2.5 -1.382812 2.625 -0.8125 C 2.695312 -1.164062 2.785156 -1.550781 2.890625 -1.96875 C 2.992188 -2.382812 3.441406 -3.992188 4.234375 -6.796875 L 5.109375 -6.796875 L 6.296875 -2.5625 C 6.472656 -1.875 6.613281 -1.289062 6.71875 -0.8125 L 6.765625 -0.984375 C 6.847656 -1.347656 6.914062 -1.644531 6.96875 -1.875 C 7.019531 -2.113281 7.472656 -3.753906 8.328125 -6.796875 L 9.28125 -6.796875 Z M 7.28125 0 "/></g></g></g><g fill="#ffffff" fill-opacity="1"><g transform="translate(186.39434, 250.776634)"><g><path d="M 0.8125 0 L 0.8125 -6.796875 L 5.96875 -6.796875 L 5.96875 -6.046875 L 1.734375 -6.046875 L 1.734375 -3.859375 L 5.671875 -3.859375 L 5.671875 -3.125 L 1.734375 -3.125 L 1.734375 -0.75 L 6.15625 -0.75 L 6.15625 0 Z M 0.8125 0 "/></g></g></g><g fill="#ffffff" fill-opacity="1"><g transform="translate(194.161697, 250.776634)"><g><path d="M 6.0625 -1.921875 C 6.0625 -1.304688 5.84375 -0.832031 5.40625 -0.5 C 4.96875 -0.164062 4.351562 0 3.5625 0 L 0.8125 0 L 0.8125 -6.796875 L 3.28125 -6.796875 C 4.875 -6.796875 5.671875 -6.242188 5.671875 -5.140625 C 5.671875 -4.742188 5.554688 -4.40625 5.328125 -4.125 C 5.109375 -3.851562 4.789062 -3.671875 4.375 -3.578125 C 4.914062 -3.515625 5.332031 -3.332031 5.625 -3.03125 C 5.914062 -2.738281 6.0625 -2.367188 6.0625 -1.921875 Z M 4.75 -5.03125 C 4.75 -5.394531 4.625 -5.65625 4.375 -5.8125 C 4.125 -5.976562 3.757812 -6.0625 3.28125 -6.0625 L 1.734375 -6.0625 L 1.734375 -3.90625 L 3.28125 -3.90625 C 3.769531 -3.90625 4.132812 -3.992188 4.375 -4.171875 C 4.625 -4.359375 4.75 -4.644531 4.75 -5.03125 Z M 5.140625 -1.984375 C 5.140625 -2.785156 4.578125 -3.1875 3.453125 -3.1875 L 1.734375 -3.1875 L 1.734375 -0.734375 L 3.515625 -0.734375 C 4.078125 -0.734375 4.488281 -0.835938 4.75 -1.046875 C 5.007812 -1.253906 5.140625 -1.566406 5.140625 -1.984375 Z M 5.140625 -1.984375 "/></g></g></g><g fill="#ffffff" fill-opacity="1"><g transform="translate(201.929053, 250.776634)"><g><path d="M 5.0625 -1.875 C 5.0625 -1.25 4.859375 -0.765625 4.453125 -0.421875 C 4.054688 -0.078125 3.488281 0.09375 2.75 0.09375 C 2.0625 0.09375 1.507812 -0.0546875 1.09375 -0.359375 C 0.6875 -0.671875 0.445312 -1.132812 0.375 -1.75 L 1.265625 -1.828125 C 1.390625 -1.023438 1.882812 -0.625 2.75 -0.625 C 3.1875 -0.625 3.53125 -0.726562 3.78125 -0.9375 C 4.03125 -1.15625 4.15625 -1.476562 4.15625 -1.90625 C 4.15625 -2.269531 4.007812 -2.554688 3.71875 -2.765625 C 3.4375 -2.972656 3.03125 -3.078125 2.5 -3.078125 L 2 -3.078125 L 2 -3.828125 L 2.484375 -3.828125 C 2.953125 -3.828125 3.316406 -3.929688 3.578125 -4.140625 C 3.847656 -4.347656 3.984375 -4.632812 3.984375 -5 C 3.984375 -5.363281 3.875 -5.648438 3.65625 -5.859375 C 3.445312 -6.078125 3.128906 -6.1875 2.703125 -6.1875 C 2.316406 -6.1875 2.003906 -6.085938 1.765625 -5.890625 C 1.535156 -5.691406 1.398438 -5.414062 1.359375 -5.0625 L 0.484375 -5.125 C 0.554688 -5.675781 0.789062 -6.109375 1.1875 -6.421875 C 1.582031 -6.734375 2.09375 -6.890625 2.71875 -6.890625 C 3.394531 -6.890625 3.921875 -6.726562 4.296875 -6.40625 C 4.679688 -6.09375 4.875 -5.65625 4.875 -5.09375 C 4.875 -4.664062 4.75 -4.3125 4.5 -4.03125 C 4.257812 -3.757812 3.910156 -3.578125 3.453125 -3.484375 L 3.453125 -3.46875 C 3.953125 -3.414062 4.34375 -3.242188 4.625 -2.953125 C 4.914062 -2.671875 5.0625 -2.3125 5.0625 -1.875 Z M 5.0625 -1.875 "/></g></g></g><g fill="#ffffff" fill-opacity="1"><g transform="translate(208.602732, 250.776634)"><g/></g></g><g fill="#ffffff" fill-opacity="1"><g transform="translate(212.530172, 250.776634)"><g><path d="M 6.65625 -3.46875 C 6.65625 -2.769531 6.519531 -2.15625 6.25 -1.625 C 5.976562 -1.101562 5.585938 -0.703125 5.078125 -0.421875 C 4.578125 -0.140625 4 0 3.34375 0 L 0.8125 0 L 0.8125 -6.796875 L 3.0625 -6.796875 C 4.207031 -6.796875 5.09375 -6.503906 5.71875 -5.921875 C 6.34375 -5.347656 6.65625 -4.53125 6.65625 -3.46875 Z M 5.734375 -3.46875 C 5.734375 -4.3125 5.5 -4.953125 5.03125 -5.390625 C 4.570312 -5.835938 3.90625 -6.0625 3.03125 -6.0625 L 1.734375 -6.0625 L 1.734375 -0.734375 L 3.25 -0.734375 C 3.75 -0.734375 4.1875 -0.84375 4.5625 -1.0625 C 4.9375 -1.28125 5.222656 -1.59375 5.421875 -2 C 5.628906 -2.414062 5.734375 -2.90625 5.734375 -3.46875 Z M 5.734375 -3.46875 "/></g></g></g><g fill="#ffffff" fill-opacity="1"><g transform="translate(220.841958, 250.776634)"><g><path d="M 0.8125 0 L 0.8125 -6.796875 L 5.96875 -6.796875 L 5.96875 -6.046875 L 1.734375 -6.046875 L 1.734375 -3.859375 L 5.671875 -3.859375 L 5.671875 -3.125 L 1.734375 -3.125 L 1.734375 -0.75 L 6.15625 -0.75 L 6.15625 0 Z M 0.8125 0 "/></g></g></g><g fill="#ffffff" fill-opacity="1"><g transform="translate(228.609315, 250.776634)"><g><path d="M 3.765625 0 L 2.8125 0 L 0.046875 -6.796875 L 1.015625 -6.796875 L 2.890625 -2.015625 L 3.296875 -0.8125 L 3.703125 -2.015625 L 5.578125 -6.796875 L 6.546875 -6.796875 Z M 3.765625 0 "/></g></g></g><g fill="#ffffff" fill-opacity="1"><g transform="translate(236.376671, 250.776634)"><g/></g></g><g fill="#ffffff" fill-opacity="1"><g transform="translate(240.304111, 250.776634)"><g><path d="M 6.65625 -3.46875 C 6.65625 -2.769531 6.519531 -2.15625 6.25 -1.625 C 5.976562 -1.101562 5.585938 -0.703125 5.078125 -0.421875 C 4.578125 -0.140625 4 0 3.34375 0 L 0.8125 0 L 0.8125 -6.796875 L 3.0625 -6.796875 C 4.207031 -6.796875 5.09375 -6.503906 5.71875 -5.921875 C 6.34375 -5.347656 6.65625 -4.53125 6.65625 -3.46875 Z M 5.734375 -3.46875 C 5.734375 -4.3125 5.5 -4.953125 5.03125 -5.390625 C 4.570312 -5.835938 3.90625 -6.0625 3.03125 -6.0625 L 1.734375 -6.0625 L 1.734375 -0.734375 L 3.25 -0.734375 C 3.75 -0.734375 4.1875 -0.84375 4.5625 -1.0625 C 4.9375 -1.28125 5.222656 -1.59375 5.421875 -2 C 5.628906 -2.414062 5.734375 -2.90625 5.734375 -3.46875 Z M 5.734375 -3.46875 "/></g></g></g><g fill="#ffffff" fill-opacity="1"><g transform="translate(248.615898, 250.776634)"><g><path d="M 5.625 0 L 4.84375 -1.984375 L 1.75 -1.984375 L 0.96875 0 L 0.015625 0 L 2.796875 -6.796875 L 3.84375 -6.796875 L 6.5625 0 Z M 3.296875 -6.09375 L 3.265625 -5.96875 C 3.179688 -5.695312 3.0625 -5.351562 2.90625 -4.9375 L 2.03125 -2.703125 L 4.578125 -2.703125 L 3.703125 -4.953125 C 3.609375 -5.171875 3.519531 -5.421875 3.4375 -5.703125 Z M 3.296875 -6.09375 "/></g></g></g><g fill="#ffffff" fill-opacity="1"><g transform="translate(256.383254, 250.776634)"><g><path d="M 7.203125 -3.421875 C 7.203125 -2.710938 7.066406 -2.09375 6.796875 -1.5625 C 6.523438 -1.03125 6.132812 -0.617188 5.625 -0.328125 C 5.125 -0.046875 4.523438 0.09375 3.828125 0.09375 C 3.128906 0.09375 2.523438 -0.046875 2.015625 -0.328125 C 1.515625 -0.609375 1.128906 -1.015625 0.859375 -1.546875 C 0.597656 -2.085938 0.46875 -2.710938 0.46875 -3.421875 C 0.46875 -4.515625 0.765625 -5.363281 1.359375 -5.96875 C 1.953125 -6.582031 2.78125 -6.890625 3.84375 -6.890625 C 4.53125 -6.890625 5.128906 -6.753906 5.640625 -6.484375 C 6.148438 -6.210938 6.535156 -5.8125 6.796875 -5.28125 C 7.066406 -4.757812 7.203125 -4.140625 7.203125 -3.421875 Z M 6.265625 -3.421875 C 6.265625 -4.273438 6.050781 -4.941406 5.625 -5.421875 C 5.207031 -5.898438 4.613281 -6.140625 3.84375 -6.140625 C 3.0625 -6.140625 2.457031 -5.898438 2.03125 -5.421875 C 1.613281 -4.953125 1.40625 -4.285156 1.40625 -3.421875 C 1.40625 -2.578125 1.617188 -1.90625 2.046875 -1.40625 C 2.472656 -0.90625 3.066406 -0.65625 3.828125 -0.65625 C 4.617188 -0.65625 5.222656 -0.894531 5.640625 -1.375 C 6.054688 -1.863281 6.265625 -2.546875 6.265625 -3.421875 Z M 6.265625 -3.421875 "/></g></g></g></svg>