<svg width="226" height="26" viewBox="0 0 226 26" fill="none" xmlns="http://www.w3.org/2000/svg">
<path d="M15.192 2.696H18.192V-0.304001H15.192V2.696ZM15.192 5.064V8.064H18.192V5.064H15.192ZM9.112 5.064V2.064H6.112V5.064H9.112ZM9.112 25V28H12.112V25H9.112ZM6.2 25H3.2L3.2 28H6.2L6.2 25ZM6.2 5.064H9.2V2.064H6.2V5.064ZM0.0880001 5.064H-2.912V8.064H0.0880001L0.0880001 5.064ZM0.0880001 2.696L0.0880001 -0.304001H-2.912L-2.912 2.696H0.0880001ZM12.192 2.696V5.064H18.192V2.696H12.192ZM15.192 2.064H9.112V8.064H15.192V2.064ZM6.112 5.064V25H12.112L12.112 5.064H6.112ZM9.112 22H6.2L6.2 28H9.112V22ZM9.2 25L9.2 5.064H3.2V25H9.2ZM6.2 2.064H0.0880001L0.0880001 8.064H6.2V2.064ZM3.088 5.064V2.696H-2.912V5.064H3.088ZM0.0880001 5.696H15.192V-0.304001H0.0880001L0.0880001 5.696ZM31.3845 8.008L29.9591 10.6477L29.9797 10.6588L30.0004 10.6696L31.3845 8.008ZM33.8805 10.536L31.2279 11.9374L31.2382 11.9568L31.2487 11.976L33.8805 10.536ZM34.8085 25V28H37.8085V25H34.8085ZM31.9285 25H28.9285V28H31.9285V25ZM30.6165 11.08L28.4217 13.1252L28.4334 13.1378L28.4453 13.1502L30.6165 11.08ZM23.3525 11.112L21.1835 9.03943L21.1714 9.05216L21.1593 9.06504L23.3525 11.112ZM22.0085 25V28H25.0085V25H22.0085ZM19.0965 25H16.0965V28H19.0965V25ZM19.0965 1.32V-1.68H16.0965V1.32H19.0965ZM22.0085 1.32H25.0085V-1.68H22.0085V1.32ZM22.0085 9.96H19.0085V20.1744L24.532 11.5823L22.0085 9.96ZM24.3765 7.88L23.0801 5.17455L23.069 5.1799L23.0578 5.18535L24.3765 7.88ZM27.8005 10.144C28.6719 10.144 29.3694 10.3293 29.9591 10.6477L32.8099 5.36828C31.2663 4.5347 29.5744 4.144 27.8005 4.144V10.144ZM30.0004 10.6696C30.4908 10.9246 30.8964 11.3098 31.2279 11.9374L36.5331 9.13464C35.67 7.50091 34.4116 6.20072 32.7686 5.34635L30.0004 10.6696ZM31.2487 11.976C31.5712 12.5655 31.8085 13.4185 31.8085 14.664H37.8085C37.8085 12.6668 37.4271 10.7679 36.5123 9.09597L31.2487 11.976ZM31.8085 14.664V25H37.8085V14.664H31.8085ZM34.8085 22H31.9285V28H34.8085V22ZM34.9285 25V15.08H28.9285V25H34.9285ZM34.9285 15.08C34.9285 12.8566 34.369 10.6682 32.7877 9.00977L28.4453 13.1502C28.6134 13.3265 28.9285 13.8047 28.9285 15.08H34.9285ZM32.8113 9.03482C31.2666 7.37705 29.216 6.672 27.0325 6.672V12.672C27.8783 12.672 28.2171 12.9056 28.4217 13.1252L32.8113 9.03482ZM27.0325 6.672C24.8173 6.672 22.7569 7.39292 21.1835 9.03943L25.5215 13.1846C25.7828 12.9111 26.1757 12.672 27.0325 12.672V6.672ZM21.1593 9.06504C19.5695 10.7684 19.0085 13.0128 19.0085 15.304H25.0085C25.0085 13.9259 25.3435 13.3756 25.5457 13.159L21.1593 9.06504ZM19.0085 15.304V25H25.0085V15.304H19.0085ZM22.0085 22H19.0965V28H22.0085V22ZM22.0965 25V1.32H16.0965V25H22.0965ZM19.0965 4.32H22.0085V-1.68H19.0965V4.32ZM19.0085 1.32V9.96H25.0085V1.32H19.0085ZM24.532 11.5823C24.7973 11.1696 25.1598 10.8366 25.6952 10.5746L23.0578 5.18535C21.5879 5.9047 20.3717 6.9584 19.485 8.33773L24.532 11.5823ZM25.6729 10.5854C26.2501 10.3089 26.9414 10.144 27.8005 10.144V4.144C26.1423 4.144 24.5509 4.4698 23.0801 5.17455L25.6729 10.5854ZM55.7892 17.32V20.32H58.4949L58.7733 17.6287L55.7892 17.32ZM41.7733 17.32V14.32H38.5824L38.7789 17.5048L41.7733 17.32ZM43.5332 21.384L41.5021 23.5918L41.525 23.6129L41.5484 23.6335L43.5332 21.384ZM50.6053 21.96L52.3129 24.4266L52.3193 24.4222L52.3256 24.4177L50.6053 21.96ZM52.3973 19.592V16.592H50.2644L49.5638 18.6064L52.3973 19.592ZM55.5332 19.592L58.4233 20.3968L59.4828 16.592H55.5332V19.592ZM52.7173 23.72L54.5056 26.1287L54.5172 26.1201L54.5288 26.1113L52.7173 23.72ZM42.9893 24.168L41.4962 26.7701L41.5053 26.7753L41.5145 26.7805L42.9893 24.168ZM39.9172 21L37.2758 22.4223L37.2805 22.4309L37.2851 22.4394L39.9172 21ZM39.8853 11.432L42.5346 12.8395L39.8853 11.432ZM42.9253 8.296L44.3858 10.9164L44.3929 10.9125L44.4 10.9085L42.9253 8.296ZM51.8853 8.264L50.4062 10.8741V10.8741L51.8853 8.264ZM54.8293 11.272L52.1822 12.6838L52.1963 12.7103L52.211 12.7365L54.8293 11.272ZM52.8773 14.952V17.952H55.8773V14.952H52.8773ZM52.1413 12.104L49.5747 13.6574L49.584 13.6727L49.5934 13.6878L52.1413 12.104ZM50.1253 10.28L48.7563 12.9495L48.7969 12.9703L48.8381 12.9898L50.1253 10.28ZM43.5653 11.048L41.5609 8.81585L41.5494 8.82614L41.5381 8.83654L43.5653 11.048ZM41.8052 14.952L38.8173 14.6838L38.524 17.952H41.8052V14.952ZM52.8853 15.56C52.8853 16.0001 52.8598 16.4831 52.8052 17.0113L58.7733 17.6287C58.8467 16.9196 58.8853 16.2293 58.8853 15.56H52.8853ZM55.7892 14.32H41.7733V20.32H55.7892V14.32ZM38.7789 17.5048C38.9235 19.846 39.757 21.9864 41.5021 23.5918L45.5644 19.1762C45.1761 18.819 44.8364 18.25 44.7676 17.1352L38.7789 17.5048ZM41.5484 23.6335C43.2185 25.1071 45.249 25.824 47.4692 25.824V19.824C46.6175 19.824 46.024 19.5809 45.5181 19.1345L41.5484 23.6335ZM47.4692 25.824C49.1882 25.824 50.8686 25.4264 52.3129 24.4266L48.8976 19.4934C48.6779 19.6456 48.2676 19.824 47.4692 19.824V25.824ZM52.3256 24.4177C53.6941 23.4598 54.6817 22.156 55.2307 20.5776L49.5638 18.6064C49.4301 18.9907 49.2231 19.2655 48.8849 19.5023L52.3256 24.4177ZM52.3973 22.592H55.5332V16.592H52.3973V22.592ZM52.6432 18.7872C52.3519 19.8333 51.7957 20.6544 50.9057 21.3287L54.5288 26.1113C56.4548 24.6522 57.7759 22.7214 58.4233 20.3968L52.6432 18.7872ZM50.929 21.3113C50.1318 21.9031 49.0432 22.288 47.4692 22.288V28.288C50.0766 28.288 52.4867 27.6276 54.5056 26.1287L50.929 21.3113ZM47.4692 22.288C46.2713 22.288 45.2945 22.0243 44.464 21.5555L41.5145 26.7805C43.3293 27.805 45.3392 28.288 47.4692 28.288V22.288ZM44.4823 21.5659C43.6789 21.105 43.0411 20.4597 42.5494 19.5606L37.2851 22.4394C38.2867 24.2709 39.6969 25.7377 41.4962 26.7701L44.4823 21.5659ZM42.5587 19.5777C42.0808 18.6903 41.7972 17.5926 41.7972 16.2H35.7972C35.7972 18.4341 36.2603 20.5364 37.2758 22.4223L42.5587 19.5777ZM41.7972 16.2C41.7972 14.7925 42.0763 13.7021 42.5346 12.8395L37.2359 10.0245C36.2435 11.8926 35.7972 13.9808 35.7972 16.2H41.7972ZM42.5346 12.8395C42.9996 11.9642 43.609 11.3494 44.3858 10.9164L41.4647 5.67556C39.6388 6.69326 38.2216 8.16912 37.2359 10.0245L42.5346 12.8395ZM44.4 10.9085C45.2192 10.446 46.2142 10.176 47.4692 10.176V4.176C45.3109 4.176 43.2766 4.65262 41.4505 5.68353L44.4 10.9085ZM47.4692 10.176C48.6839 10.176 49.6338 10.4364 50.4062 10.8741L53.3643 5.65393C51.5767 4.64097 49.5826 4.176 47.4692 4.176V10.176ZM50.4062 10.8741C51.1985 11.323 51.7713 11.9134 52.1822 12.6838L57.4763 9.86024C56.5218 8.07062 55.132 6.65562 53.3643 5.65393L50.4062 10.8741ZM52.211 12.7365C52.6381 13.5001 52.8853 14.4154 52.8853 15.56H58.8853C58.8853 13.5046 58.4284 11.5612 57.4475 9.80754L52.211 12.7365ZM55.8773 14.952C55.8773 13.3923 55.5282 11.87 54.6891 10.5202L49.5934 13.6878C49.7357 13.9167 49.8773 14.2931 49.8773 14.952H55.8773ZM54.7077 10.5506C53.914 9.23918 52.7979 8.22828 51.4124 7.57017L48.8381 12.9898C49.1593 13.1424 49.3872 13.3475 49.5747 13.6574L54.7077 10.5506ZM51.4942 7.61055C50.1993 6.94651 48.7952 6.64 47.3412 6.64V12.64C47.9353 12.64 48.3872 12.7602 48.7563 12.9495L51.4942 7.61055ZM47.3412 6.64C45.168 6.64 43.1849 7.35754 41.5609 8.81585L45.5696 13.2801C46.0363 12.8611 46.5705 12.64 47.3412 12.64V6.64ZM41.5381 8.83654C39.8553 10.3791 39.0191 12.4342 38.8173 14.6838L44.7932 15.2202C44.89 14.1418 45.2272 13.5942 45.5924 13.2595L41.5381 8.83654ZM41.8052 17.952H52.8773V11.952H41.8052V17.952ZM69.2842 7.976L71.8929 9.45748L71.8968 9.45062L71.9007 9.44375L69.2842 7.976ZM73.2842 3.88L71.7888 1.27928L71.7817 1.28336L71.7747 1.28747L73.2842 3.88ZM85.3163 4.168L86.946 1.64929L85.3163 4.168ZM89.2842 9.16V12.16H93.6586L92.0829 8.07935L89.2842 9.16ZM85.7962 9.16L83.0711 10.4144L83.8746 12.16H85.7962V9.16ZM83.1082 6.056L81.5098 8.5947L81.5203 8.60128L81.5308 8.60778L83.1082 6.056ZM74.7562 6.056L76.2734 8.64409V8.64409L74.7562 6.056ZM71.8442 9.16L74.4925 10.5695L74.4971 10.5608L74.5017 10.552L71.8442 9.16ZM71.8442 18.504L69.1868 19.896L69.1914 19.9048L69.196 19.9135L71.8442 18.504ZM74.7562 21.576L76.2734 18.9879L74.7562 21.576ZM83.1082 21.608L84.6726 24.1678L84.6792 24.1638L84.6857 24.1598L83.1082 21.608ZM85.7962 18.504V15.504H83.8746L83.0711 17.2496L85.7962 18.504ZM89.2842 18.504L92.0792 19.594L93.6743 15.504H89.2842V18.504ZM85.3163 23.464L86.9249 25.9962L86.9355 25.9895L86.946 25.9827L85.3163 23.464ZM73.2842 23.752L71.7747 26.3445L71.794 26.3558L71.8135 26.3667L73.2842 23.752ZM69.2842 19.688L71.8929 18.2065L69.2842 19.688ZM70.8122 13.832C70.8122 12.1247 71.192 10.6917 71.8929 9.45748L66.6756 6.49452C65.4138 8.71626 64.8122 11.1873 64.8122 13.832H70.8122ZM71.9007 9.44375C72.6279 8.14746 73.5848 7.1765 74.7938 6.47252L71.7747 1.28747C69.613 2.54617 67.9033 4.30587 66.6678 6.50825L71.9007 9.44375ZM74.7797 6.48072C76.0078 5.77455 77.3758 5.408 78.9482 5.408V-0.592001C76.382 -0.592001 73.9741 0.0227795 71.7888 1.27928L74.7797 6.48072ZM78.9482 5.408C80.8771 5.408 82.4181 5.86601 83.6865 6.68671L86.946 1.64929C84.5877 0.123323 81.8834 -0.592001 78.9482 -0.592001V5.408ZM83.6865 6.68671C84.9304 7.49159 85.865 8.63324 86.4856 10.2407L92.0829 8.07935C91.0395 5.37743 89.3288 3.19107 86.946 1.64929L83.6865 6.68671ZM89.2842 6.16H85.7962V12.16H89.2842V6.16ZM88.5214 7.90557C87.6748 6.06646 86.3977 4.56254 84.6857 3.50422L81.5308 8.60778C82.1655 9.00012 82.6804 9.56554 83.0711 10.4144L88.5214 7.90557ZM84.7067 3.5173C82.9913 2.43723 81.026 1.968 78.9482 1.968V7.968C80.1132 7.968 80.9212 8.2241 81.5098 8.5947L84.7067 3.5173ZM78.9482 1.968C76.9048 1.968 74.9757 2.44992 73.2391 3.46791L76.2734 8.64409C77.0115 8.21141 77.877 7.968 78.9482 7.968V1.968ZM73.2391 3.46791C71.4887 4.49402 70.1356 5.95649 69.1868 7.76798L74.5017 10.552C74.9609 9.67551 75.5492 9.06865 76.2734 8.64409L73.2391 3.46791ZM69.196 7.75045C68.2198 9.58447 67.7882 11.6443 67.7882 13.832H73.7882C73.7882 12.4357 74.0607 11.3809 74.4925 10.5695L69.196 7.75045ZM67.7882 13.832C67.7882 16.0064 68.2229 18.056 69.1868 19.896L74.5017 17.112C74.0576 16.264 73.7882 15.1989 73.7882 13.832H67.7882ZM69.196 19.9135C70.1486 21.7032 71.501 23.1452 73.2391 24.1641L76.2734 18.9879C75.5368 18.5561 74.9479 17.9501 74.4925 17.0945L69.196 19.9135ZM73.2391 24.1641C74.9757 25.1821 76.9048 25.664 78.9482 25.664V19.664C77.877 19.664 77.0115 19.4206 76.2734 18.9879L73.2391 24.1641ZM78.9482 25.664C81.01 25.664 82.9627 25.2128 84.6726 24.1678L81.5439 19.0482C80.9498 19.4112 80.1291 19.664 78.9482 19.664V25.664ZM84.6857 24.1598C86.3977 23.1015 87.6748 21.5975 88.5214 19.7584L83.0711 17.2496C82.6804 18.0985 82.1655 18.6639 81.5308 19.0562L84.6857 24.1598ZM85.7962 21.504H89.2842V15.504H85.7962V21.504ZM86.4893 17.414C85.8715 18.9981 84.9383 20.1353 83.6865 20.9453L86.946 25.9827C89.3209 24.446 91.033 22.2766 92.0792 19.594L86.4893 17.414ZM83.7076 20.9318C82.4365 21.7393 80.8878 22.192 78.9482 22.192V28.192C81.8727 28.192 84.5693 27.4927 86.9249 25.9962L83.7076 20.9318ZM78.9482 22.192C77.3638 22.192 75.987 21.8302 74.755 21.1373L71.8135 26.3667C73.9949 27.5938 76.394 28.192 78.9482 28.192V22.192ZM74.7938 21.1595C73.5756 20.4501 72.6177 19.4827 71.8929 18.2065L66.6756 21.1695C67.9135 23.3493 69.6222 25.0912 71.7747 26.3445L74.7938 21.1595ZM71.8929 18.2065C71.192 16.9723 70.8122 15.5393 70.8122 13.832H64.8122C64.8122 16.4767 65.4138 18.9477 66.6756 21.1695L71.8929 18.2065ZM97.107 24.168L95.6322 26.7805L95.6411 26.7855L95.6501 26.7905L97.107 24.168ZM93.971 21L91.3296 22.4223L91.3427 22.4467L91.3563 22.4708L93.971 21ZM94.003 11.464L91.3958 9.9799L91.392 9.98655L91.3883 9.99322L94.003 11.464ZM97.203 8.296L98.6278 10.9361L98.6439 10.9274L98.6599 10.9185L97.203 8.296ZM106.227 8.296L104.77 10.9185L104.786 10.9274L104.802 10.9361L106.227 8.296ZM109.395 11.432L106.78 12.9028L106.789 12.9182L106.798 12.9335L109.395 11.432ZM109.363 21L106.773 19.4859L106.769 19.4922L106.766 19.4985L109.363 21ZM106.131 24.168L107.57 26.8001L106.131 24.168ZM106.739 19.784L104.152 18.2654L104.139 18.2865L104.127 18.3078L106.739 19.784ZM104.595 10.44L103.154 13.0713L103.178 13.0846L103.203 13.0975L104.595 10.44ZM98.739 10.44L100.157 13.0835L100.169 13.0774L100.18 13.0713L98.739 10.44ZM96.627 12.616L99.2629 14.0485L96.627 12.616ZM96.595 19.816L93.9352 21.2037L93.947 21.2262L93.9591 21.2485L96.595 19.816ZM98.707 22.024L97.2392 24.6404L97.2638 24.6542L97.2885 24.6675L98.707 22.024ZM101.587 22.288C100.418 22.288 99.4318 22.0277 98.5639 21.5455L95.6501 26.7905C97.4702 27.8017 99.4705 28.288 101.587 28.288V22.288ZM98.5818 21.5555C97.7517 21.0869 97.094 20.4328 96.5857 19.5292L91.3563 22.4708C92.384 24.2979 93.817 25.7557 95.6322 26.7805L98.5818 21.5555ZM96.6124 19.5777C96.1346 18.6903 95.851 17.5926 95.851 16.2H89.851C89.851 18.4341 90.3141 20.5364 91.3296 22.4223L96.6124 19.5777ZM95.851 16.2C95.851 14.8481 96.1368 13.7898 96.6177 12.9348L91.3883 9.99322C90.3332 11.8688 89.851 13.9679 89.851 16.2H95.851ZM96.6102 12.9481C97.1345 12.027 97.8012 11.3822 98.6278 10.9361L95.7782 5.65593C93.9168 6.66048 92.4501 8.1277 91.3958 9.9799L96.6102 12.9481ZM98.6599 10.9185C99.522 10.4395 100.518 10.176 101.715 10.176V4.176C99.5843 4.176 97.572 4.65912 95.7461 5.67353L98.6599 10.9185ZM101.715 10.176C102.912 10.176 103.908 10.4395 104.77 10.9185L107.684 5.67353C105.858 4.65912 103.846 4.176 101.715 4.176V10.176ZM104.802 10.9361C105.634 11.3848 106.283 12.0185 106.78 12.9028L112.01 9.96122C110.971 8.11488 109.508 6.65791 107.652 5.65593L104.802 10.9361ZM106.798 12.9335C107.286 13.7777 107.579 14.8338 107.579 16.2H113.579C113.579 13.9396 113.083 11.8169 111.992 9.93049L106.798 12.9335ZM107.579 16.2C107.579 17.5512 107.282 18.6155 106.773 19.4859L111.953 22.5141C113.065 20.6111 113.579 18.4754 113.579 16.2H107.579ZM106.766 19.4985C106.248 20.3948 105.568 21.0566 104.692 21.5359L107.57 26.8001C109.425 25.786 110.9 24.3359 111.96 22.5015L106.766 19.4985ZM104.692 21.5359C103.798 22.0245 102.784 22.288 101.587 22.288V28.288C103.718 28.288 105.733 27.8048 107.57 26.8001L104.692 21.5359ZM101.587 25.728C103.123 25.728 104.591 25.362 105.946 24.6374L103.116 19.3466C102.636 19.6033 102.141 19.728 101.587 19.728V25.728ZM105.946 24.6374C107.407 23.8559 108.54 22.6938 109.351 21.2602L104.127 18.3078C103.828 18.8369 103.49 19.1468 103.116 19.3466L105.946 24.6374ZM109.326 21.3026C110.23 19.7632 110.603 18.0161 110.603 16.2H104.603C104.603 17.1999 104.4 17.8421 104.152 18.2654L109.326 21.3026ZM110.603 16.2C110.603 14.4018 110.248 12.6706 109.383 11.1398L104.159 14.0922C104.403 14.5241 104.603 15.1822 104.603 16.2H110.603ZM109.383 11.1398C108.577 9.71503 107.452 8.55001 105.987 7.78251L103.203 13.0975C103.53 13.2687 103.855 13.5543 104.159 14.0922L109.383 11.1398ZM106.036 7.80871C104.688 7.07033 103.22 6.704 101.683 6.704V12.704C102.237 12.704 102.71 12.8283 103.154 13.0713L106.036 7.80871ZM101.683 6.704C100.136 6.704 98.6556 7.06529 97.2981 7.80871L100.18 13.0713C100.614 12.8334 101.097 12.704 101.683 12.704V6.704ZM97.3205 7.79652C95.868 8.57596 94.7675 9.75491 93.9911 11.1835L99.2629 14.0485C99.5532 13.5144 99.8607 13.2427 100.157 13.0835L97.3205 7.79652ZM93.9911 11.1835C93.1644 12.7046 92.827 14.4195 92.827 16.2H98.827C98.827 15.1645 99.0229 14.4901 99.2629 14.0485L93.9911 11.1835ZM92.827 16.2C92.827 17.9761 93.1441 19.6874 93.9352 21.2037L99.2548 18.4283C99.0219 17.9819 98.827 17.2826 98.827 16.2H92.827ZM93.9591 21.2485C94.7308 22.6684 95.8166 23.8424 97.2392 24.6404L100.175 19.4076C99.8481 19.2243 99.5259 18.9262 99.2309 18.3835L93.9591 21.2485ZM97.2885 24.6675C98.6227 25.3834 100.074 25.728 101.587 25.728V19.728C101.009 19.728 100.541 19.6033 100.125 19.3805L97.2885 24.6675ZM117.64 1.32H120.64V-1.68H117.64V1.32ZM117.64 25V28H120.64V25H117.64ZM114.728 25H111.728V28H114.728V25ZM114.728 1.32V-1.68H111.728V1.32H114.728ZM114.64 1.32V25H120.64V1.32H114.64ZM117.64 22H114.728V28H117.64V22ZM117.728 25V1.32H111.728V25H117.728ZM114.728 4.32H117.64V-1.68H114.728V4.32ZM125.835 1.32H128.835V-1.68H125.835V1.32ZM125.835 25V28L128.835 28V25L125.835 25ZM122.923 25H119.923V28H122.923V25ZM122.923 1.32V-1.68H119.923V1.32H122.923ZM122.835 1.32V25L128.835 25V1.32H122.835ZM125.835 22H122.923V28H125.835V22ZM125.923 25V1.32H119.923V25H125.923ZM122.923 4.32H125.835V-1.68H122.923V4.32ZM147.022 17.32V20.32H149.727L150.006 17.6287L147.022 17.32ZM133.006 17.32V14.32H129.815L130.011 17.5048L133.006 17.32ZM134.766 21.384L132.735 23.5918L132.758 23.6129L132.781 23.6335L134.766 21.384ZM141.838 21.96L143.545 24.4266L143.552 24.4222L143.558 24.4177L141.838 21.96ZM143.63 19.592V16.592H141.497L140.796 18.6064L143.63 19.592ZM146.766 19.592L149.656 20.3968L150.715 16.592H146.766V19.592ZM143.95 23.72L145.738 26.1287L145.75 26.1201L145.761 26.1113L143.95 23.72ZM134.222 24.168L132.729 26.7701L132.738 26.7753L132.747 26.7805L134.222 24.168ZM131.15 21L128.508 22.4223L128.513 22.4309L128.518 22.4394L131.15 21ZM131.118 11.432L133.767 12.8395L131.118 11.432ZM134.158 8.296L135.618 10.9164L135.625 10.9125L135.633 10.9085L134.158 8.296ZM143.118 8.264L141.639 10.8741L141.639 10.8741L143.118 8.264ZM146.062 11.272L143.415 12.6838L143.429 12.7103L143.443 12.7365L146.062 11.272ZM144.11 14.952V17.952H147.11V14.952H144.11ZM143.374 12.104L140.807 13.6574L140.816 13.6727L140.826 13.6878L143.374 12.104ZM141.358 10.28L139.989 12.9495L140.029 12.9703L140.071 12.9898L141.358 10.28ZM134.798 11.048L132.793 8.81585L132.782 8.82614L132.771 8.83654L134.798 11.048ZM133.038 14.952L130.05 14.6838L129.756 17.952H133.038V14.952ZM144.118 15.56C144.118 16.0001 144.092 16.4831 144.038 17.0113L150.006 17.6287C150.079 16.9196 150.118 16.2293 150.118 15.56H144.118ZM147.022 14.32H133.006V20.32H147.022V14.32ZM130.011 17.5048C130.156 19.846 130.99 21.9864 132.735 23.5918L136.797 19.1762C136.409 18.819 136.069 18.25 136 17.1352L130.011 17.5048ZM132.781 23.6335C134.451 25.1071 136.481 25.824 138.702 25.824V19.824C137.85 19.824 137.257 19.5809 136.751 19.1345L132.781 23.6335ZM138.702 25.824C140.421 25.824 142.101 25.4264 143.545 24.4266L140.13 19.4934C139.91 19.6456 139.5 19.824 138.702 19.824V25.824ZM143.558 24.4177C144.927 23.4598 145.914 22.156 146.463 20.5776L140.796 18.6064C140.663 18.9907 140.456 19.2655 140.117 19.5023L143.558 24.4177ZM143.63 22.592H146.766V16.592H143.63V22.592ZM143.876 18.7872C143.584 19.8333 143.028 20.6544 142.138 21.3287L145.761 26.1113C147.687 24.6522 149.008 22.7214 149.656 20.3968L143.876 18.7872ZM142.161 21.3113C141.364 21.9031 140.276 22.288 138.702 22.288V28.288C141.309 28.288 143.719 27.6276 145.738 26.1287L142.161 21.3113ZM138.702 22.288C137.504 22.288 136.527 22.0243 135.697 21.5555L132.747 26.7805C134.562 27.805 136.572 28.288 138.702 28.288V22.288ZM135.715 21.5659C134.911 21.105 134.274 20.4597 133.782 19.5606L128.518 22.4394C129.519 24.2709 130.929 25.7377 132.729 26.7701L135.715 21.5659ZM133.791 19.5777C133.313 18.6903 133.03 17.5926 133.03 16.2H127.03C127.03 18.4341 127.493 20.5364 128.508 22.4223L133.791 19.5777ZM133.03 16.2C133.03 14.7925 133.309 13.7021 133.767 12.8395L128.468 10.0245C127.476 11.8926 127.03 13.9808 127.03 16.2H133.03ZM133.767 12.8395C134.232 11.9642 134.842 11.3494 135.618 10.9164L132.697 5.67556C130.871 6.69326 129.454 8.16912 128.468 10.0245L133.767 12.8395ZM135.633 10.9085C136.452 10.446 137.447 10.176 138.702 10.176V4.176C136.543 4.176 134.509 4.65262 132.683 5.68353L135.633 10.9085ZM138.702 10.176C139.916 10.176 140.866 10.4364 141.639 10.8741L144.597 5.65393C142.809 4.64097 140.815 4.176 138.702 4.176V10.176ZM141.639 10.8741C142.431 11.323 143.004 11.9134 143.415 12.6838L148.709 9.86024C147.754 8.07062 146.364 6.65562 144.597 5.65393L141.639 10.8741ZM143.443 12.7365C143.871 13.5001 144.118 14.4154 144.118 15.56H150.118C150.118 13.5046 149.661 11.5612 148.68 9.80754L143.443 12.7365ZM147.11 14.952C147.11 13.3923 146.761 11.87 145.922 10.5202L140.826 13.6878C140.968 13.9167 141.11 14.2931 141.11 14.952H147.11ZM145.94 10.5506C145.146 9.23918 144.03 8.22828 142.645 7.57017L140.071 12.9898C140.392 13.1424 140.62 13.3475 140.807 13.6574L145.94 10.5506ZM142.727 7.61055C141.432 6.94651 140.028 6.64 138.574 6.64V12.64C139.168 12.64 139.62 12.7602 139.989 12.9495L142.727 7.61055ZM138.574 6.64C136.4 6.64 134.417 7.35754 132.793 8.81585L136.802 13.2801C137.269 12.8611 137.803 12.64 138.574 12.64V6.64ZM132.771 8.83654C131.088 10.3791 130.252 12.4342 130.05 14.6838L136.026 15.2202C136.123 14.1418 136.46 13.5942 136.825 13.2595L132.771 8.83654ZM133.038 17.952H144.11V11.952H133.038V17.952ZM151.282 11.464L153.922 12.8888L153.926 12.8801L153.931 12.8715L151.282 11.464ZM154.29 8.296L152.796 5.6939L152.787 5.69925L152.778 5.70466L154.29 8.296ZM164.049 8.744L162.244 11.1396L162.252 11.1462L162.261 11.1527L164.049 8.744ZM166.834 13.096V16.096H170.644L169.75 12.3921L166.834 13.096ZM163.698 13.096L160.809 13.9049L161.422 16.096H163.698V13.096ZM161.938 10.568L160.177 12.9968L160.191 13.0071L160.205 13.0172L161.938 10.568ZM154.706 11.368L156.929 13.3818L156.938 13.3715L156.948 13.3611L154.706 11.368ZM154.706 21.096L156.948 19.1029L154.706 21.096ZM161.938 21.928L163.658 24.3857L161.938 21.928ZM163.698 19.368V16.368H161.441L160.815 18.5365L163.698 19.368ZM166.834 19.368L169.736 20.1281L170.72 16.368H166.834V19.368ZM164.018 23.688L165.829 26.0793L165.84 26.0706L165.852 26.0619L164.018 23.688ZM154.29 24.168L152.778 26.7593L152.787 26.7648L152.796 26.7701L154.29 24.168ZM151.282 21L148.632 22.4075L151.282 21ZM153.194 16.2C153.194 14.791 153.473 13.7199 153.922 12.8888L148.641 10.0392C147.639 11.8961 147.194 13.9823 147.194 16.2H153.194ZM153.931 12.8715C154.406 11.9765 155.025 11.3404 155.801 10.8873L152.778 5.70466C150.995 6.74498 149.607 8.22084 148.632 10.0565L153.931 12.8715ZM155.783 10.8981C156.581 10.4398 157.539 10.176 158.738 10.176V4.176C156.608 4.176 154.6 4.65885 152.796 5.6939L155.783 10.8981ZM158.738 10.176C160.4 10.176 161.492 10.5729 162.244 11.1396L165.855 6.34843C163.834 4.82448 161.384 4.176 158.738 4.176V10.176ZM162.261 11.1527C163.054 11.7411 163.618 12.5617 163.917 13.7999L169.75 12.3921C169.153 9.91833 167.861 7.83753 165.838 6.33527L162.261 11.1527ZM166.834 10.096H163.698V16.096H166.834V10.096ZM166.586 12.2871C166.109 10.5815 165.127 9.1496 163.67 8.11875L160.205 13.0172C160.497 13.2237 160.689 13.4772 160.809 13.9049L166.586 12.2871ZM163.698 8.13917C162.231 7.07551 160.512 6.64 158.738 6.64V12.64C159.523 12.64 159.937 12.8232 160.177 12.9968L163.698 8.13917ZM158.738 6.64C156.293 6.64 154.106 7.5272 152.463 9.37491L156.948 13.3611C157.353 12.9048 157.854 12.64 158.738 12.64V6.64ZM152.482 9.35416C150.799 11.2128 150.17 13.643 150.17 16.2H156.17C156.17 14.5757 156.564 13.7846 156.929 13.3818L152.482 9.35416ZM150.17 16.2C150.17 18.7732 150.796 21.2131 152.463 23.0891L156.948 19.1029C156.567 18.6749 156.17 17.8508 156.17 16.2H150.17ZM152.463 23.0891C154.106 24.9368 156.293 25.824 158.738 25.824V19.824C157.854 19.824 157.353 19.5592 156.948 19.1029L152.463 23.0891ZM158.738 25.824C160.49 25.824 162.195 25.4098 163.658 24.3857L160.217 19.4703C159.973 19.6409 159.545 19.824 158.738 19.824V25.824ZM163.658 24.3857C165.135 23.352 166.092 21.8918 166.58 20.1995L160.815 18.5365C160.663 19.0628 160.447 19.3093 160.217 19.4703L163.658 24.3857ZM163.698 22.368H166.834V16.368H163.698V22.368ZM163.931 18.6079C163.623 19.7871 163.044 20.6489 162.183 21.3141L165.852 26.0619C167.807 24.5511 169.106 22.5329 169.736 20.1281L163.931 18.6079ZM162.206 21.2967C161.415 21.8956 160.327 22.288 158.738 22.288V28.288C161.372 28.288 163.804 27.6138 165.829 26.0793L162.206 21.2967ZM158.738 22.288C157.539 22.288 156.581 22.0242 155.783 21.5659L152.796 26.7701C154.6 27.8051 156.608 28.288 158.738 28.288V22.288ZM155.801 21.5767C155.025 21.1236 154.406 20.4875 153.931 19.5925L148.632 22.4075C149.607 24.2432 150.995 25.719 152.778 26.7593L155.801 21.5767ZM153.931 19.5925C153.475 18.7347 153.194 17.6353 153.194 16.2H147.194C147.194 18.434 147.637 20.5346 148.632 22.4075L153.931 19.5925ZM174.591 9.864V6.864H171.591V9.864H174.591ZM175.135 22.024L173.014 24.1453L173.046 24.1775L173.079 24.2086L175.135 22.024ZM179.167 22.536H182.167V19.536H179.167V22.536ZM179.167 25V28H182.167V25H179.167ZM172.895 23.88L170.863 26.0866L172.895 23.88ZM171.679 9.864H174.679V6.864H171.679V9.864ZM169.407 9.864H166.407V12.864H169.407V9.864ZM169.407 7.464V4.464H166.407V7.464H169.407ZM171.679 7.464V10.464H174.679V7.464H171.679ZM171.679 3.048V0.0479984H168.679V3.048H171.679ZM174.591 3.048H177.591V0.0479984H174.591V3.048ZM174.591 7.464H171.591V10.464H174.591V7.464ZM179.167 7.464H182.167V4.464H179.167V7.464ZM179.167 9.864V12.864H182.167V9.864H179.167ZM171.591 9.864V20.2H177.591V9.864H171.591ZM171.591 20.2C171.591 21.3492 171.813 22.9448 173.014 24.1453L177.256 19.9027C177.501 20.1476 177.583 20.3768 177.602 20.4386C177.617 20.4899 177.591 20.4295 177.591 20.2H171.591ZM173.079 24.2086C174.3 25.3583 175.916 25.536 177.023 25.536V19.536C176.893 19.536 176.798 19.5297 176.735 19.5226C176.671 19.5154 176.65 19.5088 176.664 19.5126C176.683 19.5177 176.92 19.584 177.191 19.8394L173.079 24.2086ZM177.023 25.536H179.167V19.536H177.023V25.536ZM176.167 22.536V25H182.167V22.536H176.167ZM179.167 22H176.543V28H179.167V22ZM176.543 22C175.326 22 174.972 21.7145 174.927 21.6734L170.863 26.0866C172.439 27.5388 174.518 28 176.543 28V22ZM174.927 21.6734C175.003 21.7429 174.679 21.5227 174.679 20.2H168.679C168.679 22.2907 169.166 24.5238 170.863 26.0866L174.927 21.6734ZM174.679 20.2V9.864H168.679V20.2H174.679ZM171.679 6.864H169.407V12.864H171.679V6.864ZM172.407 9.864V7.464H166.407V9.864H172.407ZM169.407 10.464H171.679V4.464H169.407V10.464ZM174.679 7.464V3.048H168.679V7.464H174.679ZM171.679 6.048H174.591V0.0479984H171.679V6.048ZM171.591 3.048V7.464H177.591V3.048H171.591ZM174.591 10.464H179.167V4.464H174.591V10.464ZM176.167 7.464V9.864H182.167V7.464H176.167ZM179.167 6.864H174.591V12.864H179.167V6.864ZM183.111 4.04L185.233 1.91868L183.111 4.04ZM183.111 1.224L185.233 3.34532L183.111 1.224ZM185.863 1.224L183.682 3.28387L183.712 3.31502L183.742 3.34532L185.863 1.224ZM185.863 4.04L183.742 1.91868L183.712 1.94898L183.682 1.98013L185.863 4.04ZM185.927 7.464H188.927V4.464H185.927V7.464ZM185.927 25V28H188.927V25H185.927ZM183.015 25H180.015V28H183.015V25ZM183.015 7.464V4.464H180.015V7.464H183.015ZM184.519 1.616C184.595 1.616 184.729 1.63057 184.887 1.69536C185.047 1.76067 185.163 1.8492 185.233 1.91868L180.99 6.16132C181.95 7.12127 183.188 7.616 184.519 7.616V1.616ZM185.233 1.91868C185.302 1.98816 185.391 2.10446 185.456 2.2641C185.521 2.42248 185.535 2.55651 185.535 2.632H179.535C179.535 3.96325 180.03 5.20137 180.99 6.16132L185.233 1.91868ZM185.535 2.632C185.535 2.70748 185.521 2.84152 185.456 2.9999C185.391 3.15954 185.302 3.27584 185.233 3.34532L180.99 -0.897322C180.03 0.0626259 179.535 1.30075 179.535 2.632H185.535ZM185.233 3.34532C185.163 3.4148 185.047 3.50333 184.887 3.56864C184.729 3.63343 184.595 3.648 184.519 3.648V-2.352C183.188 -2.352 181.95 -1.85727 180.99 -0.897322L185.233 3.34532ZM184.519 3.648C184.418 3.648 184.257 3.62799 184.074 3.54943C183.89 3.47059 183.759 3.36508 183.682 3.28387L188.044 -0.835871C187.109 -1.82654 185.869 -2.352 184.519 -2.352V3.648ZM183.742 3.34532C183.672 3.27584 183.584 3.15954 183.519 2.9999C183.454 2.84152 183.439 2.70748 183.439 2.632H189.439C189.439 1.30075 188.945 0.0626259 187.985 -0.897322L183.742 3.34532ZM183.439 2.632C183.439 2.55651 183.454 2.42248 183.519 2.2641C183.584 2.10446 183.672 1.98816 183.742 1.91868L187.985 6.16132C188.945 5.20137 189.439 3.96325 189.439 2.632H183.439ZM183.682 1.98013C183.759 1.89892 183.89 1.7934 184.074 1.71456C184.257 1.636 184.418 1.616 184.519 1.616V7.616C185.869 7.616 187.109 7.09054 188.044 6.09987L183.682 1.98013ZM182.927 7.464V25H188.927V7.464H182.927ZM185.927 22H183.015V28H185.927V22ZM186.015 25V7.464H180.015V25H186.015ZM183.015 10.464H185.927V4.464H183.015V10.464ZM197.738 22.312L194.923 23.3494L197.747 31.01L200.555 23.3441L197.738 22.312ZM203.178 7.464V4.464H201.082L200.361 6.43195L203.178 7.464ZM206.282 7.464L209.075 8.55969L210.682 4.464H206.282V7.464ZM199.402 25V28H201.448L202.195 26.0957L199.402 25ZM196.01 25L193.217 26.0957L193.965 28H196.01V25ZM189.13 7.464V4.464H184.731L186.337 8.55969L189.13 7.464ZM192.266 7.464L195.081 6.4266L194.358 4.464H192.266V7.464ZM200.555 23.3441L205.995 8.49605L200.361 6.43195L194.921 21.2799L200.555 23.3441ZM203.178 10.464H206.282V4.464H203.178V10.464ZM203.49 6.3683L196.609 23.9043L202.195 26.0957L209.075 8.55969L203.49 6.3683ZM199.402 22H196.01V28H199.402V22ZM198.803 23.9043L191.923 6.3683L186.337 8.55969L193.217 26.0957L198.803 23.9043ZM189.13 10.464L192.266 10.464V4.464L189.13 4.464V10.464ZM189.451 8.5014L194.923 23.3494L200.553 21.2746L195.081 6.4266L189.451 8.5014ZM225.372 17.32V20.32H228.077L228.356 17.6287L225.372 17.32ZM211.356 17.32V14.32H208.165L208.361 17.5048L211.356 17.32ZM213.116 21.384L211.085 23.5918L211.108 23.6129L211.131 23.6335L213.116 21.384ZM220.188 21.96L221.895 24.4266L221.902 24.4222L221.908 24.4177L220.188 21.96ZM221.98 19.592V16.592H219.847L219.146 18.6064L221.98 19.592ZM225.116 19.592L228.006 20.3968L229.065 16.592H225.116V19.592ZM222.3 23.72L224.088 26.1287L224.1 26.1201L224.111 26.1113L222.3 23.72ZM212.572 24.168L211.079 26.7701L211.088 26.7753L211.097 26.7805L212.572 24.168ZM209.5 21L206.858 22.4223L206.863 22.4309L206.868 22.4394L209.5 21ZM209.468 11.432L212.117 12.8395L209.468 11.432ZM212.508 8.296L213.968 10.9164L213.975 10.9125L213.983 10.9085L212.508 8.296ZM221.468 8.264L219.989 10.8741L219.989 10.8741L221.468 8.264ZM224.412 11.272L221.765 12.6838L221.779 12.7103L221.793 12.7365L224.412 11.272ZM222.46 14.952V17.952H225.46V14.952H222.46ZM221.724 12.104L219.157 13.6574L219.166 13.6727L219.176 13.6878L221.724 12.104ZM219.708 10.28L218.339 12.9495L218.379 12.9703L218.421 12.9898L219.708 10.28ZM213.148 11.048L211.143 8.81585L211.132 8.82614L211.121 8.83654L213.148 11.048ZM211.388 14.952L208.4 14.6838L208.106 17.952H211.388V14.952ZM222.468 15.56C222.468 16.0001 222.442 16.4831 222.388 17.0113L228.356 17.6287C228.429 16.9196 228.468 16.2293 228.468 15.56H222.468ZM225.372 14.32H211.356V20.32H225.372V14.32ZM208.361 17.5048C208.506 19.846 209.34 21.9864 211.085 23.5918L215.147 19.1762C214.759 18.819 214.419 18.25 214.35 17.1352L208.361 17.5048ZM211.131 23.6335C212.801 25.1071 214.831 25.824 217.052 25.824V19.824C216.2 19.824 215.607 19.5809 215.101 19.1345L211.131 23.6335ZM217.052 25.824C218.771 25.824 220.451 25.4264 221.895 24.4266L218.48 19.4934C218.26 19.6456 217.85 19.824 217.052 19.824V25.824ZM221.908 24.4177C223.277 23.4598 224.264 22.156 224.813 20.5776L219.146 18.6064C219.013 18.9907 218.806 19.2655 218.467 19.5023L221.908 24.4177ZM221.98 22.592H225.116V16.592H221.98V22.592ZM222.226 18.7872C221.934 19.8333 221.378 20.6544 220.488 21.3287L224.111 26.1113C226.037 24.6522 227.358 22.7214 228.006 20.3968L222.226 18.7872ZM220.511 21.3113C219.714 21.9031 218.626 22.288 217.052 22.288V28.288C219.659 28.288 222.069 27.6276 224.088 26.1287L220.511 21.3113ZM217.052 22.288C215.854 22.288 214.877 22.0243 214.047 21.5555L211.097 26.7805C212.912 27.805 214.922 28.288 217.052 28.288V22.288ZM214.065 21.5659C213.261 21.105 212.624 20.4597 212.132 19.5606L206.868 22.4394C207.869 24.2709 209.279 25.7377 211.079 26.7701L214.065 21.5659ZM212.141 19.5777C211.663 18.6903 211.38 17.5926 211.38 16.2H205.38C205.38 18.4341 205.843 20.5364 206.858 22.4223L212.141 19.5777ZM211.38 16.2C211.38 14.7925 211.659 13.7021 212.117 12.8395L206.818 10.0245C205.826 11.8926 205.38 13.9808 205.38 16.2H211.38ZM212.117 12.8395C212.582 11.9642 213.192 11.3494 213.968 10.9164L211.047 5.67556C209.221 6.69326 207.804 8.16912 206.818 10.0245L212.117 12.8395ZM213.983 10.9085C214.802 10.446 215.797 10.176 217.052 10.176V4.176C214.893 4.176 212.859 4.65262 211.033 5.68353L213.983 10.9085ZM217.052 10.176C218.266 10.176 219.216 10.4364 219.989 10.8741L222.947 5.65393C221.159 4.64097 219.165 4.176 217.052 4.176V10.176ZM219.989 10.8741C220.781 11.323 221.354 11.9134 221.765 12.6838L227.059 9.86024C226.104 8.07062 224.714 6.65562 222.947 5.65393L219.989 10.8741ZM221.793 12.7365C222.221 13.5001 222.468 14.4154 222.468 15.56H228.468C228.468 13.5046 228.011 11.5612 227.03 9.80754L221.793 12.7365ZM225.46 14.952C225.46 13.3923 225.111 11.87 224.272 10.5202L219.176 13.6878C219.318 13.9167 219.46 14.2931 219.46 14.952H225.46ZM224.29 10.5506C223.497 9.23918 222.38 8.22828 220.995 7.57017L218.421 12.9898C218.742 13.1424 218.97 13.3475 219.157 13.6574L224.29 10.5506ZM221.077 7.61055C219.782 6.94651 218.378 6.64 216.924 6.64V12.64C217.518 12.64 217.97 12.7602 218.339 12.9495L221.077 7.61055ZM216.924 6.64C214.751 6.64 212.767 7.35754 211.143 8.81585L215.152 13.2801C215.619 12.8611 216.153 12.64 216.924 12.64V6.64ZM211.121 8.83654C209.438 10.3791 208.602 12.4342 208.4 14.6838L214.376 15.2202C214.473 14.1418 214.81 13.5942 215.175 13.2595L211.121 8.83654ZM211.388 17.952H222.46V11.952H211.388V17.952Z" fill="white" fill-opacity="0.2"/>
</svg>
