<svg width="82" height="82" viewBox="0 0 82 82" fill="none" xmlns="http://www.w3.org/2000/svg">
<circle cx="41" cy="41" r="41" fill="#C71212" fill-opacity="0.3"/>
<path d="M41.0244 35.0723C39.5645 35.0723 38.1973 35.6387 37.1621 36.6738C36.1318 37.709 35.5605 39.0762 35.5605 40.5361C35.5605 41.9961 36.1318 43.3633 37.1621 44.3984C38.1973 45.4287 39.5645 46 41.0244 46C42.4844 46 43.8516 45.4287 44.8867 44.3984C45.917 43.3633 46.4883 41.9961 46.4883 40.5361C46.4883 39.0762 45.917 37.709 44.8867 36.6738C44.3811 36.1643 43.7793 35.7604 43.1163 35.4855C42.4532 35.2105 41.7422 35.0701 41.0244 35.0723ZM61.1562 46.5713L57.9629 43.8418C58.1143 42.9141 58.1924 41.9668 58.1924 41.0244C58.1924 40.082 58.1143 39.1299 57.9629 38.207L61.1562 35.4775C61.3975 35.271 61.5701 34.996 61.6512 34.689C61.7324 34.3819 61.7181 34.0575 61.6103 33.7588L61.5664 33.6318C60.6876 31.1743 59.3707 28.8963 57.6797 26.9082L57.5918 26.8057C57.3865 26.5642 57.1128 26.3907 56.8068 26.3078C56.5009 26.225 56.177 26.2369 55.8779 26.3418L51.9131 27.7529C50.4482 26.5518 48.8174 25.6045 47.0498 24.9453L46.2832 20.7998C46.2254 20.4875 46.0739 20.2002 45.8489 19.9761C45.6238 19.7519 45.336 19.6015 45.0234 19.5449L44.8916 19.5205C42.3525 19.0615 39.6768 19.0615 37.1377 19.5205L37.0059 19.5449C36.6933 19.6015 36.4055 19.7519 36.1804 19.9761C35.9554 20.2002 35.8039 20.4875 35.7461 20.7998L34.9746 24.9648C33.2238 25.6293 31.5927 26.5742 30.1455 27.7627L26.1514 26.3418C25.8524 26.236 25.5283 26.2238 25.2221 26.3066C24.916 26.3895 24.6423 26.5635 24.4375 26.8057L24.3496 26.9082C22.6616 28.8984 21.3451 31.1758 20.4629 33.6318L20.4189 33.7588C20.1992 34.3691 20.3799 35.0527 20.873 35.4775L24.1055 38.2363C23.9541 39.1543 23.8809 40.0918 23.8809 41.0195C23.8809 41.957 23.9541 42.8945 24.1055 43.8027L20.8828 46.5615C20.6416 46.768 20.4689 47.0431 20.3878 47.3501C20.3067 47.6571 20.321 47.9816 20.4287 48.2803L20.4727 48.4072C21.3564 50.8633 22.6602 53.1338 24.3594 55.1309L24.4473 55.2334C24.6526 55.4748 24.9263 55.6484 25.2322 55.7312C25.5382 55.814 25.862 55.8022 26.1611 55.6973L30.1553 54.2764C31.6104 55.4727 33.2314 56.4199 34.9844 57.0742L35.7559 61.2393C35.8137 61.5516 35.9652 61.8389 36.1902 62.063C36.4152 62.2871 36.7031 62.4375 37.0156 62.4941L37.1475 62.5186C39.7115 62.98 42.3373 62.98 44.9014 62.5186L45.0332 62.4941C45.3457 62.4375 45.6336 62.2871 45.8586 62.063C46.0836 61.8389 46.2351 61.5516 46.293 61.2393L47.0596 57.0938C48.8271 56.4297 50.458 55.4873 51.9229 54.2861L55.8877 55.6973C56.1867 55.803 56.5108 55.8153 56.8169 55.7324C57.123 55.6496 57.3967 55.4755 57.6016 55.2334L57.6894 55.1309C59.3887 53.124 60.6924 50.8633 61.5762 48.4072L61.6201 48.2803C61.8301 47.6748 61.6494 46.9961 61.1562 46.5713ZM41.0244 49.1201C36.2832 49.1201 32.4404 45.2773 32.4404 40.5361C32.4404 35.7949 36.2832 31.9521 41.0244 31.9521C45.7656 31.9521 49.6084 35.7949 49.6084 40.5361C49.6084 45.2773 45.7656 49.1201 41.0244 49.1201Z" fill="#C71212"/>
</svg>
