<svg width="431" height="976" viewBox="0 0 431 976" fill="none" xmlns="http://www.w3.org/2000/svg">
<g filter="url(#filter0_d_4_162)">
<path d="M-16.5291 280.548L-16.527 280.544C-12.9877 273.917 -10.632 266.542 -13.6121 258.59C-16.6122 250.227 -24.6018 243.724 -33.506 238.391C-39.4283 234.844 -45.91 231.732 -51.7652 228.92C-54.7112 227.506 -57.4987 226.167 -59.9765 224.888C-61.2132 224.238 -62.4675 223.585 -63.7326 222.926C-75.5876 216.754 -88.3839 210.091 -96.4026 200.54L-96.4076 200.534C-98.0746 198.579 -99.485 196.283 -100.581 194.232C-102.3 190.814 -103.231 187.305 -104.185 183.709C-104.449 182.712 -104.716 181.708 -105.001 180.697C-106.303 176.087 -107.983 171.455 -111.753 167.232C-115.781 162.488 -123.76 158.646 -132.704 156.815C-141.636 154.987 -151.751 155.118 -160.241 158.521C-160.393 158.537 -160.619 158.573 -160.823 158.661C-160.996 158.736 -161.223 158.875 -161.392 159.13C-167.342 161.879 -171.119 165.359 -174.236 169.062L-174.245 169.073C-184.539 181.652 -189.633 197.398 -183.825 212.927C-183.469 214.183 -183.6 215.534 -184.051 217.019L-184.054 217.028L-184.056 217.037C-184.672 219.204 -185.953 221.537 -187.575 224.003C-188.7 225.713 -189.955 227.439 -191.229 229.192C-191.794 229.968 -192.362 230.749 -192.924 231.537C-194.737 234.076 -196.474 236.659 -197.687 239.193C-198.897 241.72 -199.636 244.297 -199.334 246.804C-198.133 257.212 -193.272 266.914 -188.499 276.443C-188.29 276.859 -188.082 277.275 -187.874 277.691C-182.871 287.693 -178.135 297.545 -177.525 308.169L-177.525 308.175C-177.088 315.085 -175.712 321.894 -174.061 328.824C-173.482 331.253 -172.871 333.689 -172.254 336.151C-171.104 340.741 -169.931 345.419 -168.904 350.294C-168.55 352.08 -169.007 354.4 -169.989 357.136C-170.86 359.565 -172.089 362.178 -173.348 364.855C-173.497 365.171 -173.646 365.487 -173.794 365.805C-175.19 368.782 -176.575 371.819 -177.404 374.617C-178.225 377.39 -178.564 380.125 -177.64 382.408L-177.637 382.417L-177.633 382.425C-173.55 392.01 -163.657 397.862 -152.35 401.483C-141.01 405.115 -128.004 406.582 -117.319 407.226C-109.352 407.806 -100.926 406.76 -92.6133 405.421L-92.5987 405.418L-92.5842 405.415C-68.6842 400.834 -50.4285 384.984 -51.8216 361.333L-51.8219 361.329C-52.0282 358.038 -52.3775 354.837 -52.7165 351.731L-52.738 351.534C-53.0845 348.358 -53.4163 345.286 -53.5793 342.272C-53.9047 336.255 -53.5513 330.545 -51.3247 324.927C-49.2896 320.172 -46.3442 315.334 -42.1544 310.69L-42.1482 310.683L-42.1421 310.676C-39.258 307.357 -36.2243 304.204 -33.2192 301.08C-31.5037 299.297 -29.7976 297.523 -28.1338 295.734C-23.5906 290.848 -19.416 285.897 -16.5291 280.548Z" stroke="#0C6CA2" stroke-opacity="0.1" stroke-width="2" stroke-miterlimit="10"/>
<path d="M8.11339 284.72L8.11027 284.725C3.92607 291.255 -1.6305 297.248 -7.44517 303.133C-8.87038 304.576 -10.31 306.011 -11.7499 307.446C-16.2086 311.891 -20.6709 316.339 -24.722 321.025L-24.7349 321.039L-24.7483 321.054C-30.3878 327.082 -34.1724 332.928 -36.7105 338.953C-41.7719 351.066 -40.3494 363.522 -38.7154 377.831C-38.4696 379.983 -38.219 382.177 -37.985 384.418M8.11339 284.72L-38.9795 384.523M8.11339 284.72C13.3718 276.407 17.4169 266.392 14.263 256.24L14.2611 256.234C10.719 245.08 0.184277 236.444 -11.6339 229.413C-19.4221 224.779 -27.9387 220.752 -35.563 217.147C-39.5033 215.284 -43.2052 213.534 -46.4451 211.871C-49.1351 210.489 -51.9089 209.114 -54.7224 207.719C-60.6665 204.773 -66.788 201.739 -72.6715 198.367C-81.3231 193.408 -89.339 187.783 -95.2999 180.793L-95.3132 180.777L-95.327 180.762C-97.6494 178.254 -99.4114 175.386 -101.229 172.419C-103.691 167.869 -104.944 163.141 -106.225 158.301C-106.542 157.105 -106.861 155.902 -107.2 154.694C-108.9 148.633 -111.097 142.551 -116.241 137.035C-121.612 131.174 -132.083 126.382 -143.872 124.057C-155.662 121.733 -168.982 121.832 -180.213 125.947C-180.378 125.98 -180.516 126.036 -180.618 126.085C-180.741 126.144 -180.855 126.213 -180.922 126.254L-180.933 126.261C-180.955 126.275 -180.973 126.286 -180.988 126.295C-181.006 126.305 -181.019 126.313 -181.03 126.319L-181.092 126.325L-181.227 126.378C-189.573 129.652 -194.9 134.591 -198.931 139.38C-212.364 155.344 -219.329 175.011 -211.88 194.8L-211.872 194.822L-211.862 194.844C-211.58 195.497 -211.547 196.29 -211.712 197.263C-211.876 198.23 -212.213 199.264 -212.584 200.387C-213.763 203.067 -215.891 205.938 -218.473 208.948C-220.129 210.879 -221.93 212.82 -223.749 214.782C-224.786 215.9 -225.829 217.025 -226.855 218.158C-229.654 221.249 -232.302 224.378 -234.151 227.437C-235.992 230.483 -237.129 233.602 -236.693 236.636L-236.691 236.648C-234.719 249.292 -227.631 261.06 -220.649 272.65C-220.11 273.546 -219.57 274.442 -219.034 275.336C-211.508 287.891 -204.566 300.321 -204.163 313.865L-204.163 313.871C-203.811 323.457 -201.915 332.653 -199.592 341.946C-198.825 345.011 -198.015 348.08 -197.197 351.176C-195.525 357.502 -193.823 363.945 -192.405 370.716M8.11339 284.72L-203.164 313.835C-202.701 326.422 -199.546 338.366 -196.238 350.887C-194.563 357.228 -192.849 363.718 -191.425 370.514M-37.985 384.418C-37.9849 384.419 -37.9849 384.419 -37.9849 384.419L-38.9795 384.523M-37.985 384.418C-37.985 384.418 -37.985 384.418 -37.985 384.418L-38.9795 384.523M-37.985 384.418C-36.2954 400.352 -41.957 413.364 -51.9405 423.095C-61.8977 432.8 -76.1254 439.221 -91.6059 442.127M-38.9795 384.523C-35.6696 415.734 -61.1079 435.386 -91.7958 441.146M-91.6059 442.127C-91.6041 442.127 -91.6023 442.127 -91.6005 442.126L-91.7958 441.146M-91.6059 442.127C-102.711 444.338 -113.939 445.306 -124.694 444.658L-124.695 444.658C-138.493 443.818 -156.334 442.301 -172.021 437.92C-187.652 433.554 -201.465 426.256 -206.757 413.616M-91.6059 442.127C-91.6077 442.128 -91.6095 442.128 -91.6113 442.128L-91.7958 441.146M-91.7958 441.146L-206.757 413.616M-206.757 413.616C-206.757 413.616 -206.757 413.616 -206.757 413.617L-205.835 413.228M-206.757 413.616L-124.634 443.66C-152.22 441.98 -195.629 437.609 -205.835 413.228M-206.757 413.616C-206.758 413.615 -206.758 413.615 -206.758 413.615L-205.835 413.228M-206.757 413.616C-207.989 410.69 -207.373 407.098 -206.038 403.406C-204.689 399.677 -202.511 395.597 -200.31 391.577C-200.08 391.157 -199.85 390.738 -199.621 390.32C-197.634 386.702 -195.687 383.155 -194.287 379.882C-192.71 376.195 -191.929 373.074 -192.405 370.716M-205.835 413.228C-208.103 407.846 -203.397 399.276 -198.743 390.799C-194.549 383.161 -190.397 375.599 -191.425 370.514M-191.425 370.514L-192.404 370.719C-192.404 370.718 -192.405 370.717 -192.405 370.716M-191.425 370.514L-192.406 370.712C-192.405 370.713 -192.405 370.714 -192.405 370.716" stroke="#0C6CA2" stroke-opacity="0.1" stroke-width="2" stroke-miterlimit="10"/>
<path d="M32.7655 288.871L32.7606 288.878C27.2793 296.598 20.3373 303.639 13.1393 310.614C11.8423 311.871 10.5374 313.125 9.23069 314.381C3.26497 320.116 -2.73743 325.886 -8.18477 332.081L-8.19194 332.089L-8.19929 332.097C-14.9851 339.484 -19.6136 346.341 -22.6596 353.645C-29.0391 369.031 -27.1422 385.035 -24.9006 403.947C-24.735 405.344 -24.5676 406.756 -24.4015 408.186M32.7655 288.871L-25.3948 408.301M32.7655 288.871C39.7459 278.86 45.4894 266.515 41.7933 253.585C37.8621 239.63 24.7037 228.87 9.86255 220.191C-0.0190362 214.413 -10.8326 209.461 -20.3839 205.087C-25.1795 202.891 -29.6568 200.84 -33.5384 198.904L-33.5436 198.901C-36.5261 197.435 -39.6056 195.963 -42.7394 194.464C-50.4282 190.788 -58.4443 186.954 -66.1598 182.674C-77.0095 176.656 -87.1622 169.806 -94.8057 161.391L-94.8172 161.379L-94.8291 161.367C-97.8353 158.276 -100.273 154.821 -102.446 151.011L-102.45 151.005L-102.453 150.998C-105.897 145.158 -107.543 139.018 -109.224 132.749C-109.551 131.528 -109.88 130.302 -110.223 129.073C-112.319 121.573 -114.951 114.042 -121.302 107.222C-127.879 100.058 -140.783 94.2291 -155.417 91.4487C-170.054 88.6676 -186.634 88.8944 -200.733 94.0349C-200.898 94.0679 -201.032 94.1225 -201.126 94.165C-201.173 94.1865 -201.231 94.215 -201.283 94.2415C-201.343 94.2721 -201.396 94.3002 -201.42 94.3121C-201.555 94.3798 -201.649 94.416 -201.778 94.427L-201.921 94.4394L-202.056 94.4917C-212.507 98.5685 -218.993 104.536 -223.876 110.337C-240.475 129.378 -249.264 153.251 -240.185 177.575C-239.501 179.582 -240.063 181.489 -241.362 184.391C-243.029 187.587 -245.997 191.027 -249.564 194.629C-251.779 196.866 -254.174 199.117 -256.591 201.39C-258.083 202.792 -259.583 204.202 -261.054 205.621C-264.874 209.306 -268.462 213.021 -270.949 216.632C-273.42 220.22 -274.933 223.891 -274.278 227.436C-271.532 242.529 -262.159 256.431 -252.929 270.122C-252.052 271.422 -251.176 272.721 -250.308 274.018C-240.223 289.086 -231.075 304.025 -231.031 320.516L-231.031 320.523C-230.906 332.951 -228.483 344.609 -225.491 356.227C-224.572 359.797 -223.601 363.355 -222.625 366.931C-220.416 375.029 -218.183 383.213 -216.473 391.803L-216.472 391.808C-215.87 394.754 -216.985 398.688 -219.162 403.324C-221.122 407.494 -223.841 412.036 -226.606 416.655C-226.884 417.118 -227.162 417.583 -227.44 418.048C-230.466 423.113 -233.462 428.235 -235.371 432.896C-237.261 437.511 -238.204 441.944 -236.76 445.499L-236.757 445.505C-230.261 461.189 -212.552 469.859 -192.551 474.933C-172.53 480.011 -149.832 481.577 -132.765 482.754L-132.656 482.761M32.7655 288.871L-132.656 482.761M-24.4015 408.186L-25.3948 408.301M-24.4015 408.186C-24.4015 408.185 -24.4016 408.185 -24.4017 408.184L-25.3948 408.301M-24.4015 408.186C-22.0384 428.278 -29.1459 444.461 -41.6669 456.478C-54.1595 468.468 -72.0111 476.29 -91.1764 479.824L-91.1841 479.825C-105.042 482.268 -119.037 483.791 -132.652 482.762L-132.649 482.762L-132.58 481.764M-25.3948 408.301C-20.7466 447.816 -53.2941 471.822 -91.3577 478.84C-105.181 481.277 -119.084 482.785 -132.58 481.764M-132.58 481.764L-132.656 482.761M-132.58 481.764L-132.659 481.759C-166.859 479.4 -223.247 475.511 -235.833 445.123L-132.656 482.761" stroke="#0C6CA2" stroke-opacity="0.1" stroke-width="2" stroke-miterlimit="10"/>
<path d="M57.4242 293.009L57.4186 293.017C50.6408 301.931 42.3912 310.013 33.8756 318C32.2681 319.507 30.6517 321.011 29.0334 322.516C22.0606 329.002 15.0551 335.519 8.59755 342.503L8.59085 342.51C0.657959 350.922 -4.79565 359.096 -8.38324 367.392C-16.4415 386.601 -13.9742 406.417 -10.981 430.457L-10.8716 431.335L-10.8715 431.336M57.4242 293.009L-90.6905 515.579C-45.5607 507.329 -5.87721 479.279 -11.8638 431.46L-10.8715 431.336M57.4242 293.009C66.4151 280.953 73.531 266.313 69.6584 251.21L69.656 251.201C65.1657 234.321 49.4785 221.436 31.6878 211.138C19.5547 204.115 6.25616 198.198 -5.3777 193.022C-10.8098 190.606 -15.8789 188.35 -20.2971 186.219C-24.6011 184.116 -29.0887 182.02 -33.6687 179.88C-42.1455 175.92 -50.9387 171.813 -59.4704 167.239C-72.5897 160.207 -84.9468 152.144 -94.2939 142.009C-97.6978 138.293 -100.809 134.258 -103.331 129.878L-103.336 129.87L-103.341 129.861C-107.543 122.89 -109.506 115.526 -111.514 107.996C-111.896 106.561 -112.28 105.121 -112.681 103.676C-115.178 94.6874 -118.331 85.641 -126.056 77.3793C-133.824 69.0719 -149.234 62.2122 -166.754 58.9403C-184.276 55.6681 -204.125 55.942 -220.944 62.0957C-221.093 62.1245 -221.224 62.1694 -221.313 62.2024C-221.444 62.2504 -221.579 62.3088 -221.685 62.3543L-221.694 62.3585C-221.813 62.4098 -221.899 62.4466 -221.972 62.4734C-221.997 62.4826 -222.014 62.4882 -222.024 62.4913L-222.132 62.5005L-222.266 62.5524C-234.834 67.4355 -242.474 74.4381 -248.508 81.2629L-248.509 81.2643C-267.959 103.347 -278.866 131.767 -268.179 160.326C-267.457 162.653 -267.993 165.193 -270.104 168.353L-270.115 168.368L-270.125 168.385C-272.369 172.04 -276.234 176.003 -280.811 180.158C-283.444 182.549 -286.254 184.953 -289.092 187.381C-291.203 189.188 -293.329 191.007 -295.408 192.842C-300.231 197.1 -304.729 201.389 -307.827 205.545C-310.902 209.669 -312.761 213.879 -311.891 217.915C-308.221 235.533 -296.547 251.654 -285.061 267.516C-283.896 269.124 -282.733 270.73 -281.581 272.334C-268.98 289.878 -257.619 307.263 -257.641 326.541M57.4242 293.009L-256.641 326.545M-10.8715 431.336C-7.83578 455.586 -16.3952 474.862 -31.4211 489.084C-46.4154 503.276 -67.8174 512.414 -90.5107 516.563L-90.5133 516.563C-107.138 519.557 -123.913 521.319 -140.334 520.221M-10.8715 431.336L-140.334 520.221M-140.334 520.221C-140.333 520.221 -140.332 520.221 -140.331 520.221L-140.271 519.223L-140.337 520.221C-140.336 520.221 -140.335 520.221 -140.334 520.221ZM-140.334 520.221C-140.867 520.189 -141.405 520.156 -141.948 520.123C-161.982 518.915 -188.683 517.305 -212.414 511.65C-236.717 505.859 -258.308 495.735 -266.16 477.042L-266.164 477.032L-266.168 477.023C-267.823 472.846 -266.562 467.578 -264.117 462.038C-261.648 456.444 -257.835 450.279 -253.983 444.169C-253.658 443.653 -253.333 443.138 -253.008 442.624C-249.464 437.01 -245.97 431.478 -243.45 426.414C-240.674 420.836 -239.218 416.084 -239.945 412.542M-140.334 520.221L-238.966 412.338M-239.945 412.542C-239.945 412.543 -239.945 412.544 -239.945 412.544L-238.966 412.338M-239.945 412.542C-239.945 412.541 -239.946 412.54 -239.946 412.54L-238.966 412.338M-239.945 412.542C-242.036 402.622 -244.694 393.19 -247.319 383.878C-248.657 379.128 -249.987 374.41 -251.229 369.673C-254.893 355.691 -257.756 341.648 -257.641 326.541M-238.966 412.338C-241.064 402.386 -243.738 392.895 -246.369 383.561C-251.671 364.745 -256.794 346.569 -256.641 326.545M-257.641 326.541C-257.641 326.542 -257.641 326.543 -257.641 326.544L-256.641 326.545M-257.641 326.541C-257.641 326.54 -257.641 326.539 -257.641 326.538L-256.641 326.545" stroke="#0C6CA2" stroke-opacity="0.1" stroke-width="2" stroke-miterlimit="10"/>
<path d="M82.0862 297.142L82.0883 297.139C92.7922 283.392 101.915 266.392 97.4924 248.511L97.4922 248.51C92.6115 228.844 74.3916 213.832 53.6532 201.879C39.3765 193.65 23.7124 186.771 10.1214 180.802C3.95846 178.095 -1.77822 175.576 -6.76603 173.202L-6.77027 173.2C-10.9391 171.241 -15.2516 169.272 -19.6475 167.266C-30.3768 162.368 -41.6031 157.244 -52.4497 151.471C-67.7285 143.338 -82.1515 133.969 -93.1956 122.259L-93.1987 122.255C-97.2679 117.979 -101.076 113.072 -103.96 108.101L-103.964 108.093L-103.969 108.086C-108.947 99.847 -111.289 91.1799 -113.663 82.3933C-114.107 80.7478 -114.553 79.0981 -115.018 77.4462C-117.95 67.0164 -121.61 56.6088 -130.526 47.2018C-139.5 37.593 -157.418 29.7039 -177.821 25.9411C-198.224 22.1783 -221.332 22.499 -240.877 29.5039C-241.292 29.5614 -241.601 29.6997 -241.805 29.7874C-242.03 29.8845 -242.123 29.9191 -242.255 29.9305L-242.397 29.9427L-242.53 29.9943C-257.21 35.6821 -266.006 43.7179 -273.191 51.5683L-273.196 51.574L-273.201 51.5799C-295.791 77.0515 -308.556 109.385 -296.239 142.187L-296.236 142.196L-296.232 142.204C-295.234 144.722 -296.22 147.872 -298.68 151.47L-298.684 151.475C-301.505 155.656 -306.239 160.187 -311.791 164.919C-314.997 167.653 -318.421 170.409 -321.87 173.186C-324.406 175.227 -326.955 177.28 -329.443 179.343C-335.268 184.174 -340.693 189.016 -344.459 193.676C-348.193 198.296 -350.496 202.979 -349.591 207.431L-349.589 207.439L-349.587 207.448C-347.128 218.553 -341.736 229.104 -335.096 239.36C-329.783 247.569 -323.637 255.636 -317.523 263.662C-316.004 265.656 -314.487 267.648 -312.984 269.639C-297.821 289.734 -284.232 309.718 -284.614 331.966C-284.969 349.753 -281.582 366.253 -277.246 382.595C-275.843 387.883 -274.344 393.144 -272.84 398.426C-269.682 409.511 -266.498 420.688 -264.12 432.392L-264.12 432.396C-263.697 434.44 -263.923 436.861 -264.704 439.622C-265.484 442.377 -266.797 445.407 -268.478 448.637C-271.524 454.491 -275.716 460.891 -279.968 467.382C-280.414 468.063 -280.861 468.745 -281.307 469.427C-285.985 476.583 -290.597 483.792 -293.568 490.318C-296.511 496.784 -297.99 502.886 -295.955 507.672C-291.424 518.545 -282.755 526.867 -271.669 533.279C-260.587 539.689 -247.034 544.222 -232.629 547.5C-205.775 553.613 -175.772 555.404 -152.93 556.769C-151.273 556.868 -149.653 556.964 -148.075 557.06L-148.014 556.062L-148.075 557.06C-128.848 558.227 -108.981 556.201 -89.8846 552.995L-89.8846 552.995L-89.8715 552.993C-63.6486 548.229 -38.6964 537.774 -21.1627 521.377C-3.59541 504.948 6.49301 482.576 2.94242 454.158L2.9417 454.153C-0.728121 426.035 -3.59339 403.184 5.89432 381.136L5.89521 381.134C9.99587 371.544 16.2708 362.055 25.3561 352.612L25.3621 352.606C32.9087 344.623 41.1948 337.219 49.4638 329.829C51.1772 328.298 52.8898 326.768 54.595 325.233C64.5102 316.309 74.1602 307.248 82.0862 297.142Z" stroke="#0C6CA2" stroke-opacity="0.1" stroke-width="2" stroke-miterlimit="10"/>
<path d="M106.751 301.27L106.756 301.264C119.18 285.815 129.96 266.178 125.044 246.148C119.757 223.545 99.0135 206.487 75.2948 192.959C59.2346 183.799 41.6096 176.155 26.2368 169.488C18.8983 166.306 12.0731 163.346 6.17628 160.55L6.17353 160.549C1.05979 158.143 -4.2508 155.73 -9.67147 153.267C-21.5291 147.878 -33.9136 142.251 -45.9171 135.937C-63.3931 126.746 -79.9485 116.156 -92.6867 102.874L-92.6938 102.867C-97.4214 98.0379 -101.597 92.5375 -105.191 86.669C-110.922 77.3116 -113.581 67.4336 -116.276 57.424C-116.779 55.5547 -117.283 53.6808 -117.809 51.8049C-121.139 39.9271 -125.314 28.0803 -135.59 17.386C-145.771 6.47692 -166.195 -2.44151 -189.478 -6.65682C-212.804 -10.8795 -239.223 -10.4249 -261.509 -2.36845L-261.605 -2.33388L-261.691 -2.28078C-261.88 -2.16508 -262.082 -2.09226 -262.396 -1.98428L-262.423 -1.97488C-262.69 -1.88336 -263.045 -1.76167 -263.406 -1.55494C-279.879 4.60437 -290.1 14.0022 -298.119 22.8451L-298.124 22.8511C-323.564 51.3675 -338.464 87.9333 -324.517 125.272C-323.433 128.445 -324.444 131.933 -327.432 135.815L-327.447 135.834L-327.461 135.854C-330.773 140.621 -336.348 145.73 -342.878 151.034C-346.722 154.157 -350.841 157.304 -354.983 160.468C-357.887 162.686 -360.802 164.913 -363.643 167.148C-370.491 172.534 -376.856 177.923 -381.257 183.126C-385.621 188.285 -388.274 193.518 -387.152 198.522L-387.15 198.528C-384.253 211.081 -377.942 222.978 -370.181 234.531C-364.004 243.728 -356.873 252.755 -349.777 261.737C-347.965 264.031 -346.155 266.322 -344.364 268.612C-326.682 291.222 -310.864 313.734 -311.454 338.946C-312.048 359.41 -308.143 378.287 -303.097 396.986C-301.479 402.983 -299.747 408.952 -298.007 414.947C-294.309 427.691 -290.575 440.557 -287.824 454.078L-287.824 454.082C-287.337 456.427 -287.616 459.209 -288.544 462.379C-289.469 465.542 -291.019 469.023 -292.997 472.733C-296.647 479.577 -301.688 487.079 -306.78 494.656C-307.213 495.301 -307.646 495.946 -308.079 496.591C-313.582 504.791 -319.012 513.024 -322.545 520.423C-324.314 524.125 -325.628 527.662 -326.233 530.916C-326.837 534.169 -326.743 537.205 -325.616 539.851C-320.407 552.228 -310.432 561.647 -297.672 568.869C-284.916 576.089 -269.321 581.146 -252.762 584.785C-223.632 591.185 -191.344 593.227 -165.98 594.831C-162.517 595.05 -159.183 595.261 -156.003 595.473C-133.931 597.021 -111.273 594.754 -89.123 590.66C-59.369 585.281 -30.7966 573.423 -10.7309 554.743C9.36994 536.03 20.9034 510.49 16.5255 477.928C12.5365 446.097 9.43195 420.466 20.2507 395.81L20.2556 395.799C24.8656 384.926 31.9864 374.426 42.2135 363.629L42.2188 363.624C51.2175 353.976 61.1869 345.144 71.1276 336.337C72.4961 335.125 73.8641 333.913 75.229 332.699C86.4894 322.687 97.5277 312.574 106.751 301.27Z" stroke="#0C6CA2" stroke-opacity="0.1" stroke-width="2" stroke-miterlimit="10"/>
<path d="M152.568 243.475L152.569 243.479C157.717 266.288 145.586 288.216 131.113 305.415C120.746 317.907 108.474 329.061 95.934 340.081C94.1622 341.638 92.3852 343.192 90.6074 344.747C79.7853 354.213 68.931 363.707 59.0077 374.038L58.9987 374.048C47.3164 385.896 39.3734 397.711 34.2229 409.57C22.4004 437.126 25.4673 465.896 30.0572 501.089C34.9489 537.817 21.8874 566.451 -0.753411 587.37C-23.3581 608.256 -55.4802 621.431 -88.7646 627.426C-113.677 632.07 -139.119 634.576 -163.999 632.959L-164 632.959C-167.975 632.698 -172.171 632.441 -176.546 632.174C-204.92 630.44 -240.865 628.243 -273.353 621.289C-292.107 617.275 -309.768 611.665 -324.19 603.61C-338.616 595.552 -349.861 585.013 -355.668 571.122L-355.669 571.121C-356.9 568.168 -356.968 564.772 -356.244 561.12C-355.52 557.468 -353.99 553.492 -351.943 549.323C-347.851 540.99 -341.604 531.714 -335.276 522.468C-334.797 521.769 -334.319 521.071 -333.84 520.373C-327.968 511.804 -322.149 503.314 -317.936 495.58C-315.66 491.401 -313.873 487.478 -312.801 483.914C-311.727 480.343 -311.393 477.203 -311.944 474.557L-311.944 474.554C-314.995 459.699 -319.137 445.495 -323.25 431.391C-325.278 424.437 -327.299 417.506 -329.178 410.534C-334.856 389.47 -339.207 368.135 -338.374 344.997C-337.408 316.96 -355.379 291.913 -375.58 266.789C-377.755 264.084 -379.955 261.378 -382.158 258.67C-390.146 248.847 -398.171 238.979 -405.157 228.931C-414.075 216.106 -421.358 202.908 -424.766 188.994L152.568 243.475ZM152.568 243.475C146.734 218.109 123.467 198.926 96.797 183.741C78.3761 173.252 58.1322 164.568 40.6105 157.052C32.7518 153.681 25.4406 150.544 19.0871 147.586L19.0848 147.585M152.568 243.475L19.0848 147.585M19.0848 147.585C13.3069 144.912 7.28913 142.227 1.135 139.481C-12.1371 133.56 -26.0432 127.356 -39.5443 120.378C-59.2883 110.174 -78.0501 98.3721 -92.4807 83.5235C-97.9387 77.7876 -102.753 72.0272 -106.693 65.5934L-106.696 65.5894M19.0848 147.585L-106.696 65.5894M-354.746 570.736C-359.436 559.488 -346.179 540.146 -333.008 520.928C-320.799 503.113 -308.663 485.406 -310.965 474.353C-314.024 459.459 -318.185 445.186 -322.305 431.059C-330.474 403.042 -338.475 375.6 -337.375 345.031L-354.746 570.736ZM-354.746 570.736C-333.492 621.577 -237.633 627.437 -176.495 631.175C-172.117 631.443 -167.916 631.699 -163.934 631.961L-354.746 570.736ZM-106.696 65.5894C-113.25 54.9986 -116.278 43.7834 -119.342 32.4301C-119.874 30.4587 -120.408 28.4833 -120.961 26.5061C-124.687 13.1841 -129.297 -0.106482 -140.622 -12.1146L-140.627 -12.12M-106.696 65.5894L-140.627 -12.12M-140.627 -12.12C-152.147 -24.1543 -174.995 -34.1132 -201.098 -38.8669C-227.236 -43.6271 -256.853 -43.209 -282.024 -34.2824L-282.123 -34.2475M-140.627 -12.12L-282.123 -34.2475M-282.123 -34.2475L-282.212 -34.1928M-282.123 -34.2475L-282.212 -34.1928M-282.212 -34.1928C-282.401 -34.0771 -282.603 -34.0043 -282.917 -33.8963L-282.944 -33.8869C-283.211 -33.7953 -283.566 -33.6736 -283.927 -33.4669C-302.511 -26.5034 -313.889 -16.0719 -323.062 -6.19995L-323.071 -6.19044M-282.212 -34.1928L-323.071 -6.19044M-323.071 -6.19044C-351.683 25.4112 -368.404 66.1936 -352.811 108.074L-352.806 108.087M-323.071 -6.19044L-352.806 108.087M-352.806 108.087L-352.801 108.1M-352.806 108.087L-352.801 108.1M-352.801 108.1C-351.434 111.48 -352.927 115.276 -356.262 119.921M-352.801 108.1L-356.262 119.921M-356.262 119.921C-360.152 125.208 -366.613 130.883 -374.134 136.763C-378.523 140.194 -383.215 143.653 -387.929 147.128C-391.308 149.619 -394.698 152.117 -397.995 154.62C-405.846 160.579 -413.119 166.523 -418.13 172.23C-423.096 177.884 -426.093 183.589 -424.766 188.994L-356.262 119.921Z" stroke="#0C6CA2" stroke-opacity="0.1" stroke-width="2" stroke-miterlimit="10"/>
<path d="M-302.026 -66.2121L-301.929 -66.2468C-274.192 -76.1746 -241.389 -76.7111 -212.405 -71.4945C-183.457 -66.2844 -158.102 -55.2943 -145.377 -41.9579C-132.691 -28.6624 -127.567 -13.9327 -123.443 0.83799C-122.827 3.04145 -122.235 5.24343 -121.643 7.4408C-118.26 20.0113 -114.916 32.4325 -107.613 44.1374C-102.983 51.1689 -97.7691 57.8337 -91.6645 64.1097C-75.539 80.5314 -54.6428 93.5558 -32.6997 104.82C-18.0328 112.348 -2.9541 119.064 11.4598 125.484C18.6282 128.677 25.6322 131.797 32.3393 134.906C39.3389 138.144 47.4163 141.579 56.1121 145.277C75.5205 153.53 98.0091 163.093 118.47 174.702C148.085 191.505 173.878 212.81 180.118 241.109M-302.026 -66.2121L179.143 241.328M-302.026 -66.2121L-302.114 -66.1581C-302.274 -66.0604 -302.513 -65.9836 -302.928 -65.8627C-303.25 -65.7692 -303.723 -65.6376 -304.136 -65.4064C-324.829 -57.6401 -337.675 -46.1512 -347.706 -35.2594L-347.711 -35.2539C-379.459 -0.267615 -398.007 44.7274 -380.826 90.5303L-380.824 90.5352C-379.409 94.2489 -380.889 98.6906 -384.767 103.635L-384.773 103.642C-389.241 109.454 -396.574 115.676 -405.07 122.111C-409.979 125.829 -415.219 129.577 -420.481 133.341C-424.336 136.098 -428.203 138.863 -431.96 141.632C-440.796 148.144 -448.968 154.632 -454.603 160.858C-460.188 167.029 -463.549 173.236 -462.101 179.111L-462.1 179.115C-458.255 194.475 -450.054 209.018 -440.015 223.141C-432.164 234.186 -423.151 245.025 -414.179 255.814C-411.685 258.812 -409.195 261.807 -406.733 264.801C-384.014 292.44 -363.809 320.017 -364.984 351.025C-366.042 376.992 -361.175 400.702 -354.79 424.085C-352.697 431.75 -350.445 439.368 -348.184 447.017C-343.533 462.748 -338.844 478.61 -335.418 495.285L-335.418 495.288C-334.802 498.237 -335.191 501.735 -336.412 505.707C-337.63 509.672 -339.654 514.037 -342.226 518.684C-346.969 527.256 -353.505 536.669 -360.101 546.169C-360.664 546.979 -361.227 547.79 -361.789 548.601C-368.925 558.891 -375.959 569.209 -380.566 578.473C-382.871 583.108 -384.59 587.522 -385.404 591.572C-386.218 595.62 -386.139 599.374 -384.764 602.629C-378.358 618.03 -365.845 629.668 -349.761 638.532C-333.68 647.395 -313.968 653.519 -293.041 657.872C-257.587 665.247 -218.474 667.567 -187.354 669.412C-181.747 669.745 -176.4 670.062 -171.38 670.391L-171.376 670.391C-143.686 672.077 -115.461 669.332 -87.7678 664.449L-87.765 664.449C-50.7937 657.826 -15.1189 643.332 9.98415 620.203C35.1244 597.04 49.6267 565.24 44.2069 524.193L44.2067 524.191C38.9891 485.322 35.991 453.735 49.1471 423.569L49.1489 423.565C54.8094 410.42 63.5992 397.595 76.4223 384.393L76.4295 384.386C87.4622 372.788 99.7458 362.127 112.065 351.436C113.59 350.113 115.116 348.788 116.64 347.462C130.455 335.437 144.116 323.23 155.782 309.539M-302.026 -66.2121L155.021 308.89M180.118 241.109C180.119 241.11 180.119 241.112 180.119 241.113L179.143 241.328M180.118 241.109C180.118 241.108 180.118 241.108 180.118 241.108L179.143 241.328M180.118 241.109C185.765 266.067 171.977 290.635 155.782 309.539M179.143 241.328C184.679 265.799 171.173 290.037 155.021 308.89M155.782 309.539C155.782 309.539 155.782 309.539 155.783 309.538L155.021 308.89M155.782 309.539C155.782 309.539 155.781 309.54 155.781 309.54L155.021 308.89" stroke="#0C6CA2" stroke-opacity="0.1" stroke-width="2" stroke-miterlimit="10"/>
<path d="M207.953 238.414L207.953 238.412C201.322 207.333 172.922 183.909 140.279 165.419C117.978 152.787 93.4885 142.353 72.3224 133.334C62.4948 129.147 53.3837 125.264 45.5409 121.609L45.5347 121.607C38.2859 118.288 30.7062 114.955 22.9399 111.541C6.99541 104.53 -9.73567 97.1733 -26.0054 88.8837C-50.1822 76.5654 -73.2143 62.2448 -90.8905 44.0888L-90.8966 44.0827C-97.683 37.2308 -103.556 30.0092 -108.248 22.0838L-108.255 22.0724L-108.262 22.0612C-116.352 9.18912 -120.067 -4.49459 -123.825 -18.335C-124.47 -20.7093 -125.116 -23.0882 -125.785 -25.4684C-130.345 -41.6817 -135.983 -57.8474 -149.871 -72.4419C-163.8 -87.08 -191.663 -99.1013 -223.498 -104.803C-255.368 -110.511 -291.44 -109.927 -321.908 -99.1419L-321.94 -99.1307L-321.971 -99.1173C-322.358 -98.9499 -322.685 -98.8541 -323.065 -98.7434C-323.44 -98.6344 -323.867 -98.511 -324.371 -98.2951C-347.21 -89.7234 -361.229 -77.189 -372.121 -65.2747L-372.122 -65.2729C-406.721 -27.2402 -427.402 21.9865 -408.592 72.3239C-407.109 76.6579 -408.873 81.4456 -413.32 87.0669L-413.322 87.0695C-418.29 93.3925 -426.471 100.176 -435.945 107.192C-441.405 111.236 -447.236 115.315 -453.091 119.412C-457.408 122.432 -461.737 125.461 -465.942 128.492C-475.798 135.598 -484.904 142.672 -491.17 149.449C-497.379 156.165 -501.087 162.896 -499.433 169.238C-495.15 186.043 -486.013 201.929 -474.83 217.346C-466.119 229.355 -456.128 241.13 -446.181 252.852C-443.365 256.172 -440.551 259.488 -437.772 262.803C-412.495 292.952 -390.057 323.06 -391.595 357.051C-392.892 385.693 -387.501 411.855 -380.442 437.636C-378.19 445.86 -375.772 454.034 -373.346 462.236C-368.154 479.79 -362.924 497.471 -359.204 516.037L-359.202 516.045C-358.522 519.298 -358.966 523.154 -360.333 527.527C-361.699 531.893 -363.961 536.7 -366.831 541.817C-372.137 551.277 -379.449 561.676 -386.826 572.167C-387.435 573.032 -388.043 573.897 -388.652 574.763C-396.613 586.099 -404.464 597.461 -409.629 607.659C-412.212 612.761 -414.147 617.614 -415.08 622.062C-416.013 626.509 -415.96 630.622 -414.48 634.183L-414.479 634.186C-407.397 651.09 -393.578 663.845 -375.819 673.544C-358.063 683.241 -336.305 689.92 -313.221 694.652C-274.484 702.593 -231.841 705.082 -197.844 707.066C-191.334 707.446 -185.141 707.808 -179.353 708.185C-148.508 710.225 -117.519 706.929 -87.3806 701.524C-46.8768 694.285 -7.58136 678.388 20.0569 653.015C47.7331 627.608 63.6875 592.718 57.4546 547.682C51.6079 505.127 48.372 470.762 63.1652 437.965L63.1693 437.956C69.3707 423.823 78.9863 409.676 92.9426 395.129L92.9456 395.125C105.464 381.961 119.394 370.038 133.333 358.106C134.63 356.997 135.926 355.887 137.221 354.777C152.427 341.738 167.484 328.555 180.449 313.664C198.689 293.015 213.831 266.153 207.953 238.414Z" stroke="#0C6CA2" stroke-opacity="0.1" stroke-width="2" stroke-miterlimit="10"/>
<path d="M58.7888 108.929L58.7897 108.929C67.0896 112.749 76.6855 116.81 87.0306 121.187C110.341 131.051 137.454 142.524 162.117 156.484C197.71 176.63 228.632 202.176 235.812 236.016M58.7888 108.929L234.834 236.223M58.7888 108.929C50.582 105.161 41.9821 101.382 33.1642 97.5064C16.1036 90.0087 -1.77341 82.1524 -19.1994 73.3286C-45.6094 59.9558 -70.8506 44.4223 -90.3763 24.7097C-97.5383 17.2529 -104.085 9.46088 -109.475 0.65922L-109.481 0.650269C-118.323 -13.4517 -122.359 -28.3437 -126.429 -43.3609C-127.138 -45.9801 -127.849 -48.6031 -128.587 -51.2264C-133.542 -68.8504 -139.687 -86.3765 -154.934 -102.258C-170.054 -118.039 -200.422 -131.091 -235.142 -137.284C-269.9 -143.485 -309.243 -142.853 -342.431 -131.054L-342.462 -131.043L-342.492 -131.029C-343.427 -130.626 -344.176 -130.312 -344.914 -130.249L-345.051 -130.237L-345.18 -130.189C-370.144 -120.811 -385.326 -107.238 -397.376 -94.2907L-397.38 -94.2859C-435.15 -53.1684 -457.652 0.274581 -437.195 55.1529L-437.193 55.16L-437.19 55.167C-435.401 59.754 -437.382 65.1627 -442.422 71.1516L-442.428 71.1586L-442.434 71.1658C-447.98 78.0092 -457.05 85.3387 -467.524 92.9089C-473.541 97.2578 -479.963 101.645 -486.409 106.05C-491.197 109.321 -495.998 112.602 -500.657 115.882C-511.537 123.544 -521.581 131.165 -528.499 138.465C-535.356 145.701 -539.445 152.935 -537.67 159.746L-537.669 159.749C-532.878 177.915 -522.789 195.103 -510.473 211.796C-500.948 224.706 -490.052 237.37 -479.201 249.98C-476.027 253.669 -472.858 257.353 -469.727 261.037C-441.972 293.703 -417.374 326.35 -419.134 363.159C-420.67 394.474 -414.84 423.017 -407.112 451.12C-404.545 460.455 -401.774 469.729 -398.992 479.037C-393.384 497.798 -387.734 516.702 -383.633 536.54C-382.925 540.101 -383.453 544.32 -384.988 549.096C-386.522 553.867 -389.035 559.117 -392.211 564.704C-398.06 574.995 -406.082 586.307 -414.175 597.718C-414.876 598.705 -415.576 599.693 -416.276 600.682C-425.045 613.061 -433.683 625.465 -439.381 636.596C-442.232 642.163 -444.37 647.455 -445.415 652.301C-446.459 657.145 -446.425 661.615 -444.842 665.48L-444.84 665.486C-437.16 683.901 -422.073 697.775 -402.648 708.31C-383.227 718.843 -359.404 726.075 -334.125 731.183C-291.993 739.696 -245.645 742.341 -208.62 744.453C-201.226 744.875 -194.205 745.275 -187.662 745.697L-187.66 745.697C-154.01 747.806 -120.213 744.582 -87.3059 738.626C-43.2703 730.771 -0.424365 713.556 29.7496 685.938C59.9616 658.286 77.4357 620.225 70.6766 570.872C64.5105 524.603 61.0582 487.753 76.83 451.748L76.8309 451.746C83.5423 436.328 94.0025 421.175 109.116 405.593C122.719 391.719 137.685 379.105 152.656 366.487C154.361 365.049 156.067 363.612 157.77 362.173C174.411 348.113 190.857 333.876 205.121 317.782M58.7888 108.929L204.375 317.115M235.812 236.016L234.834 236.223M235.812 236.016C235.812 236.015 235.812 236.015 235.812 236.015L234.834 236.223M235.812 236.016C242.189 265.906 225.077 295.435 205.121 317.782M234.834 236.223C241.106 265.62 224.285 294.821 204.375 317.115M205.121 317.782C205.122 317.781 205.123 317.78 205.124 317.779L204.375 317.115M205.121 317.782L204.375 317.115" stroke="#0C6CA2" stroke-opacity="0.1" stroke-width="2" stroke-miterlimit="10"/>
<path d="M263.335 233.338C255.748 196.568 222.303 168.9 183.764 147.136C157.057 132.054 127.694 119.7 102.496 109.099C91.3175 104.397 80.9587 100.039 72.0148 95.94L72.0118 95.9387C63.2703 91.9662 54.1023 87.9773 44.694 83.8837C26.0956 75.7916 6.55869 67.2911 -12.4775 57.7028C-41.1227 43.2746 -68.5014 26.4439 -89.5786 4.99522C-97.4044 -3.01859 -104.323 -11.4102 -110.396 -20.7973C-120.013 -36.0528 -124.424 -52.2471 -128.867 -68.5593C-129.633 -71.3716 -130.4 -74.1874 -131.195 -77.0024C-136.589 -96.1069 -143.248 -115.072 -159.687 -132.099C-176.163 -149.164 -208.957 -163.255 -246.49 -169.947C-284.059 -176.646 -326.592 -175.973 -362.665 -163.303L-362.698 -163.292L-362.73 -163.278C-363.665 -162.874 -364.414 -162.561 -365.152 -162.497L-365.291 -162.485L-365.421 -162.436C-392.185 -152.281 -408.834 -137.649 -422.02 -123.35L-422.024 -123.346C-462.616 -78.8746 -487.278 -21.5068 -465.188 37.9092C-463.33 43.1164 -465.616 48.5579 -470.933 55.2168C-477.059 62.5795 -486.996 70.4709 -498.436 78.6143C-505.004 83.29 -512.01 88.0092 -519.038 92.7434C-524.267 96.266 -529.508 99.7968 -534.591 103.324C-546.455 111.558 -557.396 119.733 -564.937 127.537C-568.709 131.441 -571.673 135.293 -573.47 139.055C-575.272 142.827 -575.926 146.564 -574.979 150.173L-574.978 150.177C-569.749 169.789 -558.724 188.32 -545.263 206.308C-534.878 220.186 -523.002 233.792 -511.175 247.341C-507.679 251.346 -504.188 255.346 -500.74 259.346C-485.609 276.906 -471.313 294.492 -461.065 312.689C-450.823 330.877 -444.657 349.619 -445.717 369.497L-445.718 369.498C-447.492 403.486 -441.139 434.48 -432.737 464.981C-430.011 474.878 -427.073 484.711 -424.126 494.575C-417.977 515.158 -411.787 535.877 -407.391 557.604C-406.617 561.47 -407.2 566.054 -408.882 571.241C-410.562 576.42 -413.312 582.124 -416.782 588.192C-423.182 599.383 -431.959 611.693 -440.806 624.1C-441.559 625.156 -442.313 626.213 -443.065 627.269C-452.638 640.712 -462.063 654.168 -468.277 666.215C-471.386 672.24 -473.714 677.957 -474.85 683.178C-475.985 688.398 -475.944 693.198 -474.218 697.328L-474.218 697.329C-465.862 717.246 -449.471 732.216 -428.373 743.561C-407.279 754.904 -381.413 762.661 -353.979 768.13C-309.332 777.029 -260.362 779.893 -220.797 782.208C-211.753 782.737 -203.2 783.237 -195.303 783.774C-158.806 786.263 -122.245 782.488 -86.2755 775.958C-38.7086 767.487 7.76482 748.947 40.4778 719.123C73.2297 689.263 92.1546 648.114 84.5698 594.619C77.7756 544.671 74.3926 505.007 91.4975 466.393C99.0345 449.647 110.039 433.509 126.281 416.586C141.333 401.059 157.914 387.058 174.496 373.057C175.852 371.912 177.208 370.767 178.564 369.621C196.474 354.478 214.233 339.193 229.796 321.898C251.474 297.845 270.26 265.99 263.335 233.338ZM263.335 233.338C263.335 233.339 263.336 233.34 263.336 233.341L262.356 233.543L263.335 233.335C263.335 233.336 263.335 233.337 263.335 233.338Z" stroke="#0C6CA2" stroke-opacity="0.1" stroke-width="2" stroke-miterlimit="10"/>
<path d="M291.195 230.945L291.195 230.943C283.06 191.413 247.092 161.622 205.603 138.201C176.528 121.788 144.533 108.397 117.192 96.9542C105.501 92.0612 94.6612 87.5244 85.2647 83.2599C75.4976 78.8084 65.2332 74.3428 54.6942 69.7577C35.0463 61.2098 14.4443 52.2467 -5.66841 42.1862C-36.5451 26.7414 -66.1277 8.7739 -89.0414 -14.0783C-97.5352 -22.6541 -105.152 -31.9185 -111.587 -41.8968C-121.958 -58.2714 -126.687 -75.6782 -131.451 -93.2132C-132.276 -96.2513 -133.103 -99.2933 -133.96 -102.334C-139.751 -122.887 -146.924 -143.29 -164.723 -161.603C-182.389 -179.812 -217.688 -194.934 -258.107 -202.119C-298.563 -209.31 -344.368 -208.589 -383.161 -194.905L-383.193 -194.894L-383.224 -194.88C-383.652 -194.696 -384.158 -194.503 -384.692 -194.299L-384.713 -194.291C-385.221 -194.097 -385.753 -193.895 -386.216 -193.696C-415.111 -183.044 -432.915 -167.378 -447.23 -151.738C-490.986 -104.188 -517.444 -42.3015 -493.771 21.0306C-491.877 26.5668 -494.143 32.6427 -500.018 39.624C-506.645 47.4988 -517.432 55.9333 -529.856 64.6365C-536.944 69.6018 -544.505 74.6145 -552.092 79.645C-557.818 83.4414 -563.559 87.248 -569.125 91.0521C-582.011 99.8606 -593.887 108.613 -602.058 116.984C-606.145 121.17 -609.348 125.303 -611.28 129.343C-613.218 133.393 -613.902 137.404 -612.851 141.279L-612.851 141.281C-607.114 162.253 -595.138 182.086 -580.544 201.354C-569.37 216.107 -556.619 230.58 -543.916 245C-540.035 249.406 -536.157 253.807 -532.331 258.209C-515.959 277.046 -500.501 295.925 -489.426 315.469C-478.357 335.003 -471.701 355.144 -472.867 376.51L-472.867 376.51C-474.866 413.325 -467.996 446.693 -458.892 479.473C-455.938 490.108 -452.754 500.667 -449.559 511.26C-442.892 533.369 -436.18 555.625 -431.43 579.01C-430.593 583.179 -431.231 588.122 -433.06 593.71C-434.887 599.29 -437.875 605.435 -441.643 611.972C-448.606 624.051 -458.161 637.347 -467.789 650.744C-468.587 651.855 -469.386 652.967 -470.185 654.08C-480.583 668.568 -490.825 683.068 -497.597 696.049C-500.984 702.542 -503.528 708.698 -504.782 714.317C-506.037 719.935 -506.02 725.094 -504.191 729.527L-504.189 729.532C-495.235 750.958 -477.577 767.048 -454.814 779.224C-432.055 791.398 -404.124 799.699 -374.497 805.523C-325.941 815.07 -272.653 817.995 -229.833 820.346C-220.409 820.863 -211.493 821.353 -203.245 821.879C-163.938 824.437 -124.594 820.422 -85.8421 813.653L-85.8391 813.652C-34.7384 804.566 15.2792 784.63 50.5275 752.561C85.8146 720.456 106.267 676.213 98.1811 618.705C90.7579 565.072 87.1358 522.625 105.571 481.405C113.651 463.665 125.454 445.901 143.154 427.924L143.16 427.918L143.166 427.912C159.864 410.356 178.378 394.716 196.875 379.091C197.652 378.434 198.429 377.778 199.206 377.122C218.459 360.851 237.608 344.512 254.469 326.015C278.188 300.221 298.304 265.76 291.195 230.945Z" stroke="#0C6CA2" stroke-opacity="0.1" stroke-width="2" stroke-miterlimit="10"/>
<path d="M-88.5575 -33.7701L-88.5578 -33.7704C-97.7169 -42.9054 -105.698 -52.7625 -112.838 -63.6263C-124.194 -81.2637 -129.306 -100.053 -134.454 -118.976C-135.296 -122.07 -136.139 -125.168 -137.01 -128.266C-143.199 -150.263 -150.807 -172.111 -169.81 -191.725C-188.68 -211.236 -226.481 -227.311 -269.78 -234.91C-313.117 -242.515 -362.183 -241.669 -403.707 -227.128C-404.328 -226.914 -404.869 -226.708 -405.395 -226.507C-405.635 -226.416 -405.871 -226.326 -406.113 -226.236C-406.405 -226.127 -406.705 -226.018 -407.026 -225.908L-407.037 -225.904L-407.048 -225.9C-438.07 -214.444 -457.038 -197.739 -472.208 -181.084C-519.134 -130.45 -547.41 -64.3485 -522.093 3.52293L-522.09 3.52957C-519.886 9.31332 -522.663 16.0352 -528.853 23.3924C-536.06 31.7864 -547.715 40.7831 -561.105 50.0603C-568.745 55.3531 -576.89 60.6979 -585.059 66.059C-591.227 70.106 -597.408 74.1624 -603.397 78.2127C-617.267 87.5929 -630.04 96.8994 -638.835 105.775C-643.233 110.214 -646.68 114.588 -648.765 118.853C-650.856 123.127 -651.604 127.352 -650.496 131.423L-650.494 131.429C-644.243 153.838 -631.313 175.011 -615.585 195.569C-603.559 211.288 -589.857 226.699 -576.209 242.047C-572.012 246.767 -567.821 251.48 -563.685 256.195C-546.076 276.27 -529.46 296.384 -517.564 317.207C-505.674 338.019 -498.536 359.481 -499.814 382.258C-502.051 421.744 -494.736 457.569 -484.996 492.75C-481.797 504.303 -478.342 515.773 -474.877 527.278C-467.773 550.859 -460.625 574.588 -455.551 599.483C-454.648 603.957 -455.347 609.259 -457.331 615.25C-459.313 621.231 -462.55 627.819 -466.629 634.827C-474.149 647.748 -484.458 661.973 -494.846 676.307C-495.731 677.528 -496.616 678.75 -497.5 679.971C-508.744 695.507 -519.812 711.053 -527.128 724.967C-530.787 731.927 -533.532 738.522 -534.885 744.539C-536.237 750.555 -536.214 756.071 -534.241 760.806C-524.689 783.742 -505.763 800.951 -481.34 813.963C-456.92 826.974 -426.935 835.828 -395.131 842.03C-343.272 852.144 -286.407 855.236 -240.691 857.722C-230.345 858.284 -220.571 858.816 -211.554 859.391L-211.553 859.391C-169.436 862.018 -126.997 857.738 -85.792 850.445L-85.7916 850.445C-31.0042 840.73 22.5647 819.475 60.2718 785.166C98.0189 750.822 119.835 703.419 111.066 641.605C103.041 584.6 99.4603 539.026 119.206 494.883C127.796 475.859 140.446 457.087 159.282 437.761C176.925 419.817 196.296 403.759 215.66 387.706C217.019 386.579 218.378 385.452 219.737 384.325C240.434 367.149 260.979 349.833 279.141 330.133C304.584 302.633 326.375 265.844 318.718 228.267C310.177 185.806 271.685 153.892 227.211 128.857C195.908 111.236 161.432 96.9157 132.029 84.7031C119.639 79.5566 108.15 74.7844 98.1786 70.2972C87.9874 65.6914 77.2851 61.0658 66.294 56.3154C45.0271 47.1238 22.6791 37.4649 0.860888 26.5777C-32.213 10.0739 -63.9357 -9.19182 -88.5575 -33.7701Z" stroke="#0C6CA2" stroke-opacity="0.1" stroke-width="2" stroke-miterlimit="10"/>
<path d="M303.817 334.247L303.816 334.248C284.356 355.15 262.42 373.522 240.493 391.776L238.862 393.134C217.464 410.944 196.134 428.699 177.073 448.694L177.068 448.699L177.063 448.704C157.065 469.069 143.569 488.85 134.468 509.162C113.696 555.889 117.208 604.279 125.862 664.965L125.862 664.967C135.146 730.947 111.802 781.444 71.5157 817.995C31.27 854.509 -25.8493 877.083 -84.1691 887.414C-128.135 895.256 -173.361 899.777 -218.319 896.769C-228.632 896.086 -239.875 895.464 -251.802 894.805C-300.201 892.127 -359.874 888.827 -414.382 878.302C-448.36 871.741 -480.398 862.362 -506.496 848.541C-532.596 834.719 -552.824 816.415 -563.052 791.979C-565.168 786.98 -565.198 781.141 -563.754 774.758C-562.309 768.374 -559.373 761.366 -555.454 753.962C-547.62 739.16 -535.762 722.601 -523.71 706.041C-522.776 704.758 -521.84 703.474 -520.906 702.192C-509.758 686.894 -498.687 671.701 -490.611 657.904C-486.236 650.43 -482.762 643.401 -480.634 637.019C-478.502 630.628 -477.748 624.966 -478.716 620.188C-484.143 593.633 -491.816 568.331 -499.441 543.187C-503.156 530.939 -506.859 518.728 -510.286 506.428C-520.732 468.928 -528.564 430.73 -526.088 388.57L-526.088 388.569C-524.628 364.299 -532.235 341.457 -544.959 319.323C-557.689 297.18 -575.504 275.805 -594.39 254.476C-598.842 249.449 -603.354 244.423 -607.871 239.391C-622.496 223.101 -637.179 206.744 -650.067 190.053C-666.939 168.2 -680.805 145.684 -687.493 121.83C-688.702 117.53 -687.924 113.07 -685.703 108.555C-683.487 104.052 -679.807 99.4346 -675.104 94.7483C-665.698 85.3765 -652.014 75.5534 -637.138 65.6387C-630.821 61.4285 -624.299 57.2081 -617.787 52.9934C-608.91 47.2489 -600.049 41.5148 -591.745 35.8312C-577.359 25.9849 -564.818 16.4036 -557.04 7.41359L-557.031 7.40306L-557.022 7.39275C-549.969 -0.312108 -547.193 -7.35927 -549.466 -13.7755C-576.417 -86.1851 -545.979 -156.212 -496.228 -210.202L-495.493 -209.524L-496.228 -210.202C-479.907 -227.884 -459.788 -245.62 -426.667 -257.882C-425.73 -258.285 -424.496 -258.708 -423.314 -259.114L-423.297 -259.12L-423.293 -259.121L-422.968 -258.176C-334.863 -288.834 -214.349 -261.786 -174.633 -220.612L303.817 334.247ZM303.817 334.247C331.267 304.704 354.419 265.616 346.578 225.873L346.577 225.87C337.486 180.649 296.474 146.613 249.089 119.919C215.599 101.051 178.715 85.7438 147.346 72.7249C134.314 67.3164 122.234 62.3028 111.744 57.5932L303.817 334.247Z" stroke="#0C6CA2" stroke-opacity="0.1" stroke-width="2" stroke-miterlimit="10"/>
<path d="M139.083 688.151L139.083 688.149C132.456 641.947 128.691 602.578 135.265 565.815C141.831 529.097 158.725 494.912 193.555 459.132C213.621 438.538 235.867 420.164 258.152 401.759C259.207 400.888 260.261 400.017 261.315 399.146C284.638 379.874 307.887 360.454 328.492 338.362C357.666 307.112 382.492 265.697 374.101 223.192C364.616 175.196 321.001 139.044 270.592 110.7C234.965 90.6689 195.732 74.4291 162.425 60.6425C148.584 54.9134 135.767 49.6079 124.657 44.63C112.828 39.2956 100.374 33.9412 87.5747 28.4382C56.9463 15.27 24.3386 1.25067 -6.42551 -15.382C-50.0303 -38.9569 -89.7585 -67.6988 -114.654 -106.497L-114.654 -106.498C-127.548 -126.531 -133.352 -147.788 -139.186 -169.154C-140.146 -172.672 -141.107 -176.192 -142.101 -179.71C-149.12 -204.561 -157.748 -229.204 -179.312 -251.404C-200.915 -273.643 -244.528 -292.024 -294.336 -300.505C-344.18 -308.992 -400.456 -307.604 -447.5 -290.086C-482.743 -277.02 -504.336 -258.222 -521.514 -239.523C-574.433 -182.452 -606.691 -108.213 -578.437 -31.5492C-576.741 -26.9051 -577.717 -21.8539 -580.949 -16.3684C-584.187 -10.873 -589.625 -5.06237 -596.609 0.981107C-610.573 13.0656 -630.468 25.8711 -650.545 38.7582L-651.24 39.2041C-671.049 51.9186 -690.968 64.7034 -705.274 76.8663C-712.51 83.0182 -718.368 89.0586 -722.052 94.9004C-725.736 100.744 -727.319 106.512 -725.756 112.027C-718.639 137.249 -703.861 161.07 -685.869 184.206C-672.154 201.842 -656.529 219.131 -640.96 236.358C-636.111 241.724 -631.266 247.084 -626.487 252.447C-606.342 275.051 -587.334 297.717 -573.753 321.204C-560.178 344.682 -552.062 368.921 -553.627 394.681L-552.629 394.741L-553.627 394.681C-556.341 439.512 -548.064 480.167 -536.982 520.068C-533.311 533.284 -529.338 546.404 -525.352 559.563C-517.29 586.181 -509.179 612.96 -503.428 641.027C-502.396 646.11 -503.206 652.136 -505.484 658.936C-507.759 665.727 -511.471 673.208 -516.143 681.164C-524.805 695.914 -536.693 712.168 -548.655 728.521C-549.601 729.815 -550.547 731.109 -551.493 732.404C-564.369 750.028 -577.042 767.641 -585.436 783.363C-589.633 791.225 -592.786 798.659 -594.351 805.421C-595.916 812.18 -595.913 818.35 -593.696 823.615C-582.871 849.561 -561.355 868.983 -533.571 883.639C-505.788 898.294 -471.666 908.224 -435.493 915.161C-377.748 926.235 -314.606 929.709 -263.433 932.524C-250.505 933.235 -238.341 933.905 -227.221 934.644L-227.218 934.644C-179.14 937.694 -130.819 932.907 -84.0921 924.515C-22.2543 913.414 38.4853 889.437 81.3047 850.675C124.165 811.876 149.037 758.285 139.083 688.151Z" stroke="#0C6CA2" stroke-opacity="0.1" stroke-width="2" stroke-miterlimit="10"/>
</g>
<defs>
<filter id="filter0_d_4_162" x="-762" y="-364" width="1196.36" height="1347.54" filterUnits="userSpaceOnUse" color-interpolation-filters="sRGB">
<feFlood flood-opacity="0" result="BackgroundImageFix"/>
<feColorMatrix in="SourceAlpha" type="matrix" values="0 0 0 0 0 0 0 0 0 0 0 0 0 0 0 0 0 0 127 0" result="hardAlpha"/>
<feOffset dy="4"/>
<feGaussianBlur stdDeviation="2"/>
<feComposite in2="hardAlpha" operator="out"/>
<feColorMatrix type="matrix" values="0 0 0 0 0 0 0 0 0 0 0 0 0 0 0 0 0 0 0.25 0"/>
<feBlend mode="normal" in2="BackgroundImageFix" result="effect1_dropShadow_4_162"/>
<feBlend mode="normal" in="SourceGraphic" in2="effect1_dropShadow_4_162" result="shape"/>
</filter>
</defs>
</svg>
