<svg width="559" height="876" viewBox="0 0 559 876" fill="none" xmlns="http://www.w3.org/2000/svg">
<path d="M489.345 387.468L489.327 387.443L489.306 387.419C488.048 385.917 485.863 384.625 483.534 383.928C481.188 383.226 478.515 383.073 476.272 384.063L476.261 384.068L476.251 384.072C474.709 384.801 473.725 385.95 473.023 386.768L472.996 386.8L472.955 386.848L472.922 386.901C470.113 391.435 469.822 396.849 472.703 401.579C475.346 406.09 475.249 410.675 475.02 415.661C475.012 415.839 475.004 416.017 474.995 416.196C474.774 420.947 474.535 426.055 477.032 431.279C477.61 432.534 478.081 434.339 478.648 436.514C478.767 436.971 478.891 437.444 479.02 437.932C479.748 440.672 480.649 443.77 482.063 446.585C483.481 449.406 485.457 452.031 488.38 453.728C491.316 455.432 495.046 456.107 499.812 455.317C506.638 454.223 509.633 449.36 509.124 444.838C509.022 443.242 508.63 441.627 508.266 440.127C508.151 439.653 508.039 439.19 507.94 438.743C507.51 436.813 507.279 435.055 507.743 433.349C508.066 432.174 508.742 430.999 509.622 429.779C510.25 428.908 510.95 428.056 511.67 427.18C511.964 426.823 512.261 426.461 512.558 426.093C513.562 424.846 514.546 423.538 515.244 422.165C515.941 420.791 516.381 419.294 516.233 417.662C516.061 415.189 514.608 413.062 512.666 411.204C510.729 409.351 508.186 407.651 505.616 406.021C505.048 405.661 504.478 405.303 503.911 404.948C501.875 403.671 499.871 402.415 498.077 401.096C495.781 399.409 493.971 397.718 492.959 395.921C492.355 394.828 491.999 393.695 491.609 392.452C491.55 392.265 491.491 392.076 491.43 391.884C490.976 390.459 490.431 388.91 489.345 387.468Z" stroke="#0C6CA2" stroke-opacity="0.1" stroke-width="2" stroke-miterlimit="10"/>
<path d="M533.576 421.701L533.576 421.701L533.58 421.691C534.609 418.492 534.795 415.154 532.768 411.639L532.765 411.633C530.638 407.995 526.587 404.969 522.29 402.38C519.555 400.732 516.585 399.186 513.836 397.755C512.279 396.945 510.794 396.172 509.461 395.438C508.766 395.046 508.068 394.657 507.369 394.267C504.817 392.845 502.266 391.424 499.886 389.885C496.859 387.928 494.2 385.839 492.275 383.434L492.269 383.427L492.263 383.42C491.525 382.527 490.971 381.616 490.358 380.46L490.354 380.453L490.35 380.446C489.594 379.07 489.117 377.665 488.603 376.156C488.416 375.605 488.223 375.04 488.011 374.457C487.241 372.342 486.24 370.131 484.257 368.102C482.055 365.714 478.045 363.701 473.713 362.611C469.389 361.524 464.531 361.3 460.479 362.672C460.355 362.684 460.174 362.717 460.007 362.808C459.875 362.88 459.785 362.967 459.733 363.02C459.73 363.023 459.727 363.026 459.725 363.029C457.078 364.178 455.329 365.71 454.051 367.437C449.314 373.423 447.81 380.883 451.327 388.247C451.599 388.87 451.669 389.297 451.608 389.935L451.602 389.996L451.605 390.058C451.681 392.169 450.855 394.351 449.945 396.757C449.911 396.848 449.876 396.939 449.842 397.031C448.931 399.441 447.959 402.099 448.294 404.778L448.294 404.78C448.949 409.953 450.903 414.949 452.943 419.868C453.152 420.372 453.362 420.875 453.572 421.378C455.423 425.814 457.255 430.205 458.314 434.779C459.062 438.35 460.325 442.206 461.652 446.258C462.351 448.393 463.068 450.581 463.736 452.811C463.942 453.545 463.924 454.463 463.744 455.571C463.597 456.483 463.356 457.437 463.103 458.443C463.048 458.658 462.994 458.875 462.939 459.095C462.636 460.315 462.341 461.602 462.255 462.838C462.169 464.072 462.281 465.362 462.888 466.548L462.888 466.549C465.155 470.968 469.605 474.053 474.633 476.152C479.679 478.258 485.466 479.443 490.667 479.979L490.679 479.98L490.69 479.981C494.257 480.272 497.961 480.143 501.8 479.601C513.395 477.963 521.123 470.599 519.677 460.681C519.454 459.043 519.143 457.452 518.837 455.923C518.81 455.787 518.783 455.652 518.756 455.517C518.476 454.124 518.208 452.788 518.01 451.477C517.577 448.611 517.495 445.962 518.359 443.401L518.367 443.376L518.374 443.35C518.984 441.093 520.433 438.935 522.383 436.677L522.389 436.67L522.395 436.662C523.451 435.381 524.557 434.144 525.658 432.921C525.754 432.814 525.851 432.707 525.947 432.6C526.948 431.49 527.941 430.388 528.868 429.287C530.894 426.881 532.668 424.406 533.576 421.701Z" stroke="#0C6CA2" stroke-opacity="0.1" stroke-width="2" stroke-miterlimit="10"/>
<path d="M550.914 425.33L550.916 425.326C553.064 421.13 554.394 416.316 551.843 410.921C549.271 405.291 543.27 400.78 536.794 397.049C532.476 394.561 527.774 392.33 523.544 390.322C521.424 389.316 519.423 388.367 517.647 387.469C516.744 387.005 515.828 386.538 514.905 386.068C511.094 384.128 507.154 382.121 503.4 379.911C498.74 377.168 494.445 374.154 491.14 370.653L491.134 370.647C489.901 369.359 488.821 367.856 487.962 366.51C486.618 364.287 485.811 362.042 484.968 359.695C484.732 359.037 484.493 358.371 484.238 357.696C483.092 354.656 481.663 351.544 478.763 348.634C475.639 345.359 469.803 342.602 463.455 341.128C457.113 339.656 450.028 339.41 444.227 341.346C444.109 341.355 443.941 341.376 443.788 341.432C443.66 341.479 443.482 341.569 443.34 341.746C439.327 343.347 436.852 345.491 434.855 347.798L434.846 347.808C428.262 355.655 425.429 365.798 430.331 376.192C430.598 376.909 430.587 377.692 430.358 378.595L430.356 378.603L430.354 378.612C430.046 379.939 429.293 381.37 428.291 382.905C427.596 383.969 426.816 385.034 426.017 386.123C425.662 386.608 425.303 387.098 424.947 387.594C423.81 389.178 422.714 390.811 421.983 392.438C421.255 394.057 420.838 395.775 421.197 397.512C422.571 404.347 426.48 410.829 430.275 417.119C430.446 417.402 430.616 417.685 430.786 417.967C434.782 424.602 438.53 431.049 439.475 437.84L439.476 437.846C440.132 442.36 441.441 446.83 442.943 451.368C443.471 452.965 444.021 454.563 444.575 456.176C445.605 459.173 446.652 462.218 447.611 465.394C447.914 466.447 447.741 467.847 447.197 469.574C446.717 471.098 445.998 472.732 445.254 474.424C445.166 474.623 445.079 474.823 444.991 475.023C444.168 476.9 443.345 478.841 442.9 480.653C442.462 482.438 442.336 484.303 443.16 485.937L443.164 485.946L443.169 485.955C446.575 492.43 453.896 496.567 461.972 499.272C470.093 501.992 479.259 503.359 486.746 504.116C492.361 504.749 498.208 504.339 503.937 503.738L503.951 503.737L503.965 503.735C520.439 501.532 532.593 491.811 530.396 476.209L530.396 476.205C530.085 474.063 529.68 471.975 529.288 469.96L529.262 469.828C528.861 467.763 528.478 465.778 528.215 463.838C527.69 459.969 527.655 456.355 528.899 452.866C530.066 449.893 531.857 446.893 534.52 444.052L534.525 444.046L534.531 444.039C536.371 441.991 538.317 440.061 540.251 438.143C541.358 437.044 542.462 435.949 543.54 434.838C546.465 431.823 549.15 428.733 550.914 425.33Z" stroke="#0C6CA2" stroke-opacity="0.1" stroke-width="2" stroke-miterlimit="10"/>
<path d="M568.279 428.903L568.282 428.898C571.548 423.673 573.948 417.2 571.164 410.357L571.161 410.351C568.066 402.88 560.156 396.898 551.546 391.972C545.86 388.719 539.678 385.828 534.161 383.248C531.32 381.919 528.655 380.673 526.325 379.502C524.368 378.518 522.356 377.538 520.318 376.545C516.022 374.451 511.607 372.3 507.335 369.935C501.053 366.457 495.21 362.585 490.736 357.916L490.721 357.9L490.705 357.885C488.989 356.22 487.636 354.342 486.217 352.363C484.3 349.389 483.208 346.348 482.071 343.185C481.788 342.396 481.502 341.6 481.2 340.795C479.7 336.799 477.832 332.726 473.894 328.929C469.771 324.891 462.137 321.439 453.764 319.554C445.383 317.667 436.039 317.299 428.345 319.613C428.214 319.634 428.107 319.671 428.03 319.702C427.933 319.742 427.846 319.79 427.801 319.814L427.793 319.818C427.789 319.82 427.786 319.822 427.783 319.824L427.763 319.825L427.636 319.866C421.916 321.735 418.405 324.791 415.807 327.787C407.185 337.729 403.225 350.366 409.513 363.593L409.524 363.616L409.537 363.639C409.714 363.971 409.78 364.399 409.717 364.987C409.656 365.57 409.483 366.195 409.28 366.909C408.609 368.552 407.297 370.307 405.652 372.162C404.595 373.355 403.443 374.545 402.273 375.753C401.604 376.444 400.93 377.14 400.264 377.846C398.463 379.758 396.752 381.716 395.598 383.664C394.452 385.596 393.763 387.668 394.251 389.78L394.254 389.792C396.287 398.114 401.878 406.018 407.326 413.72C407.752 414.323 408.177 414.924 408.6 415.524C414.498 423.899 419.904 432.077 420.853 440.733L420.854 440.741C421.587 446.994 423.385 453.035 425.478 459.13C426.171 461.148 426.894 463.164 427.622 465.196C429.105 469.335 430.612 473.539 431.94 477.954C432.353 479.366 432.007 481.265 431.092 483.595C430.285 485.651 429.111 487.868 427.903 490.148C427.764 490.411 427.625 490.674 427.485 490.938C426.151 493.465 424.822 496.057 424.058 498.456C423.306 500.816 423.014 503.241 424.099 505.32C428.517 513.83 438.681 519.028 449.822 522.352C461.033 525.697 473.599 527.25 483.283 528.235L483.284 528.235C490.856 529.001 498.674 528.732 506.339 527.655C517.042 526.265 526.714 522.553 533.234 516.546C539.78 510.516 543.132 502.176 541.125 491.68C540.847 490.216 540.562 488.785 540.282 487.384C538.421 478.068 536.825 470.077 539.715 462.499C541.169 458.724 543.497 455.094 547.113 451.397L547.126 451.384L547.138 451.37C549.725 448.478 552.607 445.753 555.497 443.023C556.432 442.139 557.369 441.254 558.296 440.363C562.064 436.741 565.665 433.023 568.279 428.903Z" stroke="#0C6CA2" stroke-opacity="0.1" stroke-width="2" stroke-miterlimit="10"/>
<path d="M585.632 432.45L585.637 432.443C590.025 426.174 593.512 418.243 590.204 409.572C586.692 400.26 576.82 392.814 566.005 386.724C558.789 382.66 550.944 379.095 544.033 375.954C540.573 374.381 537.347 372.915 534.552 371.546L534.546 371.543C532.38 370.495 530.147 369.442 527.877 368.371C522.317 365.746 516.53 363.015 510.925 360.002C503.043 355.765 495.633 351.026 489.903 345.375L489.89 345.362L489.876 345.35C487.646 343.279 485.786 340.991 484.089 338.475L484.084 338.469L484.08 338.462C481.411 334.621 479.971 330.652 478.479 326.541C478.188 325.737 477.894 324.928 477.589 324.113C475.739 319.173 473.491 314.143 468.638 309.46C463.598 304.538 454.2 300.334 443.803 298.062C433.395 295.787 421.765 295.397 412.109 298.284C411.979 298.305 411.875 298.341 411.806 298.367C411.744 298.391 411.655 298.431 411.616 298.449L411.597 298.457C411.521 298.49 411.49 298.498 411.447 298.499L411.31 298.504L411.184 298.545C404.027 300.866 399.753 304.55 396.605 308.176C385.913 320.013 380.88 335.321 388.541 351.543C389.046 352.699 388.814 353.787 388.053 355.622C387.069 357.588 385.198 359.689 382.889 361.902C381.455 363.276 379.901 364.65 378.328 366.04C377.354 366.901 376.373 367.768 375.409 368.645C372.921 370.909 370.578 373.216 369.001 375.501C367.442 377.76 366.496 380.192 367.176 382.666C369.88 392.609 377.192 401.977 384.326 411.117C385.008 411.991 385.688 412.862 386.363 413.732C394.188 423.824 401.253 433.691 402.103 444.231L402.104 444.239C402.821 452.336 405.116 459.997 407.797 467.623C408.624 469.974 409.484 472.315 410.348 474.664C412.299 479.971 414.265 485.318 415.889 490.919L415.891 490.924C416.419 492.711 415.889 495.122 414.599 498.053C413.445 500.674 411.78 503.512 410.076 506.417C409.905 506.707 409.735 506.999 409.564 507.29C407.704 510.468 405.852 513.709 404.741 516.693C403.648 519.628 403.157 522.594 404.427 525.099L404.427 525.099L404.43 525.106C407.149 530.386 411.768 534.572 417.447 537.917C423.122 541.26 429.912 543.798 437.076 545.771C451.363 549.706 467.341 551.448 479.335 552.755L479.42 552.765C479.421 552.765 479.422 552.765 479.423 552.765C489.031 553.871 498.769 553.33 508.35 552.191L508.357 552.19C521.62 550.512 533.77 546.007 541.958 538.6C550.174 531.166 554.385 520.813 551.692 507.592C551.506 506.67 551.319 505.759 551.135 504.859C548.611 492.517 546.5 482.199 550.153 472.537C551.899 467.952 554.767 463.692 559.127 459.144L559.134 459.137L559.14 459.13C562.63 455.304 566.528 451.771 570.413 448.25C571.265 447.478 572.116 446.707 572.962 445.933C577.647 441.648 582.168 437.297 585.632 432.45Z" stroke="#0C6CA2" stroke-opacity="0.1" stroke-width="2" stroke-miterlimit="10"/>
<path d="M603.023 435.982L603.018 435.988C598.703 441.566 593.317 446.551 587.755 451.45C586.703 452.377 585.645 453.3 584.587 454.224C580.031 458.201 575.464 462.188 571.302 466.496L571.295 466.503C566.184 471.676 562.8 476.765 560.722 481.979C556.083 494.069 558.788 506.887 562.104 522.596L562.213 523.114L562.213 523.115M603.023 435.982L510.254 575.143C541.443 571.245 567.82 554.35 561.22 523.189L562.213 523.115M603.023 435.982C608.72 428.451 613.06 419.078 609.523 408.988L609.52 408.979C605.468 397.745 593.704 388.834 580.729 381.597C571.865 376.652 562.224 372.381 553.809 368.653C549.889 366.916 546.236 365.297 543.05 363.783C539.92 362.279 536.667 360.775 533.35 359.242C527.22 356.408 520.871 353.474 514.673 350.242C505.141 345.273 496.12 339.675 489.106 332.852C486.55 330.351 484.188 327.66 482.222 324.772L482.216 324.763L482.209 324.754C478.951 320.155 477.227 315.384 475.442 310.443C475.101 309.499 474.757 308.549 474.401 307.593C472.192 301.672 469.501 295.641 463.608 289.978C457.673 284.275 446.459 279.321 434.006 276.637C421.544 273.951 407.617 273.487 396.098 276.944C395.983 276.961 395.887 276.988 395.826 277.007C395.726 277.037 395.624 277.074 395.554 277.1C395.471 277.13 395.42 277.149 395.378 277.161C395.378 277.161 395.378 277.161 395.378 277.161L395.297 277.164L395.172 277.205C386.565 279.981 381.532 284.302 377.629 288.551L377.628 288.553C365.084 302.27 358.786 320.461 367.792 339.488C368.344 340.855 368.154 342.361 366.865 344.295L366.855 344.31L366.846 344.325C365.483 346.58 363.005 348.999 360.01 351.543C358.287 353.006 356.448 354.467 354.589 355.944C353.201 357.047 351.802 358.158 350.43 359.287C347.266 361.891 344.311 364.541 342.33 367.16C340.376 369.744 339.198 372.522 340.065 375.34C341.993 381.768 345.607 387.941 349.919 393.947C353.441 398.853 357.465 403.696 361.452 408.495C362.342 409.565 363.229 410.633 364.109 411.699C373.831 423.482 382.565 435.004 383.509 447.343M603.023 435.982L384.522 447.403M562.213 523.115C565.59 539.058 560.513 551.374 550.644 560.159C540.807 568.916 526.225 574.161 510.512 576.124L510.509 576.125C499.008 577.533 487.326 578.138 475.743 576.898M562.213 523.115L475.743 576.898M475.743 576.898C475.744 576.898 475.745 576.898 475.746 576.898L475.717 575.915L475.74 576.898C475.741 576.898 475.742 576.898 475.743 576.898ZM475.743 576.898C475.366 576.86 474.985 576.822 474.601 576.783C460.516 575.359 441.716 573.46 424.789 569.031C416.091 566.755 407.835 563.8 400.94 559.865C394.041 555.93 388.441 550.977 385.167 544.695L385.162 544.685L385.157 544.675C383.706 541.753 384.385 538.251 385.82 534.738C387.278 531.167 389.652 527.276 392.039 523.446C392.24 523.124 392.441 522.802 392.642 522.48C394.844 518.954 397.003 515.497 398.505 512.314C399.323 510.582 399.929 508.964 400.242 507.492C400.556 506.016 400.562 504.749 400.247 503.689M475.743 576.898L401.219 503.531M400.247 503.689C400.248 503.69 400.248 503.691 400.248 503.692L401.219 503.531M400.247 503.689C400.247 503.689 400.247 503.688 400.247 503.687L401.219 503.531M400.247 503.689C398.288 497.21 395.96 491.041 393.656 484.934C392.479 481.812 391.307 478.707 390.194 475.584C386.919 466.4 384.194 457.174 383.509 447.343M401.219 503.531C399.25 497.019 396.899 490.786 394.587 484.657C389.926 472.301 385.423 460.366 384.522 447.403M383.509 447.343C383.509 447.344 383.51 447.345 383.51 447.346L384.522 447.403M383.509 447.343C383.509 447.342 383.509 447.34 383.509 447.339L384.522 447.403M395.352 277.168C395.353 277.168 395.354 277.168 395.356 277.168C395.351 277.169 395.35 277.169 395.352 277.168Z" stroke="#0C6CA2" stroke-opacity="0.1" stroke-width="2" stroke-miterlimit="10"/>
<path d="M620.431 439.522L620.433 439.519C627.245 430.952 632.886 420.11 628.82 408.192L628.82 408.191C624.353 395.129 610.693 384.755 595.562 376.349C585.127 370.552 573.773 365.579 563.941 361.273C559.492 359.325 555.354 357.513 551.754 355.822L551.75 355.82C548.723 354.414 545.598 352.999 542.414 351.557C534.652 348.042 526.541 344.368 518.657 340.285C507.552 334.533 497.01 328.02 488.721 320.118L488.717 320.114C485.667 317.229 482.772 313.951 480.52 310.667L480.515 310.659L480.509 310.651C476.641 305.204 474.585 299.573 472.478 293.805C472.082 292.722 471.685 291.634 471.273 290.541C468.686 283.671 465.569 276.74 458.778 270.294C451.927 263.707 438.896 258.005 424.391 254.91C409.88 251.813 393.665 251.275 380.272 255.195C379.973 255.223 379.751 255.304 379.614 255.354L379.597 255.361C379.445 255.416 379.415 255.422 379.369 255.424L379.233 255.428L379.109 255.468C369.056 258.699 363.263 263.653 358.604 268.529L358.599 268.534L358.594 268.54C344.011 284.357 336.6 305.035 346.978 326.879L346.982 326.887L346.986 326.896C347.713 328.358 347.287 330.224 345.748 332.469L345.744 332.474C344.003 335.056 340.943 337.818 337.292 340.706C335.182 342.374 332.93 344.044 330.657 345.729C328.983 346.97 327.298 348.219 325.651 349.482C321.811 352.426 318.233 355.404 315.808 358.327C313.421 361.205 311.94 364.279 312.854 367.379L312.856 367.388L312.859 367.396C315.163 374.735 319.505 381.789 324.687 388.663C328.834 394.164 333.56 399.601 338.25 404.998C339.414 406.338 340.576 407.675 341.726 409.009C353.381 422.534 363.804 435.811 364.647 450.058C365.298 461.625 368.518 472.465 372.385 483.204C373.64 486.69 374.958 490.154 376.28 493.628C379.048 500.903 381.833 508.22 384.085 515.864L384.086 515.868C384.459 517.119 384.433 518.613 384.032 520.346C383.633 522.073 382.876 523.97 381.866 525.999C380.034 529.678 377.428 533.676 374.773 537.749C374.495 538.175 374.217 538.602 373.939 539.029C371.024 543.511 368.141 548.055 366.376 552.215C364.639 556.311 363.842 560.354 365.598 563.691C369.373 570.979 375.942 576.699 384.069 581.228C392.196 585.757 401.953 589.136 412.227 591.725C431.376 596.552 452.513 598.676 468.585 600.291C469.753 600.408 470.894 600.523 472.005 600.636L472.005 600.636C485.566 602.011 499.407 601.333 512.637 599.867L512.65 599.865C530.816 597.616 547.829 591.629 559.342 581.523C570.888 571.387 576.885 557.109 572.935 538.442L572.934 538.437C568.941 520.082 565.816 505.298 571.311 491.425L571.311 491.423C573.685 485.385 577.581 479.469 583.45 473.664L583.455 473.659C588.332 468.738 593.755 464.216 599.177 459.693C600.302 458.756 601.426 457.818 602.545 456.877C609.044 451.413 615.368 445.837 620.431 439.522ZM313.827 367.225L313.827 367.225L313.827 367.225Z" stroke="#0C6CA2" stroke-opacity="0.1" stroke-width="2" stroke-miterlimit="10"/>
<path d="M637.789 443.043L637.793 443.038C645.727 433.422 652.405 420.922 647.882 407.588C642.98 392.605 627.439 380.821 610.135 371.298C598.4 364.839 585.626 359.307 574.505 354.491C569.205 352.196 564.281 350.063 560.023 348.07L560.02 348.069C556.307 346.343 552.458 344.607 548.531 342.836C539.95 338.966 530.998 334.928 522.272 330.456C509.568 323.946 497.465 316.572 487.905 307.594L487.897 307.587C484.362 304.326 481.176 300.65 478.375 296.753C473.923 290.556 471.582 284.131 469.188 277.558C468.74 276.328 468.29 275.093 467.824 273.853C464.883 266.03 461.332 258.148 453.52 250.823C445.755 243.352 430.908 236.902 414.355 233.421C397.757 229.93 379.21 229.373 363.939 233.895L363.848 233.922L363.767 233.966C363.669 234.019 363.559 234.054 363.34 234.114L363.317 234.121C363.141 234.17 362.887 234.241 362.628 234.368C351.347 237.849 344.624 243.639 339.432 249.129L339.427 249.135C322.996 266.834 314.295 290.189 326.045 315.03C326.88 316.932 326.433 319.028 324.559 321.415L324.545 321.433L324.532 321.452C322.477 324.396 318.856 327.508 314.546 330.735C312.01 332.634 309.289 334.536 306.549 336.45C304.624 337.795 302.691 339.146 300.804 340.509C296.274 343.78 292.062 347.083 289.217 350.338C286.415 353.544 284.706 356.967 285.807 360.443L285.809 360.449C288.495 368.743 293.553 376.701 299.589 384.452C304.393 390.623 309.86 396.715 315.289 402.765C316.674 404.308 318.056 405.848 319.424 407.386C332.979 422.626 345.088 437.612 345.937 453.771C346.555 467.07 350.26 479.471 354.744 491.763C356.187 495.716 357.705 499.648 359.228 503.593C362.46 511.961 365.716 520.391 368.321 529.226L368.323 529.23C368.755 530.676 368.712 532.401 368.229 534.395C367.748 536.382 366.848 538.564 365.653 540.895C363.447 545.197 360.301 549.883 357.11 554.635C356.84 555.037 356.569 555.44 356.299 555.843C352.857 560.977 349.451 566.158 347.335 570.865C346.275 573.221 345.519 575.503 345.254 577.637C344.988 579.771 345.207 581.826 346.18 583.672C350.508 591.96 358.052 598.433 367.397 603.541C376.742 608.649 387.961 612.435 399.767 615.327C420.533 620.413 443.295 622.773 461.155 624.626C463.594 624.879 465.941 625.122 468.18 625.362C483.76 627.075 499.554 626.33 514.889 624.386C535.506 621.85 554.994 615.07 568.172 603.563C581.383 592.027 588.238 575.738 583.497 554.354C579.091 533.578 575.657 516.982 581.955 501.46L581.959 501.449C584.625 494.597 589.064 488.052 595.671 481.402L595.676 481.396C601.488 475.444 608.021 470.049 614.547 464.66C615.445 463.918 616.344 463.176 617.24 462.433C624.629 456.306 631.875 450.093 637.789 443.043Z" stroke="#0C6CA2" stroke-opacity="0.1" stroke-width="2" stroke-miterlimit="10"/>
<path d="M666.939 406.801L666.938 406.796C661.513 389.998 644.086 376.752 624.62 366.056C611.156 358.659 596.489 352.368 583.814 346.931C578.138 344.497 572.862 342.233 568.272 340.119L568.27 340.118C564.075 338.197 559.715 336.261 555.258 334.284C545.655 330.022 535.603 325.561 525.79 320.609C511.438 313.368 497.721 305.135 486.892 295.085C482.786 291.203 479.141 287.336 476.076 283.071L476.073 283.067C470.979 276.044 468.312 268.738 465.589 261.28C465.116 259.983 464.64 258.682 464.15 257.376C460.858 248.604 456.928 239.769 448.311 231.557L448.305 231.551C439.542 223.309 422.939 216.105 404.374 212.184C385.769 208.253 364.971 207.57 347.714 212.564L347.621 212.591L347.537 212.637C347.439 212.69 347.329 212.724 347.11 212.785L347.087 212.792C346.91 212.841 346.656 212.911 346.397 213.039C333.672 216.974 326.188 223.397 320.238 229.517L320.23 229.525C301.72 249.129 291.95 275.166 305.092 303.01L305.098 303.024L305.105 303.038C306.125 305.056 305.399 307.315 303.288 310.227C300.853 313.493 296.638 316.944 291.66 320.514C288.756 322.596 285.647 324.683 282.52 326.781C280.276 328.287 278.023 329.799 275.829 331.321C270.623 334.931 265.8 338.565 262.551 342.127C259.355 345.631 257.414 349.355 258.688 353.109C261.802 362.304 267.611 371.137 274.524 379.752C279.941 386.5 286.08 393.168 292.179 399.793C293.859 401.617 295.536 403.439 297.194 405.258C304.896 413.707 312.204 422.118 317.682 430.69C323.154 439.254 326.76 447.92 327.124 456.886C327.709 471.915 331.852 485.929 336.902 499.778C338.578 504.374 340.348 508.939 342.122 513.515C345.714 522.78 349.325 532.091 352.209 541.803L352.21 541.806C352.702 543.448 352.64 545.402 352.074 547.652C351.51 549.894 350.466 552.356 349.086 554.981C346.529 559.844 342.885 565.147 339.195 570.517C338.896 570.953 338.596 571.389 338.297 571.826C334.327 577.611 330.4 583.443 327.938 588.738C326.706 591.388 325.82 593.947 325.49 596.336C325.16 598.725 325.377 601.014 326.44 603.065L326.441 603.066C331.267 612.358 339.763 619.6 350.323 625.304C360.881 631.008 373.581 635.218 386.95 638.425C410.108 643.978 435.451 646.557 455.437 648.591C458.519 648.904 461.473 649.205 464.273 649.501L464.273 649.501C481.832 651.35 499.572 650.54 516.823 648.327C539.893 645.505 561.812 637.984 576.664 625.127C591.552 612.239 599.326 593.99 594.012 569.883C589.016 546.912 585.446 528.274 592.306 510.898C595.303 503.42 600.253 496.048 607.827 488.765L607.836 488.756C614.265 482.388 621.388 476.591 628.501 470.802C629.67 469.851 630.839 468.9 632.004 467.946C640.242 461.206 648.302 454.359 654.96 446.576C664.25 435.885 671.762 421.943 666.939 406.801Z" stroke="#0C6CA2" stroke-opacity="0.1" stroke-width="2" stroke-miterlimit="10"/>
<path d="M460.779 672.636C457.234 672.261 453.461 671.884 449.507 671.488C401.697 666.702 327.417 659.266 308.292 622.288M460.779 672.636L309.556 460.093M460.779 672.636C480.217 674.61 499.823 673.74 518.972 671.467M460.779 672.636L518.972 671.467M308.292 622.288C303.949 614.008 313.376 600.496 322.729 587.089C331.371 574.701 339.951 562.402 337.547 554.405C334.295 543.458 330.187 532.978 326.125 522.615C318.125 502.204 310.303 482.25 309.556 460.093M308.292 622.288L307.397 622.636C307.397 622.637 307.398 622.638 307.398 622.639M308.292 622.288L307.4 622.641C307.399 622.641 307.399 622.64 307.398 622.639M309.556 460.093L308.541 459.995C308.541 459.996 308.541 459.996 308.541 459.997C308.541 459.997 308.541 459.998 308.541 459.998L309.556 460.093ZM307.398 622.639C312.723 632.932 322.167 640.928 333.933 647.209C345.699 653.49 359.869 658.1 374.782 661.596C400.049 667.519 427.629 670.279 449.553 672.474C453.502 672.869 457.268 673.246 460.803 673.62L460.808 673.62C480.345 675.604 500.03 674.728 519.224 672.449L519.226 672.449C544.858 669.337 569.21 661.075 585.706 646.841C602.24 632.576 610.866 612.318 604.963 585.39L604.962 585.388C599.34 560.014 595.674 539.548 603.34 520.52L603.342 520.515C606.632 512.221 612.126 504.22 620.437 496.092L620.444 496.085C627.589 488.931 635.658 482.423 643.763 475.886C644.766 475.077 645.77 474.267 646.772 473.456C655.858 466.104 664.841 458.617 672.351 450.098M307.398 622.639L474.169 269.156M672.351 450.098C672.351 450.098 672.351 450.098 672.35 450.098L671.546 449.397L672.352 450.097C672.352 450.097 672.352 450.097 672.351 450.098ZM672.351 450.098C682.765 438.357 691.31 422.756 686.029 406.199M686.029 406.199C680.17 387.481 660.857 372.775 639.238 360.935C624.282 352.745 607.991 345.811 593.952 339.835C587.671 337.161 581.84 334.68 576.781 332.363M686.029 406.199C686.029 406.2 686.029 406.201 686.03 406.202L685.061 406.373L686.028 406.197C686.028 406.197 686.028 406.198 686.029 406.199ZM576.781 332.363C571.91 330.128 566.835 327.879 561.643 325.579C551.212 320.957 540.309 316.126 529.646 310.778C513.694 302.778 498.415 293.683 486.314 282.557M576.781 332.363C576.781 332.363 576.782 332.363 576.782 332.363L576.453 333.249L576.781 332.363ZM486.314 282.557C481.735 278.312 477.758 273.843 474.169 269.156M486.314 282.557L485.672 283.232L486.317 282.56C486.316 282.559 486.315 282.558 486.314 282.557ZM474.169 269.156C474.172 269.159 474.174 269.163 474.177 269.166L473.376 269.666L474.161 269.145C474.164 269.148 474.166 269.152 474.169 269.156ZM518.972 671.467C570.015 665.271 615.616 638.586 603.971 585.472M518.972 671.467L603.971 585.472M603.971 585.472C598.354 560.124 594.605 539.375 602.388 520.057L603.971 585.472ZM330.399 191.703C330.368 191.717 330.338 191.732 330.309 191.748L330.889 192.627L330.471 191.68C330.447 191.688 330.423 191.695 330.399 191.703Z" stroke="#0C6CA2" stroke-opacity="0.1" stroke-width="2" stroke-miterlimit="10"/>
<path d="M705.302 405.4L705.302 405.399C699.027 384.86 677.773 368.695 653.94 355.663C637.64 346.75 619.897 339.185 604.582 332.656C597.481 329.628 590.902 326.823 585.23 324.209L585.224 324.207C579.962 321.819 574.47 319.413 568.846 316.949C557.309 311.894 545.212 306.594 533.385 300.702C515.81 291.945 498.964 281.94 485.685 269.64L485.679 269.634C480.587 264.989 476.124 260.141 472.454 254.884L472.446 254.872L472.437 254.86C466.15 246.308 462.874 237.378 459.539 228.283C458.966 226.721 458.391 225.154 457.799 223.583C453.774 212.907 448.975 202.173 438.424 192.199C427.834 182.188 407.598 173.484 384.956 168.763C362.272 164.033 336.943 163.251 316.056 169.281L316.026 169.29L315.997 169.3C315.749 169.39 315.539 169.439 315.278 169.499L315.265 169.501C315.012 169.559 314.711 169.628 314.36 169.754C298.718 174.595 289.48 182.3 282.418 189.696L282.416 189.698C260.024 213.28 247.893 244.671 263.723 278.11C264.888 280.761 264.005 283.67 261.178 287.161L261.176 287.163C258.036 291.069 252.667 295.186 246.373 299.432C242.745 301.878 238.867 304.331 234.97 306.796C232.093 308.616 229.206 310.442 226.401 312.277C219.843 316.568 213.788 320.876 209.711 325.091C207.672 327.2 206.088 329.325 205.193 331.456C204.295 333.596 204.072 335.796 204.853 337.995C208.73 349.097 215.98 359.735 224.617 370.104C231.345 378.182 238.964 386.151 246.536 394.071C248.679 396.313 250.818 398.55 252.932 400.785C262.543 410.945 271.655 421.069 278.447 431.408C285.232 441.738 289.66 452.22 289.974 463.105C290.51 481.694 295.63 498.877 301.889 515.833C303.89 521.254 306.003 526.639 308.12 532.039C312.646 543.577 317.196 555.179 320.737 567.318L320.74 567.327C321.353 569.364 321.251 571.778 320.52 574.539C319.791 577.293 318.458 580.313 316.708 583.529C313.47 589.477 308.872 595.971 304.222 602.54C303.84 603.08 303.457 603.621 303.075 604.162C298.063 611.252 293.113 618.386 289.991 624.857C288.429 628.095 287.302 631.211 286.865 634.109C286.427 637.007 286.669 639.763 287.938 642.218L287.94 642.221C293.816 653.512 304.236 662.275 317.222 669.151C330.207 676.028 345.843 681.064 362.292 684.875C389.895 691.271 419.966 694.255 443.922 696.631C448.507 697.086 452.868 697.519 456.945 697.949C478.721 700.264 500.322 699.119 521.209 696.58C549.293 693.182 576.119 684.125 594.285 668.517C612.488 652.877 621.981 630.658 615.303 601.113C609.052 573.328 605.08 551.052 613.761 530.371L613.765 530.362C617.386 521.441 623.395 512.608 632.436 503.643L632.439 503.64C640.548 495.517 649.709 488.243 658.891 480.952C659.744 480.275 660.598 479.598 661.45 478.92C671.462 470.954 681.378 462.879 689.74 453.622C701.506 440.81 710.885 423.766 705.302 405.4Z" stroke="#0C6CA2" stroke-opacity="0.1" stroke-width="2" stroke-miterlimit="10"/>
<path d="M593.734 316.453L593.733 316.452C587.774 313.742 581.543 311.013 575.156 308.217C562.808 302.81 549.879 297.148 537.209 290.871C518.01 281.358 499.548 270.496 484.89 257.125C479.498 252.07 474.531 246.828 470.325 240.978L470.318 240.969C463.439 231.593 459.877 221.868 456.262 211.999C455.631 210.276 454.998 208.548 454.345 206.817C449.971 195.211 444.746 183.576 433.172 172.723C421.686 161.932 399.636 152.479 374.938 147.345C350.197 142.203 322.568 141.346 299.817 147.948L299.787 147.956L299.759 147.966C299.116 148.201 298.644 148.364 298.178 148.38L298.047 148.384L297.927 148.422C280.826 153.717 270.821 162.06 262.997 170.089L262.992 170.094C238.522 195.58 225.322 229.653 242.544 266.096L242.548 266.104L242.551 266.111C243.931 268.924 242.944 272.221 239.715 275.935L239.71 275.942L239.704 275.948C236.183 280.175 230.217 284.619 223.246 289.192C219.243 291.819 214.965 294.453 210.667 297.099C207.472 299.067 204.266 301.041 201.153 303.024C193.903 307.643 187.216 312.276 182.707 316.81C180.452 319.077 178.699 321.359 177.704 323.646C176.704 325.943 176.446 328.301 177.283 330.657L177.284 330.66C181.588 342.663 189.574 354.178 199.073 365.412C206.42 374.101 214.72 382.676 222.974 391.203C225.386 393.695 227.794 396.183 230.173 398.668C240.72 409.685 250.712 420.668 258.149 431.879C265.579 443.082 270.413 454.448 270.721 466.244C271.225 486.561 276.774 505.304 283.621 523.79C285.9 529.944 288.317 536.055 290.741 542.184C295.619 554.519 300.526 566.928 304.401 579.907C305.05 582.145 304.908 584.792 304.079 587.81C303.253 590.821 301.765 594.122 299.823 597.634C296.246 604.104 291.195 611.168 286.087 618.312C285.646 618.929 285.205 619.546 284.764 620.164C279.237 627.906 273.786 635.691 270.335 642.751C268.609 646.282 267.361 649.676 266.865 652.829C266.37 655.981 266.615 658.968 267.972 661.625L267.975 661.631C274.349 673.924 285.719 683.455 299.919 690.927C314.12 698.4 331.236 703.861 349.249 707.987C379.271 714.864 411.959 718.068 438.052 720.625C443.261 721.136 448.207 721.621 452.817 722.104L452.819 722.104C476.57 724.554 500.151 723.546 522.961 720.738C553.5 717.054 582.758 707.255 602.595 690.27C622.471 673.252 632.872 649.023 625.605 616.656C618.942 586.45 614.69 562.551 623.901 539.816L623.902 539.814C627.816 530.077 634.369 520.617 644.172 511.016C653.009 502.467 662.866 494.776 672.738 487.073C673.862 486.196 674.987 485.319 676.11 484.441C687.079 475.858 697.92 467.142 707.135 457.147C720.02 443.291 730.656 424.577 724.611 404.792C717.811 382.443 694.673 364.818 668.681 350.616C650.65 340.764 631.01 332.441 614.145 325.294C606.668 322.126 599.738 319.189 593.734 316.453Z" stroke="#0C6CA2" stroke-opacity="0.1" stroke-width="2" stroke-miterlimit="10"/>
<path d="M602.196 308.493L602.199 308.494C608.669 311.432 616.151 314.586 624.229 317.992C642.459 325.678 663.726 334.645 683.251 345.291C711.395 360.637 736.415 379.721 743.65 403.985M602.196 308.493L742.68 404.146M602.196 308.493C595.85 305.632 589.208 302.749 582.395 299.792C568.936 293.949 554.807 287.816 540.968 280.991C520.142 270.721 500.111 258.946 484.274 244.398C478.393 238.965 473.131 233.321 468.413 227.065C460.932 216.915 457.04 206.333 453.097 195.612C452.416 193.761 451.734 191.906 451.032 190.049C446.274 177.468 440.615 164.883 428.145 153.247C415.641 141.58 391.834 131.374 365.132 125.827C338.389 120.27 308.519 119.338 283.784 126.411L283.753 126.42L283.723 126.431C283.08 126.666 282.608 126.829 282.141 126.845L282.009 126.849L281.887 126.887C263.562 132.63 252.579 141.612 244.023 150.483L244.019 150.487C217.737 178.057 203.214 214.607 221.813 254.049C223.279 257.268 222.079 260.58 218.683 264.728C214.78 269.274 208.233 274.054 200.615 278.967C196.24 281.788 191.568 284.619 186.878 287.461C183.385 289.578 179.882 291.7 176.484 293.829C168.571 298.788 161.283 303.751 156.36 308.592C153.899 311.012 151.987 313.443 150.895 315.87C149.798 318.307 149.503 320.804 150.392 323.294L150.393 323.298C155.078 336.254 163.791 348.671 174.16 360.782C182.161 370.127 191.198 379.345 200.185 388.512C202.839 391.22 205.49 393.923 208.108 396.624C219.615 408.496 230.514 420.336 238.602 432.431C246.685 444.516 251.917 456.792 252.173 469.549L252.173 469.55C252.644 491.596 258.685 511.948 266.127 532.012C268.547 538.536 271.109 545.015 273.677 551.511C279.028 565.046 284.406 578.65 288.584 592.864M602.196 308.493L289.558 592.713M743.65 403.985C743.651 403.987 743.652 403.988 743.652 403.99L742.68 404.146M743.65 403.985C743.65 403.985 743.65 403.985 743.65 403.984L742.68 404.146M743.65 403.985C750.221 425.581 738.524 445.752 724.514 460.659M742.68 404.146C749.09 425.218 737.7 445.07 723.725 459.941M724.514 460.659L723.725 459.941M724.514 460.659C714.447 471.392 702.737 480.745 690.929 489.99C690.036 490.69 689.142 491.389 688.248 492.087C677.312 500.636 666.39 509.175 656.618 518.751M724.514 460.659C724.514 460.659 724.514 460.66 724.514 460.66L723.725 459.941M723.725 459.941L656.618 518.751M656.618 518.751C656.619 518.75 656.62 518.749 656.621 518.747L655.855 518.01L656.618 518.751ZM656.618 518.751C646.09 529.185 639.202 539.269 634.774 549.846M656.618 518.751L633.826 549.374M634.774 549.846C634.774 549.845 634.775 549.843 634.775 549.842L633.826 549.374M634.774 549.846C634.773 549.846 634.773 549.847 634.773 549.847L633.826 549.374M634.774 549.846C624.761 574.231 629.106 599.954 636.395 632.562M633.826 549.374C623.691 574.05 628.118 600.055 635.405 632.654C651.348 702.063 590.906 736.154 525.139 744.069M636.395 632.562L635.406 632.654L636.396 632.568C636.396 632.566 636.395 632.564 636.395 632.562ZM636.395 632.562C644.453 667.645 633.187 693.834 611.637 712.203C590.126 730.538 558.384 741.08 525.394 745.05M525.394 745.05C525.394 745.05 525.395 745.05 525.395 745.05L525.139 744.069M525.394 745.05C500.461 748.133 474.965 749.41 449.191 746.622M525.394 745.05C525.393 745.051 525.393 745.051 525.392 745.051L525.139 744.069M525.139 744.069L449.191 746.622M449.191 746.622C449.191 746.622 449.191 746.622 449.191 746.622L449.17 745.639L449.191 746.622ZM449.191 746.622C443.624 746.021 437.599 745.422 431.225 744.789C403.335 742.019 368.791 738.588 336.98 731.379C317.434 726.95 298.855 721.083 283.437 713.03C268.02 704.978 255.678 694.695 248.752 681.405L248.752 681.404C247.279 678.569 247.012 675.366 247.553 671.972C248.094 668.579 249.455 664.915 251.339 661.094C255.106 653.457 261.057 645.015 267.096 636.608C267.57 635.948 268.045 635.288 268.52 634.628C274.107 626.862 279.638 619.174 283.558 612.137C285.682 608.323 287.313 604.735 288.221 601.463C289.132 598.182 289.294 595.301 288.584 592.864M449.191 746.622L249.646 681.054C244.105 670.389 256.794 652.753 269.383 635.255C281.018 619.084 292.566 603.032 289.558 592.713M288.584 592.864C288.584 592.865 288.584 592.865 288.584 592.866L289.558 592.713M288.584 592.864C288.584 592.864 288.584 592.864 288.584 592.864L289.558 592.713" stroke="#0C6CA2" stroke-opacity="0.1" stroke-width="2" stroke-miterlimit="10"/>
<path d="M762.947 403.375L762.947 403.377C769.754 426.383 757.254 448.201 741.894 464.176C741.894 464.177 741.894 464.177 741.893 464.177L741.111 463.452L762.947 403.375ZM762.947 403.375C755.188 377.299 728.284 356.755 697.979 340.237C676.721 328.65 653.55 318.926 633.771 310.625C625.321 307.078 617.491 303.792 610.692 300.731C603.6 297.526 596.164 294.299 588.531 290.986C574.31 284.814 559.408 278.346 544.786 271.179C522.339 260.177 500.7 247.593 483.499 232.074C477.119 226.255 471.323 220.021 466.319 213.367C458.251 202.468 454.075 191.089 449.845 179.564C449.111 177.565 448.376 175.562 447.618 173.555C442.508 160.021 436.414 146.484 422.921 133.969C409.522 121.522 383.9 110.566 355.142 104.606C326.344 98.6377 294.174 97.6306 267.577 105.276L267.546 105.284M762.947 403.375L267.546 105.284M267.546 105.284L267.517 105.295M267.546 105.284L267.517 105.295M267.517 105.295C267.232 105.399 266.892 105.506 266.526 105.621L266.513 105.625C266.17 105.734 265.803 105.849 265.484 105.965C245.686 111.961 233.942 121.578 224.66 131.284C196.307 160.751 180.749 200.177 200.658 242.212C202.172 245.653 201.005 249.383 197.245 253.708C193.017 258.571 185.898 263.679 177.614 268.925C172.888 271.918 167.841 274.921 162.772 277.937C158.943 280.216 155.103 282.501 151.379 284.795C142.776 290.094 134.858 295.402 129.521 300.59C126.852 303.185 124.785 305.79 123.611 308.394C122.433 311.008 122.13 313.684 123.107 316.35L123.108 316.352M267.517 105.295L123.108 316.352M123.108 316.352C128.219 330.208 137.667 343.5 148.898 356.479C157.498 366.418 167.194 376.227 176.843 385.989C179.789 388.969 182.73 391.945 185.635 394.919C198.079 407.66 209.861 420.376 218.6 433.372C227.331 446.358 232.979 459.558 233.236 473.277L233.236 473.277M123.108 316.352L233.236 473.277M233.236 473.277C233.691 497.153 240.216 519.063 248.269 540.631C250.886 547.641 253.658 554.6 256.437 561.577C262.23 576.12 268.053 590.738 272.562 606.039C273.333 608.675 273.151 611.787 272.157 615.323C271.165 618.851 269.389 622.718 267.079 626.827C262.808 634.423 256.78 642.727 250.693 651.11C250.19 651.804 249.685 652.499 249.182 653.194C242.615 662.252 236.142 671.347 232.03 679.572C229.973 683.687 228.483 687.629 227.878 691.277C227.274 694.925 227.541 698.36 229.101 701.397L229.104 701.401M233.236 473.277L229.104 701.401M229.104 701.401C236.526 715.691 249.818 726.742 266.449 735.388C283.08 744.033 303.139 750.32 324.247 755.051C358.84 762.805 396.425 766.415 426.607 769.313C433.247 769.951 439.529 770.554 445.342 771.16C473.096 774.083 500.539 772.74 527.416 769.592L527.419 769.591M229.104 701.401L527.419 769.591M527.419 769.591C562.866 765.335 597.031 753.999 620.212 734.288M527.419 769.591L620.212 734.288M620.212 734.288C643.432 714.544 655.618 686.395 647.004 648.691M620.212 734.288L647.004 648.691M647.004 648.691C639.085 613.666 634.431 586.127 645.25 560.091L647.004 648.691Z" stroke="#0C6CA2" stroke-opacity="0.1" stroke-width="2" stroke-miterlimit="10"/>
<path d="M249.047 84.4352L249.057 84.4324C249.32 84.3593 249.56 84.2868 249.797 84.2133C249.92 84.1753 250.041 84.1371 250.164 84.0983L250.171 84.0963C250.528 83.9836 250.9 83.8664 251.328 83.7471C279.802 75.6345 314.258 76.6649 345.103 82.9947C375.907 89.3161 403.338 100.971 417.652 114.304C432.057 127.702 438.53 142.191 443.992 156.676C444.762 158.718 445.512 160.758 446.26 162.794C450.831 175.234 455.346 187.522 464.17 199.272C469.716 206.526 475.8 213.156 482.673 219.358L482.054 220.025L482.673 219.358C501.162 236.053 524.373 249.549 548.42 261.31C564.283 269.068 580.449 276.044 595.842 282.686C603.801 286.121 611.554 289.466 618.951 292.784C626.165 296.009 634.465 299.469 643.419 303.202C664.688 312.069 689.651 322.477 712.537 334.92C745.023 352.581 773.81 374.584 782.004 402.577C789.337 427.395 775.775 450.671 759.29 467.699C747.516 479.909 733.949 490.491 720.283 500.966C719.387 501.653 718.49 502.34 717.593 503.027C704.804 512.818 692.025 522.603 680.553 533.664C668.322 545.575 660.409 557.316 655.353 569.34C643.761 597.232 648.546 626.802 657.057 664.031C666.369 704.553 653.384 734.709 628.546 755.829C603.748 776.916 567.151 788.993 529.143 793.54L529.143 793.54C500.565 796.949 470.96 798.365 441.225 795.306L441.224 795.306C434.868 794.644 427.981 793.986 420.69 793.29C388.463 790.21 348.353 786.378 311.408 778.149C288.75 773.103 267.217 766.39 249.376 757.148C231.535 747.907 217.295 736.088 209.375 720.798L249.047 84.4352ZM249.047 84.4352L249.037 84.4383M249.047 84.4352L249.037 84.4383M249.037 84.4383C227.782 90.8884 215.27 101.142 205.437 111.48C175.007 142.85 158.382 184.957 179.682 229.995L179.685 230.002M249.037 84.4383L179.685 230.002M179.685 230.002C181.417 233.6 179.946 237.724 175.969 242.298C171.359 247.48 163.659 252.924 154.725 258.511C149.628 261.699 144.186 264.899 138.725 268.112C134.599 270.538 130.461 272.972 126.452 275.412C117.186 281.051 108.665 286.689 102.915 292.185C100.04 294.933 97.8134 297.686 96.5433 300.431C95.2685 303.186 94.9297 305.999 95.9579 308.797L95.9603 308.804M179.685 230.002L95.9603 308.804M95.9603 308.804C101.506 323.608 111.693 337.802 123.787 351.655M95.9603 308.804L123.787 351.655M123.787 351.655C133.035 362.247 143.448 372.696 153.808 383.091M123.787 351.655L153.808 383.091M153.808 383.091C156.991 386.285 160.17 389.474 163.307 392.661M153.808 383.091L163.307 392.661M163.307 392.661C176.685 406.246 189.344 419.802 198.724 433.654M163.307 392.661L198.724 433.654M198.724 433.654C208.097 447.497 214.15 461.569 214.4 476.2M198.724 433.654L214.4 476.2M214.4 476.2C214.823 501.802 221.785 525.322 230.406 548.47M214.4 476.2L230.406 548.47M230.406 548.47C233.242 556.084 236.251 563.643 239.267 571.221M230.406 548.47L239.267 571.221M239.267 571.221C245.441 586.734 251.646 602.323 256.46 618.616M239.267 571.221L256.46 618.616M256.46 618.616C257.291 621.45 257.085 624.793 256.002 628.585C254.922 632.368 252.994 636.515 250.489 640.92C245.868 649.044 239.356 657.927 232.783 666.895C232.224 667.657 231.665 668.42 231.106 669.183C223.997 678.895 216.996 688.641 212.548 697.456C210.324 701.865 208.714 706.086 208.061 709.99C207.407 713.893 207.697 717.561 209.375 720.798L256.46 618.616Z" stroke="#0C6CA2" stroke-opacity="0.1" stroke-width="2" stroke-miterlimit="10"/>
<path d="M69.2865 301.427C75.2132 317.184 86.1264 332.28 99.0909 347.011C108.994 358.262 120.145 369.357 131.24 380.395C134.664 383.802 138.084 387.204 141.459 390.604C155.798 405.044 169.363 419.457 179.397 434.193C189.423 448.92 195.874 463.902 196.073 479.496L196.073 479.497C196.463 506.828 203.909 531.906 213.144 556.582C216.178 564.688 219.398 572.737 222.627 580.806C229.246 597.349 235.9 613.976 241.046 631.357C241.939 634.391 241.712 637.965 240.546 642.013C239.382 646.052 237.31 650.477 234.62 655.175C229.654 663.851 222.655 673.337 215.596 682.906C215.005 683.707 214.414 684.509 213.823 685.31C206.198 695.661 198.692 706.04 193.925 715.414C191.54 720.103 189.817 724.585 189.117 728.725C188.417 732.864 188.728 736.743 190.52 740.157C198.991 756.442 214.203 769.013 233.264 778.834C252.327 788.656 275.33 795.775 299.535 801.124C338.365 809.705 380.461 813.763 414.586 817.053C422.993 817.863 430.916 818.627 438.187 819.401C469.94 822.797 501.495 821.315 531.987 817.638C572.448 812.805 611.475 799.985 637.947 777.549C664.459 755.078 678.362 722.962 668.478 679.72L668.478 679.718C659.338 640.078 654.458 608.679 666.645 579.14C671.994 566.3 680.45 553.932 693.443 541.386L693.448 541.382L693.453 541.377C705.818 529.031 719.89 518.207 734.023 507.338L735.093 506.514C749.569 495.379 764.061 484.156 776.687 471.207L776.688 471.207L70.2349 301.199M69.2865 301.427L70.2349 301.199M69.2865 301.427C69.2866 301.427 69.2867 301.427 69.2868 301.428L70.2349 301.199M69.2865 301.427C68.1743 298.476 68.5223 295.509 69.8777 292.602C71.2281 289.706 73.6065 286.802 76.6837 283.903C82.8384 278.105 91.974 272.16 101.92 266.207C106.151 263.674 110.519 261.145 114.88 258.621C120.82 255.182 126.746 251.751 132.291 248.331C141.897 242.406 150.192 236.61 155.173 231.059L155.182 231.049L155.191 231.039C159.742 226.281 161.205 221.94 159.386 217.925M70.2349 301.199C65.4344 288.464 90.4669 273.971 115.459 259.501C131.729 250.081 147.981 240.671 155.975 231.763C160.586 226.942 162.389 222.216 160.303 217.622M159.386 217.925C159.387 217.928 159.389 217.931 159.39 217.933L160.303 217.622M159.386 217.925C159.385 217.923 159.384 217.921 159.383 217.918L160.303 217.622M159.386 217.925C136.71 169.889 154.658 125.304 186.903 91.8482L186.903 91.8476C197.492 80.881 210.76 69.9952 233.448 63.0889M160.303 217.622C137.874 170.117 155.552 125.913 187.684 92.5741C198.213 81.6702 211.369 70.8798 233.887 64.0299M233.448 63.0889C233.441 63.0917 233.433 63.0945 233.426 63.0972L233.887 64.0299M233.448 63.0889C233.456 63.0865 233.464 63.0841 233.472 63.0818L233.887 64.0299M233.448 63.0889C234.094 62.8554 234.942 62.6193 235.744 62.3962L235.763 62.3908L236.16 63.3441M233.887 64.0299C234.501 63.8062 235.331 63.5751 236.16 63.3441M236.16 63.3441L235.766 62.3898M236.16 63.3441C296.487 46.2852 382.485 67.6978 412.454 95.68M235.766 62.3898L627.365 285.905M235.766 62.3898C266.118 53.8079 302.871 54.9124 335.771 61.6544C368.63 68.3877 397.876 80.7925 413.102 95.0084M235.766 62.3898L413.102 95.0084M412.454 95.68C429.838 111.769 436.266 129.289 442.721 146.884C447.568 160.095 452.431 173.349 461.959 186.071C467.618 193.788 474.255 200.863 481.688 207.506C514.291 236.99 560.791 257.044 601.956 274.798C610.73 278.582 619.262 282.261 627.365 285.905M412.454 95.68L413.104 95.0102C413.104 95.0097 413.103 95.009 413.102 95.0084M412.454 95.68L413.1 95.0066C413.101 95.0072 413.102 95.0078 413.102 95.0084M627.365 285.905L627.685 285.016C627.684 285.016 627.683 285.015 627.682 285.015L627.365 285.905Z" stroke="#0C6CA2" stroke-opacity="0.1" stroke-width="2" stroke-miterlimit="10"/>
<path d="M678.772 695.26L678.771 695.259C671.785 665.077 667.169 639.474 669.922 615.904C672.671 592.379 682.774 570.804 705.395 548.748C718.436 536.044 733.122 524.848 747.848 513.622C748.543 513.091 749.239 512.561 749.934 512.031C765.34 500.279 780.703 488.417 794.075 474.732C812.994 455.391 828.457 429.21 820.361 401.17C811.225 369.55 778.618 344.63 741.789 324.629C715.738 310.482 687.332 298.675 663.238 288.66C653.235 284.502 643.975 280.653 635.935 277.074C627.347 273.23 618.324 269.354 609.052 265.372C586.881 255.849 563.293 245.717 540.859 233.947C509.058 217.262 479.767 197.375 460.38 171.483L460.379 171.481C450.352 158.125 445.225 144.213 440.048 130.164C439.195 127.85 438.341 125.532 437.464 123.212C431.273 106.848 423.94 90.5111 407.603 75.352C391.23 60.16 359.594 46.8214 324.168 39.7182C288.7 32.6069 249.198 31.6962 216.989 41.5657C192.844 48.9258 178.591 60.4554 167.448 72.0582C133.13 107.414 114.117 154.675 137.926 205.515C139.279 208.427 138.897 211.55 136.93 214.958C134.958 218.375 131.463 221.946 126.871 225.635C117.691 233.011 104.384 240.669 90.9275 248.388L90.4497 248.662C77.1879 256.268 63.8305 263.93 54.3824 271.372C49.6031 275.136 45.7657 278.889 43.4488 282.599C41.1325 286.309 40.2571 290.112 41.691 293.894C47.9897 310.553 59.6112 326.526 73.4276 342.125C83.9604 354.017 95.821 365.748 107.627 377.424C111.303 381.059 114.972 384.689 118.595 388.316C133.885 403.625 148.354 418.915 159.054 434.551C169.747 450.178 176.626 466.084 176.826 482.64L177.773 482.751L176.826 482.64C177.184 511.698 185.067 538.386 194.87 564.642C198.123 573.352 201.579 581.999 205.045 590.667C212.046 608.182 219.082 625.782 224.533 644.156C225.486 647.389 225.238 651.198 223.99 655.507C222.744 659.806 220.528 664.518 217.654 669.519C212.323 678.794 204.803 688.944 197.224 699.172C196.626 699.98 196.027 700.788 195.429 701.596C187.278 712.612 179.252 723.649 174.138 733.601C171.58 738.579 169.727 743.331 168.961 747.712C168.195 752.09 168.502 756.184 170.38 759.775C179.348 777.061 195.522 790.4 215.811 800.816C236.1 811.234 260.598 818.778 286.366 824.441C327.501 833.483 372.048 837.765 408.131 841.234C417.244 842.11 425.818 842.934 433.66 843.77L433.662 843.77C467.611 847.295 501.328 845.739 533.736 841.793C576.633 836.574 618.136 822.959 646.305 799.146C674.514 775.298 689.336 741.222 678.772 695.26Z" stroke="#0C6CA2" stroke-opacity="0.1" stroke-width="2" stroke-miterlimit="10"/>
</svg>
