<svg width="728" height="887" viewBox="0 0 728 887" fill="none" xmlns="http://www.w3.org/2000/svg">
<path d="M222.028 392.483L222.005 392.458L221.98 392.434C220.427 390.973 217.701 389.757 214.79 389.125C211.848 388.487 208.516 388.4 205.691 389.388L205.682 389.392L205.674 389.395C203.703 390.13 202.405 391.271 201.447 392.114L201.425 392.133L201.378 392.174L201.338 392.222C197.505 396.796 196.817 402.326 200.446 407.119C203.637 411.513 203.324 416.02 202.809 421.027C202.79 421.211 202.771 421.395 202.752 421.579C202.258 426.327 201.718 431.518 204.777 436.765C205.174 437.474 205.533 438.407 205.904 439.546C206.148 440.295 206.385 441.093 206.637 441.945C206.771 442.396 206.909 442.861 207.055 443.343C207.884 446.077 208.929 449.186 210.661 452.001C212.409 454.84 214.871 457.406 218.522 459.011C222.153 460.608 226.84 461.205 232.979 460.331C241.578 459.144 245.798 454.367 245.32 449.676C245.253 448.052 244.804 446.407 244.395 444.909C244.267 444.442 244.144 443.989 244.037 443.555C243.567 441.651 243.352 439.944 244.014 438.268C244.481 437.093 245.411 435.9 246.618 434.651C247.477 433.762 248.431 432.89 249.407 431.997C249.804 431.633 250.205 431.266 250.605 430.893C251.963 429.627 253.295 428.304 254.258 426.92C255.216 425.543 255.879 424.009 255.753 422.313C255.631 419.722 253.752 417.583 251.352 415.796C248.929 413.991 245.716 412.351 242.446 410.771C241.726 410.424 241.003 410.079 240.282 409.735C237.686 408.496 235.118 407.271 232.829 405.98C229.886 404.319 227.601 402.653 226.373 400.89C225.649 399.829 225.245 398.728 224.791 397.491C224.723 397.305 224.654 397.115 224.582 396.923C224.048 395.491 223.394 393.922 222.028 392.483Z" stroke="#0C6CA2" stroke-opacity="0.1" stroke-width="2" stroke-miterlimit="10"/>
<path d="M278.13 426.08L278.13 426.08L278.135 426.069C279.617 422.838 280.035 419.399 277.488 415.83L277.483 415.823C276.158 413.994 274.209 412.361 271.954 410.887C269.691 409.409 267.059 408.052 264.308 406.792C260.83 405.201 257.061 403.723 253.556 402.35C251.562 401.568 249.653 400.82 247.932 400.104C247.048 399.727 246.158 399.352 245.268 398.976C242.008 397.603 238.736 396.224 235.694 394.725C231.817 392.815 228.43 390.764 226.024 388.388L226.017 388.381L226.01 388.374C225.09 387.496 224.414 386.601 223.672 385.465L223.667 385.456L223.661 385.448C222.75 384.103 222.201 382.735 221.601 381.241C221.38 380.69 221.152 380.122 220.896 379.531C219.973 377.398 218.752 375.186 216.262 373.197C213.539 370.881 208.488 368.974 202.975 367.984C197.444 366.99 191.22 366.876 185.994 368.316C185.871 368.323 185.681 368.345 185.5 368.422C185.365 368.48 185.246 368.566 185.157 368.639C181.696 369.822 179.374 371.371 177.641 373.121C171.273 379.159 168.882 386.731 173.219 394.18C173.384 394.492 173.465 394.725 173.502 394.935C173.54 395.149 173.541 395.39 173.486 395.721L173.473 395.797L173.473 395.876C173.477 396.914 173.181 398.015 172.692 399.198C172.248 400.272 171.673 401.355 171.074 402.482C171.012 402.598 170.95 402.715 170.888 402.832C170.234 404.065 169.568 405.351 169.106 406.644C168.644 407.937 168.36 409.305 168.527 410.711L168.527 410.713C169.16 415.926 171.504 420.925 173.943 425.806C174.193 426.307 174.444 426.806 174.695 427.305C176.911 431.714 179.092 436.05 180.264 440.582C180.899 443.347 181.912 446.23 183.035 449.209C183.38 450.124 183.735 451.046 184.094 451.978C184.912 454.105 185.751 456.285 186.54 458.55C186.754 459.217 186.704 460.088 186.423 461.198C186.193 462.107 185.841 463.061 185.467 464.073C185.387 464.29 185.306 464.51 185.225 464.732C184.779 465.958 184.334 467.265 184.166 468.524C183.997 469.783 184.084 471.136 184.86 472.372L184.861 472.374C187.634 476.781 193.265 479.744 199.618 481.715C206.03 483.704 213.452 484.767 220.158 485.197L220.167 485.198L220.176 485.198C224.76 485.415 229.543 485.214 234.526 484.598C242.044 483.669 248.321 481.354 252.566 478.037C256.814 474.719 259.096 470.33 258.36 465.306C258.14 463.66 257.803 462.065 257.472 460.54C257.442 460.405 257.413 460.271 257.384 460.137C257.081 458.746 256.792 457.42 256.592 456.119C256.158 453.287 256.166 450.675 257.388 448.118L257.401 448.091L257.412 448.063C258.3 445.799 260.281 443.602 262.932 441.287L262.939 441.281L262.946 441.275C264.378 439.967 265.873 438.705 267.36 437.458C267.49 437.348 267.62 437.239 267.75 437.13C269.1 435.998 270.438 434.876 271.689 433.757C274.418 431.316 276.829 428.81 278.13 426.08Z" stroke="#0C6CA2" stroke-opacity="0.1" stroke-width="2" stroke-miterlimit="10"/>
<path d="M300.525 429.362L300.528 429.359C303.479 425.15 305.498 420.217 302.342 414.74C300.765 411.898 298.062 409.403 294.79 407.189C291.506 404.967 287.567 402.974 283.417 401.163C277.922 398.765 271.937 396.637 266.53 394.716C263.811 393.749 261.238 392.835 258.948 391.964C257.795 391.518 256.626 391.07 255.446 390.619C250.572 388.752 245.518 386.816 240.719 384.673C234.755 382.01 229.276 379.066 225.114 375.614L225.107 375.608C223.555 374.34 222.217 372.859 221.164 371.535C219.526 369.355 218.586 367.15 217.594 364.822C217.314 364.166 217.03 363.499 216.724 362.821C215.353 359.771 213.614 356.668 209.972 353.815C208.011 352.207 205.183 350.764 201.881 349.561C198.557 348.35 194.683 347.357 190.586 346.683C182.443 345.344 173.318 345.25 165.789 347.292C165.659 347.299 165.462 347.315 165.289 347.366C165.168 347.402 164.965 347.478 164.795 347.658C159.526 349.322 156.231 351.5 153.531 353.851L153.522 353.859C144.687 361.785 140.438 372.063 146.443 382.523C146.719 383.154 146.689 383.872 146.357 384.769L146.353 384.779L146.35 384.789C145.896 386.11 144.858 387.559 143.48 389.125C142.528 390.206 141.463 391.292 140.376 392.399C139.893 392.892 139.406 393.388 138.923 393.89C137.377 395.497 135.885 397.15 134.864 398.791C133.857 400.411 133.204 402.182 133.614 404.001C135.116 410.867 139.945 417.312 144.592 423.514C144.807 423.801 145.021 424.087 145.235 424.372C150.158 430.953 154.71 437.287 155.634 443.996L155.635 444.004C156.296 448.538 157.814 453.009 159.571 457.526C160.191 459.122 160.838 460.714 161.489 462.319C162.698 465.295 163.923 468.313 165.03 471.468C165.348 472.426 165.097 473.772 164.308 475.527C163.618 477.06 162.613 478.709 161.571 480.42C161.449 480.621 161.326 480.822 161.203 481.025C160.053 482.918 158.894 484.882 158.234 486.714C157.588 488.505 157.31 490.46 158.367 492.173L158.374 492.183L158.38 492.194C160.477 495.435 163.864 498.026 167.951 500.112C172.044 502.201 176.924 503.826 182.12 505.1C192.51 507.647 204.327 508.827 214.019 509.434C221.234 509.951 228.808 509.428 236.283 508.711L236.294 508.71L236.304 508.709C247.016 507.446 256.345 504.351 262.754 499.631C269.176 494.902 272.731 488.48 271.633 480.63L271.632 480.625C271.321 478.478 270.882 476.389 270.461 474.381L270.433 474.247C270 472.186 269.59 470.214 269.333 468.287C268.823 464.456 268.932 460.874 270.691 457.378C272.336 454.381 274.801 451.331 278.408 448.416L278.415 448.411L278.421 448.406C280.907 446.315 283.531 444.336 286.134 442.373C287.621 441.251 289.102 440.135 290.545 439.006C294.473 435.934 298.089 432.796 300.525 429.362Z" stroke="#0C6CA2" stroke-opacity="0.1" stroke-width="2" stroke-miterlimit="10"/>
<path d="M322.966 432.577L322.962 432.581C319.393 436.748 314.561 440.532 309.507 444.232C308.266 445.14 307.012 446.043 305.758 446.946C301.879 449.74 298 452.533 294.503 455.487L294.49 455.498L294.476 455.509C289.59 459.3 286.399 462.992 284.345 466.799C280.278 474.402 281.991 482.298 284.005 491.587C284.308 492.986 284.618 494.416 284.917 495.881C284.917 495.882 284.917 495.883 284.917 495.884L283.922 495.95C288.088 516.193 265.738 528.446 238.106 531.62L322.966 432.577ZM322.966 432.577C327.398 427.33 330.898 420.729 327.505 413.794L327.501 413.786C325.622 410.018 322.155 406.702 317.864 403.758C313.563 400.808 308.343 398.17 302.83 395.781C295.589 392.644 287.711 389.887 280.658 387.419C277.014 386.143 273.589 384.945 270.588 383.811C268.095 382.869 265.527 381.93 262.922 380.978C257.418 378.966 251.751 376.894 246.287 374.608C238.244 371.242 230.784 367.468 225.149 362.869L225.131 362.854L225.113 362.841C222.948 361.204 221.269 359.349 219.513 357.401C217.164 354.481 215.889 351.488 214.55 348.347C214.215 347.561 213.876 346.766 213.515 345.96C211.723 341.959 209.455 337.903 204.507 334.187C201.916 332.209 198.195 330.414 193.826 328.904C189.44 327.388 184.335 326.137 178.931 325.278C168.161 323.565 156.108 323.393 146.102 325.847C145.966 325.863 145.851 325.894 145.762 325.923C145.651 325.959 145.549 326.004 145.49 326.029C145.429 326.055 145.399 326.067 145.378 326.075L145.313 326.077L145.213 326.104C137.785 328.065 133.133 331.158 129.637 334.198C118.068 344.259 112.234 357.059 119.93 370.336L119.946 370.363L119.964 370.39C120.138 370.655 120.21 371.013 120.107 371.58C120.005 372.147 119.758 372.764 119.463 373.485C118.517 375.147 116.726 376.939 114.498 378.836C113.068 380.054 111.511 381.274 109.934 382.509C109.035 383.214 108.129 383.923 107.238 384.64C104.815 386.587 102.516 388.573 100.937 390.537C99.3888 392.463 98.3452 394.594 98.9171 396.806L98.9191 396.814L98.9213 396.822C100.17 401.359 102.777 405.708 105.941 409.921C108.656 413.536 111.826 417.108 114.962 420.64C115.476 421.219 115.99 421.797 116.5 422.375C120.142 426.494 123.634 430.57 126.329 434.714C129.019 438.852 130.875 442.998 131.297 447.253L131.298 447.263C131.983 453.543 134.069 459.581 136.529 465.647C137.346 467.66 138.2 469.668 139.059 471.69C140.807 475.8 142.579 479.966 144.112 484.352C144.322 484.976 144.329 485.753 144.092 486.71C143.856 487.665 143.395 488.727 142.762 489.88C141.623 491.955 139.999 494.198 138.329 496.506C138.137 496.772 137.944 497.038 137.751 497.305C135.908 499.86 134.066 502.483 132.965 504.904C131.894 507.263 131.356 509.792 132.744 511.957C135.458 516.214 140.069 519.555 145.698 522.208C151.34 524.866 158.114 526.884 165.305 528.44C179.689 531.552 195.921 532.852 208.471 533.643L208.471 533.643C218.238 534.254 228.376 533.83 238.358 532.602L322.966 432.577Z" stroke="#0C6CA2" stroke-opacity="0.1" stroke-width="2" stroke-miterlimit="10"/>
<path d="M345.386 435.775L345.392 435.769C348.39 432.577 351.096 428.989 352.57 425.117C354.051 421.23 354.306 417.008 352.313 412.631C350.202 407.935 345.99 403.801 340.671 400.134C335.341 396.46 328.797 393.184 321.871 390.233C312.677 386.317 302.668 382.918 293.827 379.916C289.388 378.409 285.243 377.001 281.644 375.679L281.639 375.677C278.874 374.675 276.022 373.666 273.118 372.64C265.995 370.123 258.569 367.499 251.4 364.591C241.31 360.498 231.849 355.889 224.621 350.33L224.606 350.319L224.591 350.308C221.769 348.272 219.45 346.016 217.356 343.538L217.35 343.531L217.344 343.524C214.056 339.749 212.368 335.834 210.607 331.75C210.262 330.95 209.914 330.143 209.551 329.33C207.346 324.391 204.626 319.385 198.523 314.799C195.355 312.387 190.782 310.197 185.379 308.357C179.957 306.51 173.634 304.993 166.922 303.96C153.534 301.9 138.508 301.752 125.921 304.819C125.786 304.835 125.673 304.866 125.589 304.891C125.501 304.919 125.376 304.965 125.332 304.98C125.209 305.022 125.104 305.051 124.956 305.057L124.85 305.062L124.751 305.088C115.432 307.532 109.76 311.271 105.523 314.952C91.1856 326.947 83.8353 342.438 93.1855 358.688C93.7252 359.711 93.448 360.717 92.3572 362.607C90.985 364.607 88.4437 366.762 85.3352 369.03C83.4077 370.437 81.3177 371.849 79.2074 373.275C77.9039 374.156 76.5926 375.042 75.3072 375.935C71.9776 378.249 68.8444 380.596 66.7057 382.903C64.6234 385.149 63.2091 387.647 64.0263 390.238C65.7385 395.734 69.2645 400.976 73.5214 406.046C77.0467 410.244 81.1289 414.386 85.1715 418.487C86.0073 419.335 86.8414 420.182 87.6685 421.026C92.5215 425.982 97.1457 430.894 100.642 435.903C104.133 440.904 106.449 445.93 106.768 451.12L106.769 451.129C107.352 459.261 110.016 466.915 113.175 474.502C114.151 476.848 115.171 479.179 116.193 481.516C118.498 486.785 120.816 492.083 122.681 497.648L122.684 497.655C122.959 498.457 122.94 499.453 122.587 500.671C122.236 501.882 121.579 503.227 120.693 504.68C119.078 507.328 116.787 510.206 114.444 513.148C114.21 513.443 113.975 513.738 113.74 514.033C111.184 517.251 108.636 520.531 107.059 523.543C106.27 525.051 105.696 526.543 105.503 527.97C105.309 529.406 105.495 530.839 106.308 532.147L106.308 532.147L106.313 532.155C109.639 537.418 115.463 541.497 122.638 544.702C129.828 547.915 138.505 550.308 147.709 552.134C166.077 555.778 186.747 557.198 202.299 558.266L202.395 558.273C202.396 558.273 202.397 558.273 202.398 558.273C214.786 559.182 227.428 558.449 239.922 557.118L239.928 557.117C257.177 555.179 273.089 550.447 283.996 542.909C294.921 535.361 300.931 524.903 297.974 511.59C297.772 510.671 297.569 509.763 297.369 508.867C294.621 496.556 292.341 486.338 297.49 476.632C299.96 472.008 303.882 467.676 309.768 463.02L309.776 463.014L309.783 463.008C314.497 459.101 319.731 455.478 324.938 451.874C326.078 451.084 327.218 450.296 328.35 449.505C334.627 445.123 340.682 440.685 345.386 435.775Z" stroke="#0C6CA2" stroke-opacity="0.1" stroke-width="2" stroke-miterlimit="10"/>
<path d="M367.858 438.954L367.852 438.96C362.011 444.619 354.802 449.708 347.358 454.724C345.952 455.671 344.538 456.616 343.122 457.562C337.023 461.636 330.898 465.726 325.29 470.129L325.283 470.135C318.388 475.434 313.759 480.608 310.83 485.87C304.294 498.025 307.239 510.734 310.87 526.4L310.988 526.909L310.988 526.91M367.858 438.954L241.452 580.046C282.187 575.516 317.229 558.069 309.998 527.003L310.988 526.91M367.858 438.954C371.737 435.117 375.171 430.843 377.126 426.274C379.088 421.69 379.583 416.749 377.47 411.656L377.465 411.645C375.044 405.991 370.077 401.021 363.736 396.62C357.385 392.212 349.555 388.304 341.251 384.802C329.954 380.037 317.64 375.968 306.867 372.408C301.837 370.746 297.142 369.195 293.044 367.735M367.858 438.954L293.044 367.735M310.988 526.91C314.718 542.938 307.492 555.377 294.364 564.31C281.255 573.231 262.149 578.754 241.697 581.028L241.695 581.028C226.696 582.667 211.52 583.505 196.565 582.5M310.988 526.91L196.565 582.5M196.565 582.5C196.566 582.5 196.567 582.5 196.568 582.5L196.499 581.513L196.563 582.5C196.564 582.5 196.565 582.5 196.565 582.5ZM196.565 582.5C196.08 582.47 195.591 582.439 195.097 582.408C176.831 581.266 152.499 579.745 130.719 575.659C119.533 573.561 108.97 570.779 100.219 566.999C91.4858 563.227 84.4216 558.402 80.4174 552.148L80.41 552.137L80.403 552.125C79.4779 550.603 79.3108 548.928 79.6031 547.238C79.8941 545.556 80.6507 543.785 81.6772 541.982C83.7287 538.378 86.9828 534.437 90.2533 530.556C90.5289 530.229 90.8047 529.902 91.08 529.576C94.0972 526.001 97.0574 522.494 99.1507 519.276C100.291 517.522 101.147 515.894 101.615 514.426C102.084 512.95 102.132 511.732 101.793 510.745M196.565 582.5L102.751 510.543M101.793 510.745C101.793 510.746 101.793 510.747 101.794 510.748L102.751 510.543M101.793 510.745C101.792 510.744 101.792 510.743 101.792 510.742L102.751 510.543M101.793 510.745C99.5283 504.307 96.7767 498.193 94.0485 492.132C92.6512 489.028 91.2601 485.937 89.9436 482.823C86.0808 473.686 82.9235 464.473 82.4589 454.602M102.751 510.543C100.472 504.062 97.6849 497.869 94.9443 491.78C89.4193 479.503 84.0822 467.643 83.4733 454.683M82.4589 454.602C82.459 454.603 82.4591 454.605 82.4592 454.606L83.4733 454.683M82.4589 454.602C82.1175 448.521 79.2721 442.642 74.9492 436.8C70.6201 430.95 64.8697 425.216 58.8233 419.435C57.7259 418.385 56.6184 417.334 55.5086 416.281C50.5311 411.556 45.5071 406.787 41.1382 401.945C35.7943 396.022 31.3399 389.894 29.0964 383.454M82.4589 454.602C82.4588 454.601 82.4588 454.599 82.4587 454.598L83.4733 454.683M83.4733 454.683L29.0964 383.454M29.0964 383.454C29.0971 383.455 29.0977 383.457 29.0983 383.459L30.0529 383.247L29.0948 383.449C29.0953 383.451 29.0959 383.452 29.0964 383.454ZM29.0964 383.454C28.5663 381.973 28.7548 380.512 29.3719 379.135C29.9857 377.765 31.0493 376.414 32.3871 375.09C35.0621 372.443 39.0027 369.742 43.2267 367.074C45.0497 365.922 46.9156 364.782 48.7683 363.651C51.2571 362.131 53.722 360.625 56.0268 359.125C60.0404 356.513 63.3895 354.026 65.2731 351.726L65.2848 351.712L65.2971 351.698C67.0937 349.696 67.3202 348.252 66.7316 347.032M29.0964 383.454L106.327 284.755M66.7316 347.032C66.7382 347.043 66.7449 347.055 66.7516 347.067L67.6215 346.672L66.7168 347.002C66.7218 347.012 66.7267 347.022 66.7316 347.032ZM66.7316 347.032C55.7558 328 64.8808 309.6 81.7023 295.688L81.7036 295.687C86.9506 291.365 93.6377 286.974 104.861 284.045L104.96 284.019L105.05 284.015M105.05 284.015C105.049 284.015 105.049 284.015 105.049 284.015C105.049 284.015 105.055 284.015 105.065 284.014L105.05 284.015ZM105.05 284.015C105.056 284.014 105.079 284.01 105.123 283.999C105.192 283.982 105.273 283.959 105.378 283.928L105.385 283.926C105.48 283.898 105.598 283.864 105.712 283.836C105.794 283.815 105.907 283.79 106.032 283.776M106.032 283.776C106.009 283.782 105.985 283.788 105.961 283.794L106.327 284.755M106.032 283.776C106.071 283.772 106.111 283.769 106.151 283.767L106.327 284.755M106.032 283.776C121.066 280.1 139.078 280.277 155.121 282.708C163.16 283.926 170.729 285.714 177.204 287.881C183.664 290.042 189.103 292.601 192.837 295.395C200.248 300.941 203.502 306.94 206.13 312.854C206.554 313.808 206.96 314.754 207.364 315.694C209.47 320.602 211.492 325.315 215.514 329.835L215.522 329.845L215.53 329.854C217.959 332.702 220.915 335.351 224.139 337.81M106.327 284.755C136.11 277.443 177.941 285.414 192.288 296.149C200.603 302.371 203.513 309.159 206.417 315.931C208.522 320.844 210.625 325.748 214.784 330.424C217.285 333.355 220.31 336.062 223.581 338.557M224.139 337.81C224.138 337.809 224.137 337.808 224.136 337.807L223.581 338.557M224.139 337.81C232.988 344.516 244.508 349.952 256.709 354.743C264.639 357.857 272.79 360.675 280.647 363.391C284.892 364.859 289.052 366.296 293.044 367.735M224.139 337.81L223.581 338.557M223.581 338.557L293.044 367.735" stroke="#0C6CA2" stroke-opacity="0.1" stroke-width="2" stroke-miterlimit="10"/>
<path d="M390.351 442.14L390.353 442.138C394.983 437.768 399.226 432.856 401.728 427.559C404.236 422.249 405.025 416.478 402.606 410.469L402.606 410.468C399.954 403.9 394.268 398.116 386.927 392.991C379.575 387.858 370.457 383.312 360.774 379.246C347.474 373.66 332.963 368.923 320.372 364.813C314.662 362.949 309.347 361.215 304.718 359.588L304.714 359.586C300.847 358.242 296.849 356.89 292.774 355.512C282.827 352.147 272.418 348.626 262.331 344.692C248.115 339.148 234.656 332.826 224.196 325.064L224.192 325.061C220.342 322.228 216.718 319.002 213.937 315.764L213.93 315.756L213.922 315.747C209.144 310.39 206.726 304.822 204.238 299.092C203.77 298.015 203.299 296.931 202.81 295.843C199.73 288.986 195.962 282.094 187.418 275.784C183.109 272.558 176.8 269.604 169.285 267.11C161.751 264.611 152.937 262.552 143.569 261.148C124.874 258.346 103.883 258.141 86.3891 262.322C86.041 262.348 85.7802 262.424 85.5941 262.479L85.5789 262.483C85.3803 262.541 85.2758 262.569 85.125 262.575L85.0205 262.58L84.9219 262.605C71.7982 266.019 64.0946 271.06 57.8357 276.025L57.8303 276.029L57.825 276.034C48.013 284.086 40.4703 293.315 36.9452 303.268C33.4089 313.251 33.9227 323.957 40.2216 334.83L40.2277 334.841L40.2341 334.851C40.6308 335.504 40.7075 336.252 40.3996 337.173C40.0842 338.116 39.3854 339.162 38.3542 340.282L38.3502 340.287C35.957 342.924 31.8323 345.766 26.9513 348.735C24.1352 350.447 21.1233 352.17 18.0883 353.906C15.8571 355.183 13.6135 356.466 11.426 357.758C6.30834 360.78 1.5454 363.822 -1.71865 366.782C-3.35 368.261 -4.6523 369.76 -5.42853 371.269C-6.2075 372.783 -6.49686 374.392 -5.93874 376.025L-5.93485 376.036L-5.93071 376.048C-3.23774 383.393 2.12594 390.387 8.56187 397.16C13.7171 402.585 19.6264 407.934 25.4916 413.242C26.9473 414.56 28.4003 415.875 29.8384 417.188C37.1 423.819 43.992 430.411 49.1314 437.146C54.2646 443.874 57.5816 450.658 57.8178 457.69C58.1628 469.301 61.8942 480.124 66.4591 490.805C67.944 494.28 69.5106 497.727 71.0803 501.181C74.3621 508.403 77.6578 515.654 80.2499 523.251L80.2516 523.256C80.6582 524.43 80.577 525.875 79.9822 527.612C79.3908 529.339 78.3274 531.25 76.9234 533.304C74.3788 537.028 70.8127 541.086 67.1832 545.216C66.8034 545.649 66.423 546.082 66.0429 546.515C62.0576 551.06 58.1128 555.664 55.6377 559.863C54.3997 561.963 53.4952 564.018 53.1559 565.96C52.8148 567.912 53.034 569.829 54.15 571.553C58.7621 578.804 67.0508 584.375 77.3536 588.716C87.6788 593.066 100.175 596.243 113.397 598.624C138.051 603.063 165.41 604.762 186.25 606.056C187.762 606.15 189.239 606.242 190.678 606.332L190.678 606.332C208.201 607.433 226.19 606.479 243.442 604.746L243.452 604.745C267.108 602.135 289.408 595.821 304.754 585.515C320.119 575.197 328.628 560.776 324.271 542.033L324.269 542.025C319.874 523.728 316.47 509.063 324.196 495.108L324.197 495.105C327.546 489.014 332.876 483.001 340.786 477.053L340.792 477.049C347.358 472.017 354.619 467.373 361.868 462.736C363.37 461.775 364.872 460.815 366.367 459.851C375.055 454.251 383.506 448.552 390.351 442.14ZM243.209 603.763L243.208 603.763L243.209 603.763Z" stroke="#0C6CA2" stroke-opacity="0.1" stroke-width="2" stroke-miterlimit="10"/>
<path d="M412.782 445.31L412.786 445.306C418.173 440.396 423.144 434.797 426.12 428.773C429.098 422.743 430.117 416.201 427.431 409.482C424.54 401.955 418.135 395.348 409.792 389.507C401.437 383.656 391.028 378.498 379.955 373.894C364.991 367.671 348.66 362.404 334.416 357.809C327.615 355.615 321.29 353.575 315.816 351.658L315.814 351.657C311.069 350.007 306.144 348.348 301.117 346.655C290.12 342.951 278.633 339.083 267.468 334.778C251.207 328.507 235.754 321.354 223.688 312.541L223.679 312.535C219.213 309.335 215.227 305.716 211.758 301.874C206.252 295.778 203.5 289.421 200.673 282.892C200.143 281.668 199.61 280.438 199.057 279.203C195.558 271.399 191.266 263.564 181.433 256.395C176.549 252.736 169.371 249.388 160.802 246.565C152.212 243.736 142.153 241.412 131.46 239.835C110.085 236.683 86.0832 236.504 66.1286 241.314L66.0543 241.332L65.9853 241.361C65.8082 241.437 65.6162 241.483 65.3334 241.547L65.3093 241.553C65.0691 241.607 64.7576 241.678 64.4432 241.804C49.6952 245.491 40.74 251.39 33.7544 256.987L33.7489 256.991C22.6909 266.007 14.0786 276.395 10.0028 287.636C5.91727 298.903 6.39562 311.026 13.5195 323.383C14.4381 325.117 13.8852 327.157 11.2805 329.645L11.2641 329.661L11.2486 329.677C8.42967 332.686 3.55836 335.89 -2.19487 339.212C-5.57797 341.165 -9.2099 343.129 -12.863 345.105C-15.4234 346.489 -17.9943 347.88 -20.4971 349.276C-26.5275 352.64 -32.127 356.019 -35.9485 359.318C-37.858 360.967 -39.3735 362.637 -40.267 364.321C-41.1646 366.013 -41.4769 367.808 -40.802 369.629L-40.7989 369.637C-37.6495 377.93 -31.3947 385.814 -23.8879 393.447C-17.9073 399.528 -11.0623 405.517 -4.265 411.464C-2.53108 412.981 -0.800259 414.496 0.912323 416.008C9.36938 423.477 17.3922 430.908 23.3535 438.515C29.3079 446.113 33.1318 453.793 33.3305 461.777C33.5572 475.125 37.852 487.501 43.1536 499.725C44.8622 503.665 46.6685 507.576 48.4798 511.497C52.3166 519.804 56.1758 528.16 59.1767 536.94L59.1785 536.946C59.6533 538.312 59.54 539.988 58.8271 541.989C58.1182 543.978 56.8559 546.179 55.1985 548.539C52.1407 552.893 47.8409 557.652 43.4851 562.473C43.1159 562.881 42.7464 563.29 42.3771 563.7C37.6781 568.908 33.0265 574.159 30.0712 578.912C28.5935 581.289 27.5033 583.597 27.0612 585.76C26.6174 587.932 26.81 590.053 28.0358 591.943C33.3231 600.182 42.8464 606.487 54.706 611.384C66.5883 616.289 80.9687 619.844 96.1703 622.496C122.918 627.164 152.377 629.066 175.53 630.562C178.692 630.766 181.736 630.962 184.64 631.157C204.773 632.555 225.301 631.496 245.304 629.243C272.162 626.297 297.715 619.138 315.287 607.397C332.876 595.645 342.59 579.195 337.322 557.746C332.495 537.034 328.767 520.56 337.609 504.935L337.612 504.929L337.616 504.923C341.381 498.011 347.445 491.357 356.348 484.55L356.354 484.546C364.182 478.461 372.925 472.922 381.646 467.395C382.847 466.634 384.047 465.874 385.245 465.112C395.12 458.831 404.798 452.474 412.782 445.31Z" stroke="#0C6CA2" stroke-opacity="0.1" stroke-width="2" stroke-miterlimit="10"/>
<path d="M452.256 408.307L452.254 408.302C449.061 399.87 441.907 392.453 432.545 385.888C423.173 379.316 411.479 373.52 399.027 368.351C381.857 361.224 363.097 355.235 346.858 350.05C339.574 347.724 332.797 345.561 326.899 343.529L326.897 343.528C321.535 341.693 315.953 339.845 310.246 337.956C297.936 333.88 285.038 329.61 272.48 324.847C254.108 317.878 236.593 309.897 222.921 300.036C217.742 296.226 213.168 292.427 209.369 288.221L209.365 288.216C203.061 281.305 199.922 274.073 196.707 266.664C196.147 265.374 195.584 264.079 195.003 262.779C191.089 254.033 186.346 245.253 175.503 237.21L175.497 237.205C169.98 233.17 161.923 229.453 152.303 226.306C142.667 223.153 131.397 220.549 119.409 218.773C95.4438 215.221 68.5186 214.962 45.9608 220.284L45.8841 220.302L45.8131 220.333C45.636 220.408 45.4438 220.454 45.1609 220.519L45.1365 220.524C44.8962 220.579 44.5846 220.65 44.2702 220.775C27.6233 224.947 17.65 231.496 9.65034 237.738L9.64162 237.745C-2.8057 247.732 -12.49 259.28 -17.0819 271.812C-21.6856 284.375 -21.164 297.923 -13.1983 311.772L-13.1889 311.789L-13.1789 311.805C-12.6028 312.735 -12.5412 313.717 -13.0006 314.888C-13.4739 316.095 -14.4724 317.411 -15.8838 318.865C-19.2134 322.206 -24.875 325.762 -31.5112 329.439C-35.3799 331.583 -39.5243 333.74 -43.6879 335.907C-46.672 337.46 -49.6659 339.017 -52.5753 340.58C-59.4998 344.298 -65.9066 348.02 -70.2659 351.634C-72.4435 353.439 -74.1639 355.26 -75.1716 357.089C-76.1838 358.926 -76.5273 360.871 -75.7412 362.835C-72.0734 372.02 -64.8808 380.764 -56.2714 389.242C-49.521 395.889 -41.8278 402.44 -34.1831 408.949C-32.0772 410.742 -29.975 412.532 -27.8973 414.32C-18.2445 422.627 -9.10754 430.899 -2.3611 439.364C4.37935 447.823 8.65458 456.377 8.73723 465.269C8.84497 480.349 13.6398 494.331 19.6089 508.103C21.5936 512.682 23.6999 517.222 25.8101 521.771C30.0762 530.967 34.3583 540.198 37.6836 549.851L37.6849 549.855C38.2283 551.414 38.0814 553.319 37.2494 555.579C36.422 557.826 34.9595 560.31 33.0475 562.969C29.5087 567.892 24.5361 573.278 19.5042 578.728C19.0957 579.171 18.6869 579.614 18.2784 580.057C12.8644 585.929 7.50682 591.842 4.07706 597.19C2.36229 599.863 1.09215 602.451 0.554651 604.869C0.0155009 607.295 0.19411 609.651 1.52824 611.747L1.52889 611.748C7.42084 620.984 18.1484 628.039 31.5604 633.507C44.9953 638.985 61.2825 642.935 78.5034 645.871C108.341 650.959 141.148 653.028 167.056 654.662C171.051 654.914 174.883 655.155 178.514 655.396L178.515 655.396C201.217 656.89 224.28 655.725 246.786 653.165C276.847 649.883 305.593 641.933 325.402 628.807C345.229 615.668 356.224 597.237 350.328 573.072C344.829 550.18 341.013 531.662 350.666 514.171C354.889 506.625 361.656 499.132 371.848 491.669L371.857 491.662C380.505 485.149 390.033 479.195 399.536 473.257C401.098 472.281 402.658 471.306 404.214 470.329C415.219 463.417 425.984 456.409 434.967 448.496C441.254 443.039 446.964 436.801 450.414 430.047C453.87 423.285 455.095 415.927 452.256 408.307Z" stroke="#0C6CA2" stroke-opacity="0.1" stroke-width="2" stroke-miterlimit="10"/>
<path d="M26.2892 199.252L26.3647 199.234C51.2283 193.308 81.0597 193.548 107.641 197.447C120.937 199.397 133.444 202.266 144.132 205.749C154.804 209.227 163.732 213.339 169.823 217.808C181.957 226.71 187.225 236.434 191.557 246.129C192.204 247.577 192.829 249.021 193.452 250.458C197.004 258.661 200.476 266.679 207.501 274.325C211.964 278.944 216.945 283.341 222.724 287.505C238.004 298.417 257.512 307.228 277.931 314.924C291.575 320.067 305.565 324.691 318.938 329.11C325.587 331.308 332.084 333.455 338.31 335.59C344.809 337.815 352.298 340.186 360.359 342.739C378.349 348.436 399.192 355.037 418.267 362.927C432.095 368.647 445.074 375.075 455.448 382.38C465.809 389.677 473.68 397.927 477.113 407.315C480.224 415.643 478.772 423.775 474.845 431.262C470.921 438.743 464.484 445.669 457.44 451.665L26.2892 199.252ZM26.2892 199.252L26.2192 199.282M26.2892 199.252L26.2192 199.282M26.2192 199.282C26.0646 199.348 25.8316 199.396 25.4599 199.467L25.4177 199.475C25.1281 199.529 24.736 199.603 24.3964 199.736C5.85392 204.39 -5.41976 211.599 -14.166 218.488L-14.171 218.492M26.2192 199.282L-14.171 218.492M-14.171 218.492C-27.9875 229.549 -38.7328 242.307 -43.8446 256.102C-48.9682 269.929 -48.4265 284.797 -39.6601 299.936L-39.6565 299.942M-14.171 218.492L-39.6565 299.942M-39.6565 299.942C-39.0409 300.99 -38.9613 302.139 -39.4654 303.462C-39.9801 304.812 -41.0867 306.281 -42.7427 307.831L-42.749 307.837M-39.6565 299.942L-42.749 307.837M-42.749 307.837C-46.5881 311.509 -53.0271 315.406 -60.5315 319.425C-64.8652 321.746 -69.4988 324.081 -74.1516 326.425C-77.5608 328.142 -80.9802 329.865 -84.2995 331.591C-92.1029 335.65 -99.3093 339.709 -104.218 343.648C-106.669 345.616 -108.603 347.597 -109.741 349.582C-110.882 351.574 -111.278 353.679 -110.425 355.802L-110.424 355.806M-42.749 307.837L-110.424 355.806M-110.424 355.806C-106.301 365.939 -98.2187 375.572 -88.5375 384.912C-80.9598 392.222 -72.3284 399.419 -63.749 406.573C-61.3668 408.56 -58.9887 410.543 -56.6382 412.524C-45.7894 421.669 -35.5199 430.781 -27.9501 440.119C-20.3868 449.448 -15.6015 458.901 -15.5573 468.75C-15.5497 485.665 -10.1929 501.199 -3.49079 516.489C-1.28468 521.522 1.05881 526.513 3.40827 531.517C8.22616 541.778 13.0692 552.093 16.8041 562.932L16.8055 562.936M-110.424 355.806L16.8055 562.936M16.8055 562.936C17.4182 564.691 17.2367 566.826 16.2861 569.344M16.8055 562.936L16.2861 569.344M16.2861 569.344C15.3404 571.85 13.6785 574.616 11.5139 577.575M16.2861 569.344L11.5139 577.575M11.5139 577.575C7.52244 583.031 1.92913 589.004 -3.72848 595.045M11.5139 577.575L-3.72848 595.045M-3.72848 595.045C-4.20978 595.559 -4.69154 596.073 -5.17281 596.588M-3.72848 595.045L-5.17281 596.588M-5.17281 596.588C-11.2842 603.122 -17.3221 609.697 -21.1872 615.64M-5.17281 596.588L-21.1872 615.64M-21.1872 615.64C-23.1195 618.611 -24.5469 621.48 -25.1515 624.155M-21.1872 615.64L-25.1515 624.155M-25.1515 624.155C-25.7576 626.836 -25.5569 629.426 -24.0787 631.721L-25.1515 624.155Z" stroke="#0C6CA2" stroke-opacity="0.1" stroke-width="2" stroke-miterlimit="10"/>
<path d="M502.222 406.129L502.221 406.128C498.558 395.828 489.952 386.767 478.564 378.744C467.165 370.714 452.865 363.644 437.623 357.349C416.83 348.762 394.126 341.56 374.502 335.335C365.39 332.444 356.942 329.764 349.658 327.254L349.652 327.252C342.924 324.971 335.893 322.675 328.689 320.323C313.897 315.492 298.375 310.424 283.239 304.758C260.74 296.337 239.232 286.647 222.472 274.581L222.465 274.576C216.035 270.021 210.44 265.255 205.899 260.07L205.888 260.058L205.876 260.046C198.087 251.627 194.228 242.782 190.286 233.747C189.608 232.194 188.928 230.635 188.225 229.071C183.441 218.434 177.651 207.769 164.371 198.003C157.705 193.101 147.907 188.594 136.179 184.783C124.434 180.966 110.682 177.826 96.0591 175.691C66.823 171.421 34.0091 171.152 6.68426 177.585L6.66014 177.591L6.63649 177.598C6.28098 177.702 5.97938 177.76 5.63634 177.825L5.62599 177.827C5.29138 177.89 4.91702 177.961 4.47755 178.089C-15.9901 183.226 -28.2947 191.092 -37.7883 198.628L-37.7899 198.63C-52.8524 210.651 -64.6671 224.568 -70.3291 239.652C-76.0014 254.762 -75.4939 271.046 -65.9034 287.668C-65.2397 288.917 -65.2006 290.226 -65.8108 291.702C-66.4367 293.216 -67.7286 294.85 -69.6374 296.62L-69.6396 296.622C-73.9167 300.618 -81.1084 304.864 -89.4845 309.243C-94.3089 311.766 -99.4704 314.305 -104.653 316.855C-108.473 318.734 -112.305 320.619 -116.021 322.507C-124.734 326.933 -132.771 331.355 -138.233 335.64C-140.962 337.78 -143.106 339.929 -144.36 342.078C-145.618 344.233 -146.041 346.502 -145.081 348.783C-140.503 359.862 -131.515 370.383 -120.742 380.581C-112.343 388.531 -102.784 396.354 -93.2799 404.131C-90.5906 406.332 -87.9059 408.529 -85.2531 410.724C-73.1913 420.705 -61.7813 430.657 -53.4019 440.866C-45.0289 451.067 -39.7685 461.419 -39.8321 472.23C-39.9431 490.877 -34.0153 508.014 -26.6077 524.872C-24.2359 530.27 -21.72 535.625 -19.1991 540.991C-13.8181 552.445 -8.41442 563.948 -4.34024 576.017L-4.33636 576.028C-3.65426 577.978 -3.87073 580.343 -4.94066 583.12C-6.00521 585.883 -7.86761 588.932 -10.2868 592.19C-14.759 598.214 -21.0244 604.812 -27.3574 611.482C-27.8784 612.03 -28.3998 612.579 -28.9207 613.129C-35.7467 620.327 -42.4903 627.564 -46.8295 634.102C-48.9987 637.37 -50.6056 640.519 -51.3049 643.449C-52.0057 646.385 -51.8171 649.209 -50.2308 651.708L-50.2287 651.711C-43.0586 662.927 -29.897 671.464 -13.3821 678.057C3.15739 684.66 23.2255 689.377 44.4263 692.857C80.0096 698.699 118.945 701.078 149.999 702.975C155.946 703.339 161.604 703.685 166.894 704.034C195.058 705.909 223.156 704.332 250.408 701.372C287.015 697.413 322.209 687.826 346.445 671.879C370.702 655.919 384.108 633.479 376.671 603.896C369.752 576.216 365.57 554.064 377.736 533.224L377.741 533.215C382.839 524.211 391.046 515.235 403.215 506.061L403.218 506.059C414.129 497.755 426.373 490.281 438.63 482.798C439.769 482.103 440.909 481.407 442.047 480.711C455.415 472.535 468.648 464.259 479.912 454.835C487.853 448.293 495.028 440.729 499.425 432.52C503.827 424.302 505.485 415.357 502.222 406.129Z" stroke="#0C6CA2" stroke-opacity="0.1" stroke-width="2" stroke-miterlimit="10"/>
<path d="M361.062 319.315L361.061 319.315C353.441 316.726 345.462 314.121 337.281 311.451C321.449 306.284 304.86 300.87 288.646 294.837C264.067 285.692 240.495 275.174 221.986 262.064C215.186 257.107 208.953 251.957 203.74 246.188L203.732 246.179C195.208 236.948 191.01 227.313 186.739 217.508C185.992 215.795 185.244 214.076 184.469 212.354C179.271 200.792 172.965 189.235 158.396 178.611C151.164 173.327 140.502 168.45 127.719 164.319C114.918 160.182 99.9207 156.77 83.9687 154.449C52.0753 149.807 16.2739 149.511 -13.4991 156.553L-13.5227 156.559L-13.5459 156.566C-14.3751 156.808 -15.0706 157.007 -15.7743 157.036L-15.8748 157.04L-15.9699 157.064C-38.3486 162.687 -51.6757 171.205 -62.187 179.39L-62.1914 179.394C-78.6435 192.386 -91.5301 207.464 -97.7081 223.838C-103.898 240.245 -103.347 257.954 -92.9148 276.067L-92.9097 276.076L-92.9045 276.085C-92.1082 277.413 -92.0351 278.851 -92.7224 280.482C-93.4228 282.144 -94.8916 283.936 -97.0577 285.815L-97.0639 285.821L-97.07 285.826C-101.857 290.151 -109.842 294.735 -119.111 299.456C-124.432 302.167 -130.122 304.896 -135.832 307.634C-140.074 309.669 -144.327 311.708 -148.45 313.751C-158.077 318.519 -166.949 323.279 -172.987 327.891C-176.003 330.194 -178.371 332.503 -179.762 334.808C-181.158 337.12 -181.636 339.549 -180.608 341.99L-180.607 341.993C-175.513 353.965 -165.606 365.347 -153.75 376.394C-144.574 384.943 -134.154 393.359 -123.791 401.729C-120.762 404.175 -117.737 406.618 -114.751 409.059C-101.51 419.879 -88.9919 430.673 -79.8119 441.742C-70.6381 452.804 -64.8877 464.034 -64.9995 475.754C-65.2282 496.132 -58.8098 514.822 -50.704 533.201C-48.0017 539.328 -45.1213 545.404 -42.2338 551.494C-36.4289 563.737 -30.5956 576.041 -26.1246 588.944C-25.4045 591.094 -25.6824 593.694 -26.8905 596.73C-28.0935 599.754 -30.1696 603.087 -32.8505 606.645C-37.7876 613.198 -44.6675 620.376 -51.62 627.63C-52.2204 628.257 -52.8214 628.884 -53.4217 629.511C-60.9459 637.373 -68.3696 645.272 -73.1615 652.404C-75.557 655.97 -77.3334 659.4 -78.1197 662.584C-78.9073 665.775 -78.7252 668.831 -77.0334 671.531L-77.0289 671.538C-69.2547 683.746 -54.8911 693.033 -36.8238 700.198C-18.7311 707.373 3.24467 712.487 26.4659 716.251C65.1735 722.525 107.503 725.072 141.328 727.107C148.084 727.514 154.5 727.9 160.481 728.291L160.482 728.291C191.213 730.262 221.882 728.782 251.643 725.515C291.456 721.219 329.845 710.84 356.314 693.482C382.803 676.11 397.478 651.641 389.401 619.248C382.05 589.151 377.574 565.376 390.519 542.47L390.52 542.467C396.035 532.641 404.976 523.026 418.165 513.201C430.041 504.455 443.208 496.55 456.381 488.641C457.881 487.74 459.381 486.839 460.88 485.937C475.519 477.124 489.982 468.189 502.388 458.009C511.085 450.929 519.058 442.674 524 433.734C528.944 424.79 530.9 415.067 527.365 405.127C523.399 393.927 514.046 384.06 501.641 375.316C489.226 366.564 473.64 358.856 457.019 351.997C434.018 342.505 408.878 334.581 387.264 327.769C377.67 324.746 368.771 321.941 361.062 319.315Z" stroke="#0C6CA2" stroke-opacity="0.1" stroke-width="2" stroke-miterlimit="10"/>
<path d="M372.423 311.174L372.42 311.173C364.304 308.441 355.798 305.691 347.069 302.868C329.812 297.288 311.683 291.426 293.971 284.868C267.31 274.997 241.737 263.598 221.746 249.334C214.325 244.007 207.725 238.46 201.863 232.292C192.591 222.3 188.002 211.814 183.341 201.163C182.536 199.323 181.729 197.478 180.895 195.631C175.241 183.101 168.412 170.601 152.711 159.211C144.837 153.499 133.291 148.229 119.459 143.764C105.61 139.294 89.4025 135.61 72.1582 133.101C37.6798 128.085 -1.03379 127.758 -33.4082 135.314L-33.4332 135.32L-33.4577 135.327C-34.2869 135.569 -34.9829 135.768 -35.6867 135.797L-35.7885 135.801L-35.8847 135.826C-59.8776 141.921 -74.5045 151.1 -86.0028 160.141L-86.0063 160.144C-103.684 174.199 -117.64 190.436 -124.372 208.074C-131.117 225.743 -130.607 244.82 -119.346 264.419C-118.498 265.952 -118.476 267.503 -119.246 269.238C-120.034 271.014 -121.629 272.916 -123.913 275.014C-129.212 279.665 -137.966 284.599 -148.094 289.673C-153.907 292.586 -160.117 295.52 -166.347 298.462C-170.982 300.651 -175.627 302.845 -180.127 305.04C-190.631 310.162 -200.3 315.265 -206.888 320.192C-210.179 322.653 -212.76 325.113 -214.283 327.56C-215.809 330.012 -216.344 332.581 -215.253 335.156L-215.251 335.161C-209.703 348.079 -198.89 360.349 -185.941 372.256C-175.944 381.449 -164.594 390.493 -153.305 399.49C-149.97 402.147 -146.64 404.801 -143.352 407.452C-128.898 419.109 -115.239 430.743 -105.249 442.684C-95.2649 454.617 -89.0379 466.748 -89.2577 479.43L-89.2578 479.432C-89.6046 501.542 -82.6159 521.834 -73.8049 541.78C-70.9363 548.274 -67.8833 554.716 -64.8241 561.17C-58.4565 574.605 -52.0627 588.095 -47.252 602.227C-46.46 604.575 -46.7729 607.41 -48.1002 610.713C-49.4211 613.999 -51.6956 617.622 -54.6276 621.488C-60.0339 628.615 -67.5659 636.427 -75.1691 644.313C-75.8151 644.983 -76.4616 645.654 -77.1073 646.325C-85.3263 654.862 -93.4285 663.428 -98.6566 671.146C-101.27 675.004 -103.205 678.706 -104.06 682.133C-104.917 685.565 -104.717 688.838 -102.881 691.715L-102.88 691.716C-94.4327 704.91 -78.8379 714.931 -59.2137 722.652C-39.5636 730.383 -15.7034 735.874 9.49857 739.91C50.5188 746.48 95.2509 749.217 131.403 751.43C139.669 751.935 147.486 752.414 154.708 752.904C188.051 755.173 221.221 753.385 253.757 749.8C296.771 745.168 338.422 733.995 367.126 715.252C395.851 696.494 411.738 670.045 402.748 634.945C394.688 602.459 390.169 576.86 404.231 552.285C410.451 541.606 419.855 531.362 434.023 520.688C447.159 510.897 461.747 502.122 476.338 493.345C477.531 492.627 478.725 491.91 479.917 491.191C495.676 481.699 511.296 472.108 524.841 461.173C534.293 453.556 543.005 444.661 548.421 434.991C553.837 425.319 556.003 414.778 552.169 403.94C547.964 391.783 537.893 381.081 524.487 371.603C511.071 362.119 494.202 353.78 476.205 346.369C451.296 336.113 424.07 327.578 400.704 320.253C390.337 317.003 380.731 313.992 372.423 311.174Z" stroke="#0C6CA2" stroke-opacity="0.1" stroke-width="2" stroke-miterlimit="10"/>
<path d="M-249.497 328.473L-249.502 328.475L-249.497 328.473ZM577.297 402.935L577.296 402.933C572.789 389.875 561.97 378.367 547.548 368.168C533.116 357.962 514.961 348.985 495.586 341.01C468.464 329.847 438.794 320.592 413.439 312.682C402.597 309.299 392.543 306.163 383.815 303.229C374.745 300.168 365.22 297.088 355.439 293.926C337.206 288.032 318.086 281.85 299.372 274.966C270.634 264.395 243.004 252.219 221.282 237.009C213.231 231.306 205.961 225.18 199.746 218.622C189.741 207.89 184.817 196.612 179.818 185.162C178.95 183.174 178.08 181.181 177.181 179.185C171.108 165.708 163.756 152.265 146.763 140.016C138.324 133.922 125.914 128.283 111.028 123.498C96.1244 118.707 78.6708 114.751 60.0981 112.057C22.9631 106.67 -18.7369 106.314 -53.5587 114.479L-53.5832 114.485L-53.6072 114.492C-53.9928 114.605 -54.4503 114.722 -54.9287 114.844C-55.3914 114.962 -55.8744 115.085 -56.2922 115.207C-82.2136 121.585 -97.8584 131.414 -110.338 141.306C-129.406 156.333 -144.424 173.781 -151.672 192.709C-158.93 211.664 -158.392 232.108 -146.336 252.992C-145.461 254.636 -145.42 256.346 -146.234 258.231C-147.065 260.155 -148.772 262.212 -151.309 264.413C-157.045 269.389 -166.558 274.661 -177.564 280.082C-183.841 283.173 -190.547 286.287 -197.277 289.411C-202.355 291.769 -207.447 294.134 -212.377 296.499C-223.794 301.976 -234.296 307.437 -241.438 312.72C-245.005 315.359 -247.795 317.997 -249.431 320.621C-251.071 323.253 -251.624 326.002 -250.425 328.753L-250.424 328.756C-244.36 342.565 -232.63 355.696 -218.598 368.454C-207.847 378.228 -195.667 387.851 -183.543 397.429C-179.841 400.354 -176.144 403.274 -172.495 406.194C-156.861 418.702 -142.09 431.196 -131.294 444.026C-120.505 456.848 -113.779 469.894 -114.039 483.539L-114.039 483.54C-114.485 507.482 -106.935 529.324 -97.3958 550.764C-94.2915 557.741 -90.9855 564.659 -87.6728 571.591C-80.7747 586.025 -73.8476 600.52 -68.6519 615.734C-67.7901 618.279 -68.1394 621.346 -69.5862 624.906C-71.0264 628.451 -73.5018 632.356 -76.6886 636.521C-82.5763 644.215 -90.7812 652.653 -99.0606 661.168C-99.7461 661.873 -100.432 662.579 -101.117 663.284C-110.052 672.485 -118.86 681.714 -124.563 690.028C-127.413 694.184 -129.528 698.166 -130.477 701.849C-131.428 705.536 -131.239 709.041 -129.297 712.119L-129.294 712.124C-120.243 726.31 -103.447 737.08 -82.2714 745.369C-61.0689 753.67 -35.3025 759.551 -8.08261 763.858C36.5325 770.919 85.2111 773.773 124.339 776.068C132.951 776.573 141.1 777.051 148.641 777.54C184.555 779.905 220.26 778.012 255.33 774.321L255.333 774.321C301.553 769.354 346.39 757.338 377.326 737.183C408.282 717.015 425.449 688.586 415.852 650.874C407.079 615.984 402.236 588.575 417.414 562.332C424.093 551.016 434.167 539.731 449.626 528.4L449.632 528.395L449.638 528.391C464.2 517.313 480.492 507.509 496.773 497.712C497.456 497.301 498.139 496.89 498.822 496.478C515.765 486.278 532.616 476.029 547.301 464.337C557.653 456.173 567.093 446.59 572.981 436.191C578.871 425.79 581.256 414.479 577.297 402.935Z" stroke="#0C6CA2" stroke-opacity="0.1" stroke-width="2" stroke-miterlimit="10"/>
<path d="M-76.742 93.9861L-76.7339 93.9843C-76.2028 93.8633 -75.7395 93.7451 -75.2645 93.6239L-75.2629 93.6234C-74.7912 93.503 -74.3076 93.3795 -73.7521 93.253C-73.7506 93.2527 -73.7492 93.2523 -73.7478 93.252L-73.3962 94.2166C0.874324 76.9413 104.774 95.5183 140.239 121.198L-76.742 93.9861ZM-76.742 93.9861L-76.7501 93.9881M-76.742 93.9861L-76.7501 93.9881M569.777 467.509C569.777 467.509 569.777 467.509 569.776 467.51L569.082 466.712L569.777 467.509ZM569.777 467.509C553.949 479.958 535.859 490.817 517.631 501.578C516.435 502.285 515.238 502.99 514.041 503.696C496.984 513.756 479.924 523.817 464.511 535.13C448.064 547.317 437.256 559.242 430.159 571.38C413.893 599.498 418.818 628.938 428.265 666.022M569.777 467.509L428.265 666.022M-76.7501 93.9881C-104.581 100.85 -121.25 111.332 -134.472 121.867C-154.928 137.865 -171.015 156.472 -178.778 176.689C-186.554 196.939 -185.973 218.807 -173.075 241.183L-173.07 241.191M-76.7501 93.9881L-173.07 241.191M-173.07 241.191C-172.068 242.897 -172.043 244.738 -172.975 246.799C-173.919 248.885 -175.811 251.104 -178.472 253.413C-184.719 258.717 -195.004 264.338 -206.872 270.115C-213.64 273.408 -220.868 276.728 -228.118 280.057C-233.59 282.569 -239.073 285.088 -244.381 287.605C-256.674 293.435 -267.974 299.239 -275.667 304.839C-279.508 307.636 -282.512 310.425 -284.279 313.191C-286.049 315.963 -286.657 318.851 -285.396 321.735L-285.393 321.743M-173.07 241.191L-285.393 321.743M-285.393 321.743C-278.805 336.492 -266.154 350.51 -251.038 364.125C-239.473 374.542 -226.388 384.79 -213.366 394.988C-209.365 398.122 -205.37 401.251 -201.426 404.378C-184.615 417.713 -168.741 431.029 -157.147 444.704C-145.56 458.371 -138.346 472.282 -138.654 486.839C-139.218 512.511 -131.17 535.956 -120.959 558.966C-117.597 566.543 -114.009 574.057 -110.415 581.586C-103.063 596.984 -95.6807 612.444 -90.1326 628.645C-89.2015 631.386 -89.5911 634.683 -91.1643 638.502C-92.7308 642.304 -95.4169 646.493 -98.8695 650.957C-105.235 659.188 -114.094 668.216 -123.033 677.325C-123.793 678.1 -124.553 678.875 -125.313 679.65C-134.98 689.515 -144.504 699.408 -150.668 708.317C-153.75 712.771 -156.032 717.035 -157.056 720.974C-158.082 724.919 -157.873 728.657 -155.787 731.934C-146.133 747.111 -128.137 758.629 -105.414 767.492C-82.6634 776.365 -54.9991 782.642 -25.7773 787.234C21.8762 794.722 73.8297 797.749 115.608 800.184C125.064 800.735 133.998 801.255 142.244 801.79L142.245 801.79M-285.393 321.743L142.245 801.79M142.245 801.79C180.728 804.251 219.25 802.24 256.54 798.255L256.541 798.255C306.105 792.946 354.137 780.138 387.234 758.574C420.355 736.996 438.649 706.541 428.265 666.022M142.245 801.79L428.265 666.022" stroke="#0C6CA2" stroke-opacity="0.1" stroke-width="2" stroke-miterlimit="10"/>
<path d="M592.256 470.668L592.255 470.668C575.286 483.873 555.967 495.392 536.656 506.831L535.223 507.68C516.375 518.843 497.589 529.969 480.959 542.587L480.949 542.595C463.48 555.434 451.937 567.999 444.422 580.962C427.313 610.74 432.283 642.009 442.441 681.49L442.441 681.492C453.451 724.724 433.879 757.159 398.522 780.123C363.188 803.072 311.964 816.672 259.196 822.317C219.405 826.609 178.347 828.725 137.255 825.967C127.822 825.339 117.544 824.733 106.641 824.091C62.4042 821.484 7.87865 818.271 -42.2113 810.468C-73.4325 805.604 -102.991 798.949 -127.304 789.52C-151.588 780.102 -170.815 767.85 -181.143 751.688C-183.369 748.237 -183.596 744.287 -182.5 740.107C-181.406 735.93 -178.964 731.402 -175.662 726.666C-169.058 717.19 -158.851 706.654 -148.484 696.138C-147.681 695.324 -146.877 694.51 -146.074 693.696C-136.477 683.975 -126.959 674.333 -120.119 665.543C-116.414 660.782 -113.528 656.311 -111.842 652.251C-110.15 648.176 -109.724 644.647 -110.724 641.708C-116.658 624.424 -124.578 607.934 -132.465 591.512C-136.314 583.496 -140.156 575.497 -143.755 567.43C-154.697 542.903 -163.308 517.908 -162.626 490.505L-162.626 490.503C-162.209 474.982 -169.901 460.168 -182.299 445.629C-194.703 431.082 -211.72 416.926 -229.745 402.755C-233.988 399.419 -238.288 396.081 -242.594 392.739C-256.542 381.912 -270.559 371.033 -282.947 359.97C-299.156 345.494 -312.713 330.589 -319.754 314.893C-321.12 311.856 -320.492 308.813 -318.61 305.887C-316.733 302.968 -313.526 300.025 -309.415 297.073C-301.184 291.163 -289.071 285.041 -275.88 278.881C-270.279 276.266 -264.49 273.648 -258.709 271.032C-250.828 267.467 -242.961 263.909 -235.601 260.373C-222.845 254.246 -211.773 248.261 -205.027 242.581L-205.017 242.573L-205.008 242.565C-201.948 240.14 -199.872 237.813 -198.851 235.606C-197.847 233.437 -197.878 231.434 -198.939 229.504C-212.665 205.643 -213.205 182.407 -204.875 160.895C-196.557 139.413 -179.399 119.646 -157.716 102.584L-157.716 102.584C-143.48 91.4025 -125.798 80.2717 -96.0763 72.924C-95.2382 72.68 -94.1269 72.4272 -93.0564 72.1836C-93.0555 72.1833 -93.0545 72.1832 -93.0535 72.1829L-92.7019 73.1476C-13.5044 54.856 97.4076 74.5613 135.168 101.971L592.256 470.668ZM592.256 470.668C604.24 461.321 615.147 450.409 621.987 438.576C628.828 426.743 631.65 413.894 627.266 400.744L627.264 400.74M592.256 470.668L627.264 400.74M627.264 400.74C622.214 385.826 609.931 372.678 593.492 361.025M627.264 400.74L593.492 361.025M593.492 361.025C577.043 349.364 556.32 339.118 534.191 330.028M593.492 361.025L534.191 330.028M534.191 330.028C502.944 317.193 468.738 306.606 439.645 297.601M534.191 330.028L439.645 297.601M439.645 297.601C427.557 293.859 416.351 290.391 406.607 287.148L439.645 297.601Z" stroke="#0C6CA2" stroke-opacity="0.1" stroke-width="2" stroke-miterlimit="10"/>
<path d="M455.159 696.834L455.159 696.836C466.938 742.777 446.084 777.194 408.461 801.57C370.861 825.931 316.381 840.376 260.428 846.458C218.136 851.057 174.261 853.29 130.317 850.448L130.315 850.448C120.142 849.768 109.021 849.115 97.2023 848.421C50.4265 845.675 -7.2763 842.287 -60.3434 834.069C-93.5842 828.922 -125.067 821.872 -150.95 811.871C-176.804 801.882 -197.249 788.881 -208.18 771.727C-210.51 768.099 -210.722 763.934 -209.53 759.513C-208.339 755.095 -205.716 750.295 -202.177 745.265C-195.097 735.203 -184.185 723.998 -173.105 712.807C-172.292 711.985 -171.478 711.164 -170.665 710.343C-160.365 699.952 -150.139 689.635 -142.8 680.239C-138.841 675.17 -135.755 670.41 -133.951 666.087C-132.14 661.748 -131.677 657.984 -132.748 654.847C-139.034 636.575 -147.409 619.119 -155.751 601.733C-159.882 593.122 -164.005 584.528 -167.862 575.861C-179.475 549.764 -188.584 523.166 -187.785 494.033L-187.785 494.033C-187.327 477.549 -195.536 461.82 -208.762 446.393C-221.994 430.958 -240.148 415.942 -259.371 400.92C-263.926 397.361 -268.542 393.801 -273.164 390.236C-288.011 378.784 -302.922 367.282 -316.101 355.591C-333.38 340.264 -347.82 324.495 -355.306 307.904C-357.066 304.016 -355.682 300.127 -352.541 296.406C-349.38 292.66 -344.248 288.842 -337.884 284.986C-325.292 277.357 -307.605 269.427 -290.016 261.54L-289.398 261.263C-271.569 253.268 -253.903 245.323 -241.621 237.74C-235.472 233.943 -230.75 230.283 -228.025 226.808C-225.293 223.323 -224.74 220.269 -226.3 217.509C-240.704 192.254 -241.204 167.645 -232.319 144.866C-223.446 122.119 -205.218 101.192 -182.147 83.1595M455.159 696.834L417.48 279.96L417.692 279.028C406.704 275.357 395.145 271.661 383.265 267.862C354.838 258.773 324.572 249.096 295.891 237.758C255.219 221.679 217.957 202.34 193.861 176.801L193.86 176.8C181.416 163.648 175.365 149.852 169.245 135.895C168.236 133.595 167.225 131.29 166.184 128.983C158.829 112.694 149.987 96.4734 129.41 81.6345C119.097 74.1974 103.821 67.3203 85.4607 61.5071C67.0829 55.6882 45.5452 50.9134 22.6604 47.7141C-23.0973 41.317 -74.3353 41.2056 -116.55 51.7084M455.159 696.834C447.386 666.764 442.507 641.27 447.104 617.664C451.693 594.101 465.756 572.288 496.178 549.719C513.702 536.731 533.301 525.219 552.938 513.686C553.867 513.14 554.796 512.595 555.725 512.049C576.272 499.974 596.752 487.799 614.722 473.842C627.461 463.957 639.106 452.407 646.42 439.844C653.734 427.28 656.765 413.611 652.078 399.56L651.115 399.749L455.159 696.834ZM-182.147 83.1595C-167.167 71.3334 -148.179 59.5396 -116.55 51.7084M-182.147 83.1595C-182.146 83.1591 -182.146 83.1587 -182.145 83.1583L-181.448 83.9608L-182.148 83.1608C-182.148 83.1604 -182.147 83.1599 -182.147 83.1595ZM-116.55 51.7084L-116.181 52.6689L-116.551 51.7086C-116.55 51.7086 -116.55 51.7084 -116.55 51.7084Z" stroke="#0C6CA2" stroke-opacity="0.1" stroke-width="2" stroke-miterlimit="10"/>
</svg>
