<svg width="82" height="82" viewBox="0 0 82 82" fill="none" xmlns="http://www.w3.org/2000/svg">
<circle cx="41" cy="41" r="41" fill="#6F0D9D" fill-opacity="0.3"/>
<path d="M54.0018 35.7273C54.0018 38.0308 53.2229 40.1603 51.6652 42.1158C50.1074 44.0712 47.9821 45.6166 45.2891 46.7518C42.5962 47.8869 39.6671 48.4545 36.5018 48.4545C35.0766 48.4545 33.6183 48.322 32.1268 48.0568C30.0719 49.5151 27.7684 50.5757 25.2163 51.2386C24.6197 51.3878 23.9071 51.5203 23.0785 51.6363H23.004C22.8217 51.6363 22.6518 51.5701 22.4944 51.4375C22.3369 51.3049 22.2417 51.1309 22.2085 50.9155C22.1919 50.8658 22.1836 50.8119 22.1836 50.7539C22.1836 50.6959 22.1878 50.642 22.1961 50.5923C22.2044 50.5426 22.2209 50.4929 22.2458 50.4432L22.3079 50.3189L22.3949 50.1822L22.4944 50.0579L22.6062 49.9336L22.7057 49.8217C22.7885 49.7223 22.9791 49.5151 23.2774 49.2003C23.5757 48.8854 23.7911 48.641 23.9237 48.467C24.0563 48.293 24.2427 48.0527 24.483 47.7461C24.7233 47.4395 24.9305 47.1205 25.1045 46.7891C25.2785 46.4576 25.4483 46.093 25.614 45.6953C23.5591 44.5021 21.9434 43.0355 20.7667 41.2954C19.5901 39.5554 19.0018 37.6993 19.0018 35.7273C19.0018 33.4238 19.7807 31.2943 21.3385 29.3388C22.8962 27.3833 25.0216 25.8379 27.7145 24.7028C30.4075 23.5676 33.3366 23 36.5018 23C39.6671 23 42.5962 23.5676 45.2891 24.7028C47.9821 25.8379 50.1074 27.3833 51.6652 29.3388C53.2229 31.2943 54.0018 33.4238 54.0018 35.7273ZM63.5473 42.0909C63.5473 44.0795 62.959 45.9397 61.7824 47.6715C60.6058 49.4033 58.99 50.8658 56.9351 52.0589C57.1008 52.4567 57.2706 52.8212 57.4446 53.1527C57.6187 53.4841 57.8258 53.8031 58.0661 54.1097C58.3064 54.4163 58.4928 54.6566 58.6254 54.8306C58.758 55.0046 58.9734 55.249 59.2717 55.5639C59.57 55.8788 59.7606 56.0859 59.8434 56.1854C59.86 56.2019 59.8932 56.2392 59.9429 56.2972C59.9926 56.3552 60.0299 56.3966 60.0547 56.4215C60.0796 56.4464 60.1127 56.4878 60.1542 56.5458C60.1956 56.6038 60.2246 56.6494 60.2412 56.6825L60.3033 56.8068L60.353 56.9559L60.3655 57.1175L60.3406 57.2791C60.2909 57.5111 60.1832 57.6934 60.0174 57.826C59.8517 57.9586 59.6694 58.0166 59.4706 58C58.642 57.884 57.9294 57.7514 57.3328 57.6023C54.7807 56.9394 52.4772 55.8788 50.4223 54.4204C48.9308 54.6856 47.4725 54.8182 46.0473 54.8182C41.5563 54.8182 37.6453 53.7244 34.3143 51.5369C35.2755 51.6032 36.0047 51.6363 36.5018 51.6363C39.1699 51.6363 41.7303 51.2635 44.1829 50.5177C46.6356 49.772 48.8231 48.7031 50.7454 47.3111C52.8169 45.7864 54.4078 44.0298 55.5182 42.0412C56.6285 40.0525 57.1836 37.9479 57.1836 35.7273C57.1836 34.4512 56.9931 33.1918 56.6119 31.9489C58.7497 33.1255 60.44 34.6004 61.6829 36.3736C62.9258 38.1468 63.5473 40.0525 63.5473 42.0909Z" fill="#6F0D9D"/>
</svg>
