<svg width="82" height="82" viewBox="0 0 82 82" fill="none" xmlns="http://www.w3.org/2000/svg">
<circle cx="41" cy="41" r="41" fill="#0A7C60" fill-opacity="0.3"/>
<path d="M29.6312 27.4229C32.405 25.0934 35.829 23.675 39.4375 23.3604V26.9375C39.4375 27.3519 39.6021 27.7493 39.8951 28.0423C40.1882 28.3353 40.5856 28.5 41 28.5C41.4144 28.5 41.8118 28.3353 42.1048 28.0423C42.3979 27.7493 42.5625 27.3519 42.5625 26.9375V23.3604C46.792 23.736 50.7459 25.6186 53.7037 28.6652C56.6616 31.7117 58.4265 35.7195 58.6771 39.9583H55.0625C54.6481 39.9583 54.2507 40.1229 53.9576 40.4159C53.6646 40.709 53.5 41.1064 53.5 41.5208C53.5 41.9352 53.6646 42.3326 53.9576 42.6256C54.2507 42.9187 54.6481 43.0833 55.0625 43.0833H58.5917C58.05 47.9 55.6271 51.9333 51.9917 54.8916C51.6701 55.1535 51.4657 55.5324 51.4235 55.945C51.3813 56.3576 51.5048 56.7701 51.7667 57.0916C52.0286 57.4132 52.4075 57.6176 52.8201 57.6598C53.2326 57.702 53.6451 57.5785 53.9667 57.3166C58.6042 53.5395 61.6125 48.1625 61.8208 41.7229C61.8347 41.6151 61.8375 41.5062 61.8292 41.3979L61.8333 41C61.8333 29.4937 52.5062 20.1666 41 20.1666C29.4937 20.1666 20.1667 29.4937 20.1667 41C20.1667 47.775 23.3396 53.4041 28.0208 57.3041C28.3404 57.5577 28.7464 57.6762 29.1521 57.6344C29.5579 57.5926 29.9312 57.3938 30.1924 57.0804C30.4535 56.767 30.5817 56.364 30.5497 55.9573C30.5176 55.5507 30.3278 55.1727 30.0208 54.9041C26.4583 51.9333 23.9729 47.8895 23.4125 43.0833H26.9375C27.3519 43.0833 27.7493 42.9187 28.0423 42.6256C28.3354 42.3326 28.5 41.9352 28.5 41.5208C28.5 41.1064 28.3354 40.709 28.0423 40.4159C27.7493 40.1229 27.3519 39.9583 26.9375 39.9583H23.3208C23.55 36.0375 25.0521 32.4583 27.4229 29.6312L30 32.2083C30.2962 32.4843 30.688 32.6345 31.0927 32.6274C31.4975 32.6203 31.8838 32.4563 32.17 32.17C32.4563 31.8837 32.6203 31.4975 32.6274 31.0927C32.6346 30.6879 32.4843 30.2962 32.2083 30L29.6312 27.4229ZM50.9167 29.8208C50.6745 29.6343 50.3761 29.5358 50.0705 29.5415C49.765 29.5472 49.4705 29.6567 49.2354 29.852L48.7812 30.2333C47.1432 31.6089 45.5106 32.9908 43.8833 34.3791C42.5167 35.5458 41.1187 36.7541 40.0021 37.7395C39.5186 38.1645 39.0401 38.5951 38.5667 39.0312C38.2577 39.308 37.9655 39.6029 37.6917 39.9145C37.3685 40.3123 37.1286 40.7709 36.9861 41.2632C36.8436 41.7555 36.8014 42.2713 36.862 42.7802C36.9226 43.2891 37.0848 43.7806 37.339 44.2256C37.5932 44.6706 37.9341 45.0601 38.3417 45.3708C39.1716 46.0107 40.2182 46.3021 41.2595 46.1831C42.3007 46.064 43.2546 45.544 43.9187 44.7333C44.1021 44.5083 44.3458 44.1166 44.5958 43.6979C44.8625 43.25 45.1896 42.677 45.5521 42.0354C46.275 40.7437 47.1521 39.1354 48 37.5666C49.007 35.6978 50.0063 33.8249 50.9979 31.9479L51.2708 31.4291C51.4111 31.1624 51.4524 30.8546 51.3876 30.5602C51.3228 30.2659 51.156 30.004 50.9167 29.8208Z" fill="#0A7C60"/>
</svg>
